<svg width="33" height="23" viewBox="0 0 33 23" fill="none" xmlns="http://www.w3.org/2000/svg">
<path d="M0.806 22.126C0.684667 22.2473 0.572 22.3167 0.468 22.334C0.364 22.3513 0.286 22.36 0.234 22.36C0.078 22.36 0 22.282 0 22.126C0 22.0047 0.0693333 21.866 0.208 21.71C0.346667 21.554 0.459333 21.424 0.546 21.32C0.996667 20.8 1.638 20.0373 2.47 19.032C3.31933 18.0267 4.316 16.8393 5.46 15.47C6.604 14.1007 7.84333 12.6013 9.178 10.972C10.5127 9.34267 11.8993 7.63533 13.338 5.85C14.794 4.06467 16.25 2.25333 17.706 0.416001C17.8273 0.260001 17.966 0.156001 18.122 0.104C18.278 0.0346667 18.434 0 18.59 0C18.746 0 18.8847 0.0346667 19.006 0.104C19.1273 0.173334 19.188 0.268667 19.188 0.390001C19.188 0.459335 19.136 0.563334 19.032 0.702C18.4253 1.41267 17.6887 2.27933 16.822 3.302C15.9727 4.30733 15.0453 5.39933 14.04 6.578C13.0347 7.75667 12.0033 8.97867 10.946 10.244C9.88867 11.492 8.84 12.7227 7.8 13.936C6.77733 15.1493 5.80667 16.2933 4.888 17.368C3.98667 18.4427 3.18067 19.396 2.47 20.228C1.75933 21.0427 1.20467 21.6753 0.806 22.126Z" fill="#47423E"/>
<path d="M14.6374 21.606C13.9961 21.606 13.4587 21.45 13.0254 21.138C12.6094 20.8087 12.2974 20.384 12.0894 19.864C11.8814 19.344 11.7774 18.7893 11.7774 18.2C11.7774 17.5413 11.9074 16.7873 12.1674 15.938C12.4274 15.0887 12.7827 14.2133 13.2334 13.312C13.7014 12.4107 14.2387 11.5353 14.8454 10.686C15.4521 9.83667 16.1021 9.074 16.7954 8.398C17.5061 7.70467 18.2341 7.15867 18.9794 6.76C19.7247 6.36133 20.4614 6.162 21.1894 6.162C22.1081 6.162 22.7407 6.448 23.0874 7.02C23.4514 7.57467 23.6334 8.25933 23.6334 9.074C23.6334 9.76733 23.5207 10.556 23.2954 11.44C23.0701 12.3067 22.7494 13.2167 22.3334 14.17C21.9347 15.106 21.4581 16.016 20.9034 16.9C20.3487 17.784 19.7334 18.5813 19.0574 19.292C18.3987 20.0027 17.6967 20.566 16.9514 20.982C16.2061 21.398 15.4347 21.606 14.6374 21.606ZM14.9494 21.086C15.5387 21.086 16.1367 20.8607 16.7434 20.41C17.3501 19.942 17.9394 19.3267 18.5114 18.564C19.0834 17.784 19.6121 16.9347 20.0974 16.016C20.6001 15.08 21.0421 14.144 21.4234 13.208C21.8047 12.2547 22.0994 11.3793 22.3074 10.582C22.5154 9.76733 22.6194 9.1 22.6194 8.58C22.6194 8.07733 22.5241 7.63533 22.3334 7.254C22.1427 6.85533 21.7701 6.656 21.2154 6.656C20.6434 6.656 20.0541 6.89 19.4474 7.358C18.8407 7.826 18.2427 8.45 17.6534 9.23C17.0814 9.99267 16.5354 10.842 16.0154 11.778C15.4954 12.714 15.0361 13.65 14.6374 14.586C14.2387 15.522 13.9267 16.3887 13.7014 17.186C13.4761 17.966 13.3634 18.5987 13.3634 19.084C13.3634 19.6213 13.4761 20.0893 13.7014 20.488C13.9267 20.8867 14.3427 21.086 14.9494 21.086Z" fill="#47423E"/>
<path d="M23.5877 21.372C23.4837 21.372 23.4057 21.346 23.3537 21.294C23.3017 21.242 23.2844 21.1987 23.3017 21.164C24.4804 19.0493 25.659 16.9433 26.8377 14.846C28.0164 12.7313 29.195 10.6253 30.3737 8.528C29.6977 9.13467 29.013 9.71533 28.3197 10.27C27.6264 10.8073 26.8897 11.31 26.1097 11.778C26.075 11.7953 26.023 11.804 25.9537 11.804C25.919 11.7867 25.893 11.752 25.8757 11.7C25.8757 11.648 25.8757 11.6047 25.8757 11.57C25.8757 11.5007 25.9017 11.44 25.9537 11.388C26.6644 10.8507 27.4617 10.244 28.3457 9.568C29.2297 8.87467 30.027 8.14667 30.7377 7.384C30.9284 7.176 31.119 6.98533 31.3097 6.812C31.5004 6.63867 31.6997 6.54333 31.9077 6.526L32.7137 6.448C32.7484 6.43067 32.7744 6.43067 32.7917 6.448C32.8264 6.448 32.861 6.448 32.8957 6.448V6.578L24.9397 21.19C24.8184 21.2593 24.6017 21.294 24.2897 21.294C23.9777 21.3113 23.7437 21.3373 23.5877 21.372Z" fill="#47423E"/>
</svg>
