<svg width="35" height="23" viewBox="0 0 35 23" fill="none" xmlns="http://www.w3.org/2000/svg">
<path d="M0.806 22.126C0.684667 22.2473 0.572 22.3167 0.468 22.334C0.364 22.3513 0.286 22.36 0.234 22.36C0.078 22.36 0 22.282 0 22.126C0 22.0047 0.0693333 21.866 0.208 21.71C0.346667 21.554 0.459333 21.424 0.546 21.32C0.996667 20.8 1.638 20.0373 2.47 19.032C3.31933 18.0267 4.316 16.8393 5.46 15.47C6.604 14.1007 7.84333 12.6013 9.178 10.972C10.5127 9.34267 11.8993 7.63533 13.338 5.85C14.794 4.06467 16.25 2.25333 17.706 0.416001C17.8273 0.260001 17.966 0.156001 18.122 0.104C18.278 0.0346667 18.434 0 18.59 0C18.746 0 18.8847 0.0346667 19.006 0.104C19.1273 0.173334 19.188 0.268667 19.188 0.390001C19.188 0.459335 19.136 0.563334 19.032 0.702C18.4253 1.41267 17.6887 2.27933 16.822 3.302C15.9727 4.30733 15.0453 5.39933 14.04 6.578C13.0347 7.75667 12.0033 8.97867 10.946 10.244C9.88867 11.492 8.84 12.7227 7.8 13.936C6.77733 15.1493 5.80667 16.2933 4.888 17.368C3.98667 18.4427 3.18067 19.396 2.47 20.228C1.75933 21.0427 1.20467 21.6753 0.806 22.126Z" fill="#47423E"/>
<path d="M14.6374 21.606C13.9961 21.606 13.4587 21.45 13.0254 21.138C12.6094 20.8087 12.2974 20.384 12.0894 19.864C11.8814 19.344 11.7774 18.7893 11.7774 18.2C11.7774 17.5413 11.9074 16.7873 12.1674 15.938C12.4274 15.0887 12.7827 14.2133 13.2334 13.312C13.7014 12.4107 14.2387 11.5353 14.8454 10.686C15.4521 9.83667 16.1021 9.074 16.7954 8.398C17.5061 7.70467 18.2341 7.15867 18.9794 6.76C19.7247 6.36133 20.4614 6.162 21.1894 6.162C22.1081 6.162 22.7407 6.448 23.0874 7.02C23.4514 7.57467 23.6334 8.25933 23.6334 9.074C23.6334 9.76733 23.5207 10.556 23.2954 11.44C23.0701 12.3067 22.7494 13.2167 22.3334 14.17C21.9347 15.106 21.4581 16.016 20.9034 16.9C20.3487 17.784 19.7334 18.5813 19.0574 19.292C18.3987 20.0027 17.6967 20.566 16.9514 20.982C16.2061 21.398 15.4347 21.606 14.6374 21.606ZM14.9494 21.086C15.5387 21.086 16.1367 20.8607 16.7434 20.41C17.3501 19.942 17.9394 19.3267 18.5114 18.564C19.0834 17.784 19.6121 16.9347 20.0974 16.016C20.6001 15.08 21.0421 14.144 21.4234 13.208C21.8047 12.2547 22.0994 11.3793 22.3074 10.582C22.5154 9.76733 22.6194 9.1 22.6194 8.58C22.6194 8.07733 22.5241 7.63533 22.3334 7.254C22.1427 6.85533 21.7701 6.656 21.2154 6.656C20.6434 6.656 20.0541 6.89 19.4474 7.358C18.8407 7.826 18.2427 8.45 17.6534 9.23C17.0814 9.99267 16.5354 10.842 16.0154 11.778C15.4954 12.714 15.0361 13.65 14.6374 14.586C14.2387 15.522 13.9267 16.3887 13.7014 17.186C13.4761 17.966 13.3634 18.5987 13.3634 19.084C13.3634 19.6213 13.4761 20.0893 13.7014 20.488C13.9267 20.8867 14.3427 21.086 14.9494 21.086Z" fill="#47423E"/>
<path d="M27.4816 21.606C27.2909 21.606 27.0049 21.5367 26.6236 21.398C26.2423 21.2767 25.8349 21.1293 25.4016 20.956C24.9683 20.7653 24.5609 20.592 24.1796 20.436C23.8156 20.2627 23.5556 20.1413 23.3996 20.072L21.6056 21.502C21.5363 21.5367 21.4496 21.528 21.3456 21.476C21.2416 21.424 21.2069 21.3633 21.2416 21.294C21.2589 21.2593 21.3889 21.1033 21.6316 20.826C21.8743 20.5313 22.1603 20.2107 22.4896 19.864C22.8016 19.5 23.0876 19.1793 23.3476 18.902C23.6076 18.6247 23.7549 18.4773 23.7896 18.46H24.0236C24.1276 18.46 24.2489 18.4773 24.3876 18.512C24.8209 18.1307 25.3756 17.628 26.0516 17.004C26.7276 16.38 27.4383 15.6867 28.1836 14.924C28.9289 14.1613 29.6309 13.3813 30.2896 12.584C30.9656 11.7693 31.5116 10.9893 31.9276 10.244C32.3436 9.48133 32.5516 8.80534 32.5516 8.216C32.5516 7.8 32.4389 7.50533 32.2136 7.332C31.9883 7.15867 31.6763 7.072 31.2776 7.072C30.6189 7.072 30.0036 7.28867 29.4316 7.722C28.8596 8.15533 28.3569 8.69267 27.9236 9.334C27.5076 9.958 27.1869 10.556 26.9616 11.128C26.9269 11.1973 26.8923 11.232 26.8576 11.232C26.7536 11.284 26.6496 11.284 26.5456 11.232C26.5109 11.1453 26.5023 11.0847 26.5196 11.05C26.7969 10.2873 27.1869 9.542 27.6896 8.814C28.2096 8.06867 28.8336 7.45334 29.5616 6.968C30.2896 6.48267 31.0956 6.24 31.9796 6.24C32.6383 6.24 33.1929 6.43067 33.6436 6.812C34.1116 7.176 34.3456 7.71333 34.3456 8.424C34.3456 8.892 34.1636 9.42933 33.7996 10.036C33.4356 10.6427 32.9503 11.284 32.3436 11.96C31.7369 12.636 31.0783 13.312 30.3676 13.988C29.6569 14.664 28.9463 15.3053 28.2356 15.912C27.5249 16.5187 26.8749 17.0647 26.2856 17.55C25.6963 18.018 25.2369 18.3907 24.9076 18.668C25.0809 18.7373 25.3323 18.8587 25.6616 19.032C25.9909 19.188 26.3463 19.3527 26.7276 19.526C27.1089 19.6993 27.4556 19.8467 27.7676 19.968C28.0969 20.0893 28.3396 20.15 28.4956 20.15C28.8596 20.15 29.1976 20.0633 29.5096 19.89C29.8389 19.6993 30.1336 19.4827 30.3936 19.24C30.6536 18.9973 30.8703 18.7807 31.0436 18.59C31.2343 18.382 31.3643 18.2693 31.4336 18.252C31.4683 18.2347 31.5116 18.252 31.5636 18.304C31.6329 18.356 31.6589 18.4253 31.6416 18.512C31.4336 18.772 31.1649 19.0753 30.8356 19.422C30.5236 19.7687 30.1683 20.1067 29.7696 20.436C29.3883 20.7653 28.9983 21.0427 28.5996 21.268C28.2009 21.4933 27.8283 21.606 27.4816 21.606Z" fill="#47423E"/>
</svg>
