<svg width="34" height="23" viewBox="0 0 34 23" fill="none" xmlns="http://www.w3.org/2000/svg">
<path d="M0.806 22.126C0.684667 22.2473 0.572 22.3167 0.468 22.334C0.364 22.3513 0.286 22.36 0.234 22.36C0.078 22.36 0 22.282 0 22.126C0 22.0047 0.0693333 21.866 0.208 21.71C0.346667 21.554 0.459333 21.424 0.546 21.32C0.996667 20.8 1.638 20.0373 2.47 19.032C3.31933 18.0267 4.316 16.8393 5.46 15.47C6.604 14.1007 7.84333 12.6013 9.178 10.972C10.5127 9.34267 11.8993 7.63533 13.338 5.85C14.794 4.06467 16.25 2.25333 17.706 0.416001C17.8273 0.260001 17.966 0.156001 18.122 0.104C18.278 0.0346667 18.434 0 18.59 0C18.746 0 18.8847 0.0346667 19.006 0.104C19.1273 0.173334 19.188 0.268667 19.188 0.390001C19.188 0.459335 19.136 0.563334 19.032 0.702C18.4253 1.41267 17.6887 2.27933 16.822 3.302C15.9727 4.30733 15.0453 5.39933 14.04 6.578C13.0347 7.75667 12.0033 8.97867 10.946 10.244C9.88867 11.492 8.84 12.7227 7.8 13.936C6.77733 15.1493 5.80667 16.2933 4.888 17.368C3.98667 18.4427 3.18067 19.396 2.47 20.228C1.75933 21.0427 1.20467 21.6753 0.806 22.126Z" fill="#47423E"/>
<path d="M14.6374 21.606C13.9961 21.606 13.4587 21.45 13.0254 21.138C12.6094 20.8087 12.2974 20.384 12.0894 19.864C11.8814 19.344 11.7774 18.7893 11.7774 18.2C11.7774 17.5413 11.9074 16.7873 12.1674 15.938C12.4274 15.0887 12.7827 14.2133 13.2334 13.312C13.7014 12.4107 14.2387 11.5353 14.8454 10.686C15.4521 9.83667 16.1021 9.074 16.7954 8.398C17.5061 7.70467 18.2341 7.15867 18.9794 6.76C19.7247 6.36133 20.4614 6.162 21.1894 6.162C22.1081 6.162 22.7407 6.448 23.0874 7.02C23.4514 7.57467 23.6334 8.25933 23.6334 9.074C23.6334 9.76733 23.5207 10.556 23.2954 11.44C23.0701 12.3067 22.7494 13.2167 22.3334 14.17C21.9347 15.106 21.4581 16.016 20.9034 16.9C20.3487 17.784 19.7334 18.5813 19.0574 19.292C18.3987 20.0027 17.6967 20.566 16.9514 20.982C16.2061 21.398 15.4347 21.606 14.6374 21.606ZM14.9494 21.086C15.5387 21.086 16.1367 20.8607 16.7434 20.41C17.3501 19.942 17.9394 19.3267 18.5114 18.564C19.0834 17.784 19.6121 16.9347 20.0974 16.016C20.6001 15.08 21.0421 14.144 21.4234 13.208C21.8047 12.2547 22.0994 11.3793 22.3074 10.582C22.5154 9.76733 22.6194 9.1 22.6194 8.58C22.6194 8.07733 22.5241 7.63533 22.3334 7.254C22.1427 6.85533 21.7701 6.656 21.2154 6.656C20.6434 6.656 20.0541 6.89 19.4474 7.358C18.8407 7.826 18.2427 8.45 17.6534 9.23C17.0814 9.99267 16.5354 10.842 16.0154 11.778C15.4954 12.714 15.0361 13.65 14.6374 14.586C14.2387 15.522 13.9267 16.3887 13.7014 17.186C13.4761 17.966 13.3634 18.5987 13.3634 19.084C13.3634 19.6213 13.4761 20.0893 13.7014 20.488C13.9267 20.8867 14.3427 21.086 14.9494 21.086Z" fill="#47423E"/>
<path d="M23.5158 21.606C23.1171 21.606 22.7011 21.5627 22.2678 21.476C21.8344 21.3893 21.4531 21.2247 21.1238 20.982V20.826L21.2798 20.67L21.4358 20.618C21.6784 20.7393 21.9731 20.8347 22.3198 20.904C22.6491 20.9733 22.9524 21.008 23.2298 21.008C23.9058 21.008 24.6078 20.826 25.3358 20.462C26.0638 20.098 26.7398 19.6213 27.3638 19.032C27.9878 18.4253 28.4904 17.7667 28.8718 17.056C29.2704 16.3453 29.4698 15.6433 29.4698 14.95C29.4698 14.3953 29.2878 13.988 28.9238 13.728C28.5771 13.468 28.1611 13.338 27.6758 13.338C27.3811 13.338 27.0691 13.3813 26.7398 13.468C26.4278 13.5373 26.1244 13.6153 25.8298 13.702L25.6478 13.624L25.6218 13.39L25.7258 13.234C26.1938 13.0433 26.7658 12.7833 27.4418 12.454C28.1178 12.1247 28.7851 11.7347 29.4438 11.284C30.1024 10.8333 30.6484 10.3307 31.0818 9.776C31.5151 9.22133 31.7318 8.62333 31.7318 7.982C31.7318 7.358 31.4024 7.046 30.7438 7.046C30.2931 7.046 29.8338 7.176 29.3658 7.436C28.9151 7.696 28.4904 8.008 28.0918 8.372C27.7104 8.71867 27.3811 9.05667 27.1038 9.386H26.9738L26.7918 9.204V9.074C27.1904 8.58867 27.6324 8.12933 28.1178 7.696C28.6031 7.26267 29.1318 6.90733 29.7038 6.63C30.2931 6.35267 30.9171 6.214 31.5758 6.214C32.0958 6.214 32.5551 6.33533 32.9538 6.578C33.3524 6.82067 33.5518 7.228 33.5518 7.8C33.5518 8.45867 33.3438 9.05667 32.9278 9.594C32.5291 10.114 32.0178 10.582 31.3938 10.998C30.7871 11.3967 30.1544 11.7433 29.4958 12.038C28.8371 12.3327 28.2478 12.5753 27.7278 12.766C28.2478 12.766 28.7851 12.8353 29.3398 12.974C29.8944 13.1127 30.3624 13.3553 30.7438 13.702C31.1251 14.0487 31.3158 14.534 31.3158 15.158C31.3158 15.9553 31.0644 16.7353 30.5618 17.498C30.0764 18.2607 29.4351 18.954 28.6378 19.578C27.8404 20.202 26.9911 20.696 26.0898 21.06C25.1884 21.424 24.3304 21.606 23.5158 21.606Z" fill="#47423E"/>
</svg>
