<svg width="35" height="23" viewBox="0 0 35 23" fill="none" xmlns="http://www.w3.org/2000/svg">
<path d="M0.806 22.126C0.684667 22.2473 0.572 22.3167 0.468 22.334C0.364 22.3513 0.286 22.36 0.234 22.36C0.078 22.36 0 22.282 0 22.126C0 22.0047 0.0693333 21.866 0.208 21.71C0.346667 21.554 0.459333 21.424 0.546 21.32C0.996667 20.8 1.638 20.0373 2.47 19.032C3.31933 18.0267 4.316 16.8393 5.46 15.47C6.604 14.1007 7.84333 12.6013 9.178 10.972C10.5127 9.34267 11.8993 7.63533 13.338 5.85C14.794 4.06467 16.25 2.25333 17.706 0.416001C17.8273 0.260001 17.966 0.156001 18.122 0.104C18.278 0.0346667 18.434 0 18.59 0C18.746 0 18.8847 0.0346667 19.006 0.104C19.1273 0.173334 19.188 0.268667 19.188 0.390001C19.188 0.459335 19.136 0.563334 19.032 0.702C18.4253 1.41267 17.6887 2.27933 16.822 3.302C15.9727 4.30733 15.0453 5.39933 14.04 6.578C13.0347 7.75667 12.0033 8.97867 10.946 10.244C9.88867 11.492 8.84 12.7227 7.8 13.936C6.77733 15.1493 5.80667 16.2933 4.888 17.368C3.98667 18.4427 3.18067 19.396 2.47 20.228C1.75933 21.0427 1.20467 21.6753 0.806 22.126Z" fill="#47423E"/>
<path d="M14.6374 21.606C13.9961 21.606 13.4587 21.45 13.0254 21.138C12.6094 20.8087 12.2974 20.384 12.0894 19.864C11.8814 19.344 11.7774 18.7893 11.7774 18.2C11.7774 17.5413 11.9074 16.7873 12.1674 15.938C12.4274 15.0887 12.7827 14.2133 13.2334 13.312C13.7014 12.4107 14.2387 11.5353 14.8454 10.686C15.4521 9.83667 16.1021 9.074 16.7954 8.398C17.5061 7.70467 18.2341 7.15867 18.9794 6.76C19.7247 6.36133 20.4614 6.162 21.1894 6.162C22.1081 6.162 22.7407 6.448 23.0874 7.02C23.4514 7.57467 23.6334 8.25933 23.6334 9.074C23.6334 9.76733 23.5207 10.556 23.2954 11.44C23.0701 12.3067 22.7494 13.2167 22.3334 14.17C21.9347 15.106 21.4581 16.016 20.9034 16.9C20.3487 17.784 19.7334 18.5813 19.0574 19.292C18.3987 20.0027 17.6967 20.566 16.9514 20.982C16.2061 21.398 15.4347 21.606 14.6374 21.606ZM14.9494 21.086C15.5387 21.086 16.1367 20.8607 16.7434 20.41C17.3501 19.942 17.9394 19.3267 18.5114 18.564C19.0834 17.784 19.6121 16.9347 20.0974 16.016C20.6001 15.08 21.0421 14.144 21.4234 13.208C21.8047 12.2547 22.0994 11.3793 22.3074 10.582C22.5154 9.76733 22.6194 9.1 22.6194 8.58C22.6194 8.07733 22.5241 7.63533 22.3334 7.254C22.1427 6.85533 21.7701 6.656 21.2154 6.656C20.6434 6.656 20.0541 6.89 19.4474 7.358C18.8407 7.826 18.2427 8.45 17.6534 9.23C17.0814 9.99267 16.5354 10.842 16.0154 11.778C15.4954 12.714 15.0361 13.65 14.6374 14.586C14.2387 15.522 13.9267 16.3887 13.7014 17.186C13.4761 17.966 13.3634 18.5987 13.3634 19.084C13.3634 19.6213 13.4761 20.0893 13.7014 20.488C13.9267 20.8867 14.3427 21.086 14.9494 21.086Z" fill="#47423E"/>
<path d="M27.2476 21.502L27.1436 21.476V21.372C27.1436 21.3373 27.2216 21.164 27.3776 20.852C27.5509 20.5227 27.7503 20.1327 27.9756 19.682C28.2183 19.214 28.4696 18.746 28.7296 18.278C28.9896 17.7927 29.2063 17.3767 29.3796 17.03C29.5703 16.6833 29.6916 16.4667 29.7436 16.38L23.3736 16.562V16.354C23.3909 16.2847 23.4083 16.2413 23.4256 16.224C23.4429 16.2067 23.4603 16.1893 23.4776 16.172C24.0843 15.4093 24.7689 14.6553 25.5316 13.91C26.2943 13.1473 26.9703 12.4453 27.5596 11.804C28.1489 11.1453 28.7296 10.478 29.3016 9.802C29.8909 9.126 30.4889 8.38933 31.0956 7.592C31.3903 7.19333 31.6676 6.92467 31.9276 6.786C32.1876 6.64733 32.4736 6.56067 32.7856 6.526C33.0976 6.474 33.4876 6.40467 33.9556 6.318L34.1116 6.422L34.1376 6.604C34.1549 6.72533 34.0076 6.968 33.6956 7.332C33.3836 7.696 32.9589 8.14667 32.4216 8.684C31.8843 9.204 31.2863 9.776 30.6276 10.4C29.9689 11.0067 29.2929 11.6133 28.5996 12.22C27.9236 12.8267 27.2909 13.3987 26.7016 13.936C26.1123 14.456 25.6096 14.898 25.1936 15.262C24.7776 15.626 24.5089 15.86 24.3876 15.964L30.0556 15.86L31.7456 12.558C31.8843 12.3153 32.1096 12.1767 32.4216 12.142C32.7336 12.1073 33.0023 12.0813 33.2276 12.064L33.4096 12.116V12.298C33.4096 12.3153 33.3316 12.4887 33.1756 12.818C33.0196 13.1473 32.8289 13.5287 32.6036 13.962C32.3956 14.378 32.1963 14.7593 32.0056 15.106C31.8323 15.4527 31.7196 15.6693 31.6676 15.756H32.4216C32.5256 15.756 32.5776 15.7907 32.5776 15.86C32.5776 15.9293 32.5429 16.0333 32.4736 16.172C32.4389 16.2413 32.3783 16.276 32.2916 16.276L31.3816 16.302C31.2776 16.4927 31.1043 16.8307 30.8616 17.316C30.6363 17.8013 30.3849 18.3213 30.1076 18.876C29.8476 19.4133 29.6049 19.8987 29.3796 20.332C29.1543 20.748 28.9983 20.9993 28.9116 21.086C28.8769 21.1207 28.7383 21.1727 28.4956 21.242C28.2529 21.3113 28.0016 21.372 27.7416 21.424C27.4989 21.476 27.3343 21.502 27.2476 21.502Z" fill="#47423E"/>
</svg>
