<svg width="15" height="15" viewBox="0 0 15 15" fill="none" xmlns="http://www.w3.org/2000/svg">
<path d="M8.19352 11.9628C8.12769 11.8969 8.09071 11.8075 8.09071 11.7144C8.09071 11.6212 8.12769 11.5319 8.19352 11.4659L11.8117 7.84719L2.34821 7.84719C2.25497 7.84719 2.16555 7.81015 2.09962 7.74422C2.03369 7.67829 1.99665 7.58886 1.99665 7.49563C1.99665 7.40238 2.03369 7.31296 2.09962 7.24703C2.16555 7.1811 2.25497 7.14406 2.34821 7.14406L11.8117 7.14406L8.19352 3.52531C8.13142 3.45867 8.09761 3.37052 8.09922 3.27944C8.10083 3.18836 8.13772 3.10146 8.20214 3.03705C8.26655 2.97264 8.35345 2.93574 8.44453 2.93414C8.53561 2.93253 8.62375 2.96634 8.6904 3.02844L12.9091 7.24719C12.975 7.31311 13.012 7.40246 13.012 7.49563C13.012 7.58879 12.975 7.67814 12.9091 7.74406L8.6904 11.9628C8.62448 12.0287 8.53512 12.0656 8.44196 12.0656C8.34879 12.0656 8.25944 12.0287 8.19352 11.9628Z" fill="#47423E"/>
</svg>
