<svg width="24" height="24" viewBox="0 0 24 24" fill="none" xmlns="http://www.w3.org/2000/svg">
<path d="M24 16.5C24 18.9852 22.7351 21 20.25 21H3.75C1.26488 21 0 18.9852 0 16.5V7.5C0 5.01477 1.26488 3 3.75 3H20.25C22.7351 3 24 5.01477 24 7.5V16.5Z" fill="#E6E7E8"/>
<path d="M12.9469 10.7422C13.3604 10.5605 13.7853 10.5512 14.2215 10.7145C14.6795 10.8862 14.9935 11.159 15.1635 11.5327C15.334 11.9072 15.3546 12.3702 15.2254 12.9217C15.5281 11.9552 15.493 11.0626 15.12 10.2438C14.748 9.42633 14.115 8.84883 13.2206 8.5147C12.3488 8.18695 11.4799 8.21733 10.6148 8.60133C9.74925 8.98633 9.15538 9.6087 8.83313 10.4685C8.65913 10.9353 8.66513 11.385 8.85488 11.8173C9.04388 12.2498 9.364 12.5506 9.81525 12.7196C10.2518 12.8823 10.6773 12.8742 11.0918 12.6952C11.5069 12.5152 11.8076 12.2092 11.9951 11.7738L12.0413 11.6647C12.2315 11.2315 12.5334 10.924 12.9469 10.7422Z" fill="#EC1C24"/>
<path d="M11.1116 12.6483C10.6973 12.8303 10.2727 12.8398 9.8377 12.6768C9.3792 12.5051 9.06495 12.2321 8.89495 11.8578C8.7252 11.4838 8.70433 11.0212 8.83233 10.47C8.53058 11.4357 8.56595 12.3278 8.93845 13.1463C9.31095 13.9651 9.94395 14.5417 10.8375 14.8762C11.7097 15.2028 12.5786 15.1728 13.4445 14.79C14.3088 14.4048 14.9032 13.7823 15.2246 12.9228C15.4006 12.4558 15.3938 12.0063 15.2043 11.5743C15.0148 11.1418 14.6942 10.841 14.2425 10.6717C13.8072 10.5085 13.3822 10.5166 12.9675 10.6961C12.5527 10.8758 12.2516 11.1827 12.0641 11.6167L12.0176 11.7262C11.8278 12.1582 11.5248 12.4665 11.1116 12.6483Z" fill="#1B75BB"/>
<path d="M9.01499 5.794C9.03881 5.8185 9.05214 5.85133 9.05214 5.8855C9.05214 5.91968 9.03881 5.9525 9.01499 5.977L6.72824 8.263C6.7163 8.275 6.70211 8.28452 6.68649 8.29103C6.67087 8.29753 6.65412 8.3009 6.63719 8.30094C6.62027 8.30097 6.6035 8.29767 6.58786 8.29123C6.57221 8.28478 6.55798 8.27532 6.54599 8.26338C6.534 8.25144 6.52448 8.23725 6.51797 8.22163C6.51146 8.20601 6.50809 8.18926 6.50806 8.17233C6.50802 8.15541 6.51132 8.13864 6.51777 8.12299C6.52421 8.10735 6.53367 8.09312 6.54561 8.08113L8.83199 5.79438C8.84395 5.78229 8.85819 5.77269 8.87388 5.76612C8.88957 5.75956 8.9064 5.75616 8.92341 5.75612C8.94042 5.75609 8.95727 5.75942 8.97298 5.76592C8.9887 5.77242 9.00298 5.78196 9.01499 5.794ZM9.42749 6.20613C9.43954 6.21809 9.44911 6.23231 9.45564 6.24798C9.46216 6.26365 9.46553 6.28046 9.46553 6.29744C9.46553 6.31442 9.46216 6.33123 9.45564 6.3469C9.44911 6.36257 9.43954 6.3768 9.42749 6.38875L7.14224 8.67513C7.11793 8.69931 7.08503 8.71289 7.05074 8.71289C7.01645 8.71289 6.98355 8.69931 6.95924 8.67513C6.94699 8.66324 6.93726 8.64902 6.93061 8.6333C6.92396 8.61759 6.92053 8.60069 6.92053 8.58363C6.92053 8.56656 6.92396 8.54967 6.93061 8.53395C6.93726 8.51824 6.94699 8.50401 6.95924 8.49213L9.24561 6.20613C9.26974 6.18202 9.30244 6.16847 9.33655 6.16847C9.37066 6.16847 9.40337 6.18202 9.42749 6.20613ZM9.85499 6.634C9.86724 6.64589 9.87697 6.66011 9.88362 6.67583C9.89027 6.69155 9.8937 6.70844 9.8937 6.7255C9.8937 6.74257 9.89027 6.75946 9.88362 6.77518C9.87697 6.7909 9.86724 6.80512 9.85499 6.817L7.56824 9.10375C7.55637 9.11583 7.54222 9.12542 7.52661 9.13197C7.51099 9.13851 7.49423 9.14189 7.4773 9.14189C7.46037 9.14189 7.44361 9.13851 7.428 9.13197C7.41238 9.12542 7.39823 9.11583 7.38636 9.10375C7.36207 9.07943 7.34842 9.04645 7.34842 9.01207C7.34842 8.97768 7.36207 8.94471 7.38636 8.92038L9.67236 6.634C9.68432 6.62195 9.69855 6.61239 9.71422 6.60586C9.72989 6.59933 9.7467 6.59597 9.76368 6.59597C9.78065 6.59597 9.79746 6.59933 9.81314 6.60586C9.82881 6.61239 9.84303 6.62195 9.85499 6.634ZM16.1287 6.99213C16.1827 6.94975 16.2337 6.90363 16.2855 6.85788L15.222 5.794C15.1977 5.76974 15.1648 5.7561 15.1305 5.7561C15.0962 5.7561 15.0633 5.76974 15.039 5.794C15.0147 5.81827 15.0011 5.85118 15.0011 5.8855C15.0011 5.91982 15.0147 5.95274 15.039 5.977L16.0946 7.03225C16.1035 7.01697 16.1151 7.00339 16.1287 6.99213ZM17.5087 8.08075L16.4764 7.048C16.4122 7.10538 16.347 7.16275 16.2791 7.216L17.3257 8.26263C17.3504 8.28396 17.3822 8.29517 17.4148 8.29404C17.4474 8.2929 17.4784 8.2795 17.5015 8.25651C17.5247 8.23351 17.5383 8.20263 17.5396 8.17004C17.5409 8.13745 17.5299 8.10556 17.5087 8.08075ZM17.0966 8.67363C17.0724 8.69779 17.0395 8.71135 17.0053 8.71135C16.9711 8.71135 16.9382 8.69779 16.914 8.67363L14.6272 6.38725C14.6144 6.37543 14.6042 6.36113 14.597 6.34523C14.5899 6.32933 14.586 6.31215 14.5857 6.29472C14.5853 6.27729 14.5885 6.25997 14.595 6.2438C14.6016 6.22764 14.6113 6.21296 14.6236 6.20064C14.636 6.18833 14.6507 6.17864 14.6669 6.17214C14.683 6.16565 14.7004 6.1625 14.7178 6.16287C14.7352 6.16325 14.7524 6.16714 14.7683 6.17431C14.7842 6.18149 14.7984 6.1918 14.8102 6.20463L17.0966 8.49063C17.1086 8.50264 17.1182 8.51691 17.1247 8.53261C17.1312 8.54831 17.1345 8.56514 17.1345 8.58213C17.1345 8.59912 17.1312 8.61595 17.1247 8.63165C17.1182 8.64735 17.1086 8.66161 17.0966 8.67363ZM15.2404 7.84638C15.3071 7.79463 15.363 7.73238 15.4147 7.66525L14.3831 6.634C14.3713 6.6212 14.357 6.61092 14.3411 6.60377C14.3252 6.59663 14.308 6.59277 14.2906 6.59244C14.2731 6.5921 14.2558 6.59529 14.2397 6.60181C14.2235 6.60834 14.2088 6.61806 14.1965 6.6304C14.1842 6.64274 14.1745 6.65744 14.168 6.67362C14.1615 6.6898 14.1584 6.70712 14.1587 6.72455C14.1591 6.74198 14.163 6.75915 14.1702 6.77504C14.1773 6.79093 14.1877 6.8052 14.2005 6.817L15.2366 7.85238C15.2366 7.85163 15.2379 7.84963 15.2404 7.84638ZM16.6687 8.92038L15.606 7.85763C15.551 7.92513 15.4906 7.98638 15.4249 8.04138L16.4861 9.10338C16.498 9.11557 16.5122 9.12526 16.5279 9.13187C16.5436 9.13849 16.5604 9.14189 16.5774 9.14189C16.5944 9.14189 16.6113 9.13849 16.627 9.13187C16.6427 9.12526 16.6569 9.11557 16.6687 9.10338C16.6808 9.09136 16.6903 9.0771 16.6968 9.0614C16.7033 9.0457 16.7067 9.02887 16.7067 9.01188C16.7067 8.99488 16.7033 8.97806 16.6968 8.96236C16.6903 8.94666 16.6808 8.93239 16.6687 8.92038ZM16.1092 16.3791L15.0832 17.4059C15.0591 17.4301 15.0455 17.463 15.0455 17.4972C15.0455 17.5314 15.0591 17.5643 15.0832 17.5885C15.0952 17.6006 15.1094 17.6101 15.1251 17.6167C15.1408 17.6232 15.1576 17.6265 15.1746 17.6265C15.1915 17.6265 15.2083 17.6232 15.224 17.6167C15.2397 17.6101 15.2539 17.6006 15.2659 17.5885L16.2847 16.5689C16.2267 16.5051 16.1682 16.4419 16.1092 16.3791ZM17.5526 15.1199C17.5281 15.0958 17.495 15.0824 17.4607 15.0827C17.4263 15.0829 17.3935 15.0966 17.3692 15.121L16.3009 16.1886L16.4767 16.3784L17.5526 15.3033C17.5765 15.2787 17.5899 15.2458 17.5899 15.2116C17.5899 15.1773 17.5765 15.1444 17.5526 15.1199ZM15.7084 15.9573L14.6707 16.9938C14.6469 17.0183 14.6336 17.0511 14.6336 17.0853C14.6336 17.1194 14.6469 17.1523 14.6707 17.1768C14.6951 17.2011 14.7282 17.2147 14.7626 17.2147C14.7971 17.2147 14.8301 17.2011 14.8545 17.1768L15.8865 16.144C15.8265 16.081 15.7684 16.018 15.7084 15.9573ZM17.1397 14.7074C17.1279 14.6954 17.1137 14.6858 17.0982 14.6793C17.0826 14.6728 17.0659 14.6694 17.049 14.6694C17.0321 14.6694 17.0154 14.6728 16.9998 14.6793C16.9842 14.6858 16.9701 14.6954 16.9582 14.7074L15.9 15.7649C15.9607 15.8264 16.0185 15.889 16.0789 15.9516L17.1401 14.89C17.1523 14.8781 17.1619 14.8639 17.1685 14.8482C17.1751 14.8325 17.1785 14.8156 17.1784 14.7986C17.1784 14.7816 17.175 14.7648 17.1683 14.7491C17.1617 14.7334 17.152 14.7192 17.1397 14.7074ZM15.2625 15.547L14.2425 16.5659C14.2187 16.5904 14.2053 16.6232 14.2053 16.6574C14.2053 16.6916 14.2187 16.7244 14.2425 16.7489C14.2669 16.7732 14.2999 16.7869 14.3344 16.7869C14.3688 16.7869 14.4018 16.7732 14.4262 16.7489L15.453 15.7206C15.39 15.6629 15.3292 15.6014 15.2625 15.547ZM15.6465 15.5286L16.7119 14.4618C16.7241 14.4499 16.7338 14.4356 16.7405 14.4199C16.7471 14.4042 16.7506 14.3873 16.7506 14.3703C16.7506 14.3532 16.7471 14.3363 16.7405 14.3206C16.7338 14.3049 16.7241 14.2906 16.7119 14.2788C16.7 14.2667 16.6858 14.2571 16.6702 14.2505C16.6546 14.244 16.6379 14.2406 16.6209 14.2406C16.604 14.2406 16.5872 14.244 16.5716 14.2505C16.556 14.2571 16.5419 14.2667 16.53 14.2788L15.4549 15.3539C15.522 15.4098 15.5827 15.4701 15.6465 15.5286ZM7.96799 16.3904C7.91399 16.4324 7.86336 16.4789 7.81086 16.5246L8.87511 17.5885C8.88699 17.6006 8.90116 17.6103 8.91681 17.6169C8.93246 17.6234 8.94926 17.6268 8.96624 17.6268C8.98321 17.6268 9.00002 17.6234 9.01567 17.6169C9.03132 17.6103 9.04549 17.6006 9.05736 17.5885C9.06955 17.5766 9.07924 17.5624 9.08586 17.5467C9.09247 17.5311 9.09588 17.5142 9.09588 17.4972C9.09588 17.4802 9.09247 17.4633 9.08586 17.4476C9.07924 17.432 9.06955 17.4178 9.05736 17.4059L8.00249 16.3499C7.99349 16.3653 7.98181 16.379 7.96799 16.3904ZM6.58911 15.3018L7.62111 16.3345C7.68561 16.2775 7.74974 16.2198 7.81799 16.1669L6.77136 15.1199C6.74677 15.0982 6.71484 15.0867 6.68207 15.0877C6.64929 15.0887 6.61813 15.1022 6.59492 15.1253C6.57172 15.1485 6.5582 15.1796 6.55712 15.2124C6.55604 15.2452 6.56748 15.2771 6.58911 15.3018ZM9.46874 16.9949L8.42661 15.9528C8.36924 16.0056 8.31261 16.06 8.25261 16.1095C8.24474 16.1163 8.23686 16.1189 8.22974 16.123L9.28536 17.1779C9.29738 17.1899 9.31165 17.1995 9.32736 17.206C9.34307 17.2125 9.35991 17.2159 9.37692 17.2159C9.39393 17.2159 9.41078 17.2126 9.4265 17.2061C9.44222 17.1996 9.45651 17.1901 9.46855 17.1781C9.48059 17.166 9.49015 17.1518 9.49667 17.1361C9.5032 17.1204 9.50657 17.1035 9.50659 17.0865C9.5066 17.0695 9.50327 17.0527 9.49678 17.0369C9.49028 17.0212 9.48076 17.0069 9.46874 16.9949ZM8.05536 15.9235C8.11761 15.8706 8.17611 15.8151 8.23611 15.7596L7.18311 14.7074C7.17131 14.6945 7.15704 14.6842 7.14115 14.6771C7.12526 14.6699 7.10809 14.666 7.09066 14.6656C7.07323 14.6653 7.05591 14.6684 7.03973 14.6749C7.02355 14.6814 7.00885 14.6911 6.99651 14.7034C6.98417 14.7157 6.97445 14.7304 6.96792 14.7466C6.9614 14.7627 6.95821 14.78 6.95855 14.7975C6.95888 14.8149 6.96274 14.8321 6.96988 14.848C6.97703 14.8639 6.98731 14.8782 7.00011 14.89L8.04561 15.9355C8.05011 15.9314 8.05124 15.928 8.05536 15.9235ZM7.42949 14.2799C7.44136 14.2677 7.45554 14.2581 7.47119 14.2515C7.48683 14.2449 7.50364 14.2416 7.52061 14.2416C7.53759 14.2416 7.55439 14.2449 7.57004 14.2515C7.58569 14.2581 7.59987 14.2677 7.61174 14.2799L9.89849 16.5659C9.92267 16.5902 9.93625 16.6231 9.93625 16.6574C9.93625 16.6917 9.92267 16.7246 9.89849 16.7489C9.88653 16.761 9.87228 16.7706 9.85657 16.7772C9.84086 16.7837 9.82401 16.7871 9.80699 16.7871C9.78997 16.7871 9.77311 16.7837 9.75741 16.7772C9.7417 16.7706 9.72745 16.761 9.71549 16.7489L7.42949 14.4621C7.41736 14.4503 7.40772 14.4361 7.40114 14.4204C7.39456 14.4048 7.39117 14.388 7.39117 14.371C7.39117 14.354 7.39456 14.3372 7.40114 14.3216C7.40772 14.3059 7.41736 14.2918 7.42949 14.2799Z" fill="#231F20"/>
<path d="M6.58351 15.1163C6.59553 15.1043 6.60979 15.0947 6.62549 15.0882C6.64119 15.0817 6.65802 15.0784 6.67501 15.0784C6.69201 15.0784 6.70883 15.0817 6.72453 15.0882C6.74023 15.0947 6.7545 15.1043 6.76651 15.1163L9.05214 17.4023C9.06415 17.4143 9.07368 17.4286 9.08019 17.4443C9.08669 17.46 9.09004 17.4768 9.09004 17.4938C9.09004 17.5108 9.08669 17.5276 9.08019 17.5433C9.07369 17.559 9.06415 17.5733 9.05214 17.5853C9.04012 17.5973 9.02586 17.6068 9.01016 17.6133C8.99446 17.6198 8.97763 17.6232 8.96064 17.6232C8.94365 17.6232 8.92682 17.6198 8.91112 17.6133C8.89542 17.6068 8.88115 17.5973 8.86914 17.5853L6.58351 15.2993C6.5714 15.2873 6.56179 15.2731 6.55523 15.2574C6.54867 15.2416 6.54529 15.2248 6.54529 15.2078C6.54529 15.1908 6.54867 15.1739 6.55523 15.1582C6.56179 15.1425 6.5714 15.1282 6.58351 15.1163ZM8.85751 15.5363C8.79179 15.589 8.73318 15.65 8.68314 15.7178L9.71439 16.749C9.73866 16.7733 9.77157 16.7869 9.80589 16.7869C9.84021 16.7869 9.87312 16.7733 9.89739 16.749C9.92165 16.7248 9.93529 16.6918 9.93529 16.6575C9.93529 16.6232 9.92165 16.5903 9.89739 16.566L8.86126 15.5306L8.85751 15.5363ZM7.42951 14.4623L8.49114 15.525C8.54614 15.4578 8.60676 15.3965 8.67301 15.3413L7.61176 14.28C7.59989 14.2679 7.58571 14.2583 7.57007 14.2517C7.55442 14.2451 7.53761 14.2417 7.52064 14.2417C7.50366 14.2417 7.48686 14.2451 7.47121 14.2517C7.45556 14.2583 7.44139 14.2679 7.42951 14.28C7.41738 14.2919 7.40774 14.3061 7.40116 14.3217C7.39458 14.3374 7.39119 14.3542 7.39119 14.3711C7.39119 14.3881 7.39458 14.4049 7.40116 14.4206C7.40774 14.4362 7.41738 14.4504 7.42951 14.4623Z" fill="#231F20"/>
</svg>
