<svg width="25" height="25" viewBox="0 0 25 25" fill="none" xmlns="http://www.w3.org/2000/svg">
<path fill-rule="evenodd" clip-rule="evenodd" d="M3.90625 0L21.0937 0C23.2511 0 25 1.74889 25 3.90625V21.0937C25 23.2511 23.2511 25 21.0937 25H3.90625C1.74889 25 0 23.2511 0 21.0937L0 3.90625C0 1.74889 1.74889 0 3.90625 0ZM13.0405 9.38076C11.921 9.84641 9.68349 10.8102 6.32806 12.2721C5.78319 12.4888 5.49776 12.7008 5.47178 12.908C5.42787 13.2583 5.86652 13.3962 6.46386 13.5841C6.54511 13.6096 6.6293 13.6361 6.71561 13.6641C7.3033 13.8552 8.09384 14.0787 8.50481 14.0875C8.8776 14.0956 9.29368 13.9419 9.75304 13.6265C12.8881 11.5102 14.5065 10.4405 14.6081 10.4175C14.6798 10.4012 14.7791 10.3808 14.8464 10.4406C14.9137 10.5004 14.9071 10.6137 14.8999 10.6441C14.8565 10.8293 13.1346 12.4301 12.2435 13.2586C11.9657 13.5168 11.7687 13.7 11.7284 13.7419C11.6382 13.8356 11.5462 13.9242 11.4578 14.0094C10.9118 14.5358 10.5024 14.9305 11.4805 15.575C11.9505 15.8847 12.3266 16.1409 12.7019 16.3964C13.1116 16.6755 13.5203 16.9538 14.0492 17.3004C14.1839 17.3888 14.3126 17.4805 14.4379 17.5698C14.9148 17.9098 15.3432 18.2153 15.8725 18.1666C16.1801 18.1383 16.4978 17.849 16.6591 16.9865C17.0405 14.948 17.79 10.5313 17.9632 8.7113C17.9784 8.55184 17.9593 8.34777 17.9439 8.25818C17.9286 8.1686 17.8966 8.04096 17.7801 7.94647C17.6422 7.83457 17.4293 7.81098 17.3341 7.81257C16.9012 7.82028 16.237 8.05123 13.0405 9.38076Z" fill="#FFFDF2"/>
</svg>
