<svg width="25" height="25" viewBox="0 0 25 25" fill="none" xmlns="http://www.w3.org/2000/svg">
<path d="M25 20C25 22.7614 22.7614 25 20 25H5C2.23858 25 0 22.7614 0 20L0 5C0 2.23858 2.23858 0 5 0L20 0C22.7614 0 25 2.23858 25 5V20ZM15.7774 6.14258C15.7728 6.14258 15.7682 6.14214 15.7637 6.14128C13.6181 5.73104 11.4141 5.73104 9.26848 6.14128C9.26398 6.14214 9.25941 6.14258 9.25484 6.14258C9.24967 6.14258 9.24458 6.14311 9.23954 6.14422C7.90545 6.43736 6.46021 7.82876 6.13285 9.12778C6.13151 9.13311 6.13086 9.13852 6.13086 9.14401C6.13086 9.1489 6.13033 9.15378 6.12928 9.15855C5.73327 10.9613 5.73332 12.8287 6.12928 14.6315C6.13033 14.6363 6.13086 14.6411 6.13086 14.646C6.13086 14.6515 6.13152 14.657 6.13286 14.6623C6.36663 15.5893 7.16855 16.5628 8.09277 17.1514C8.63075 17.5019 9.07129 18.0445 9.07129 18.6865V19.0586C9.07178 19.1748 9.10667 19.2885 9.17188 19.3848C9.23709 19.481 9.32972 19.5561 9.4375 19.5996C9.54516 19.643 9.66377 19.6528 9.77734 19.6289C9.8909 19.6049 9.99523 19.548 10.0762 19.4648L10.8854 18.624C11.3079 18.185 11.9006 17.96 12.5098 17.96C13.5996 17.9596 14.6875 17.857 15.7579 17.6527C15.7624 17.6518 15.7669 17.6514 15.7715 17.6514C15.7767 17.6514 15.7818 17.6508 15.7869 17.6497C17.1174 17.3553 18.5642 15.9628 18.8888 14.6637C18.89 14.6587 18.8906 14.6537 18.8906 14.6485C18.8906 14.6439 18.8911 14.6393 18.8921 14.6348C19.2907 12.8315 19.2924 10.9628 18.8981 9.15856C18.897 9.15378 18.8965 9.1489 18.8965 9.14401C18.8965 9.13852 18.8958 9.13307 18.8945 9.12775C18.7448 8.52986 18.3597 7.91178 17.8545 7.3916C17.2637 6.78082 16.5114 6.30167 15.7927 6.14422C15.7877 6.14312 15.7826 6.14258 15.7774 6.14258ZM9.49023 7.31152C11.4863 6.92959 13.5371 6.92959 15.5332 7.31152C16.0167 7.41957 16.5689 7.78811 17.001 8.24023C17.3564 8.60819 17.629 9.03229 17.7295 9.41406C18.0879 11.0466 18.0879 12.7375 17.7295 14.3701C17.5135 15.2204 16.4111 16.2788 15.5332 16.4736C14.3929 16.6921 13.2319 16.7874 12.0713 16.7568C12.0601 16.7562 12.0485 16.7584 12.0381 16.7627C12.0278 16.7671 12.0191 16.7738 12.0117 16.7822L10.9346 17.8867L9.78906 19.0615C9.77087 19.0807 9.74746 19.0938 9.72168 19.0996C9.69572 19.1053 9.66826 19.1036 9.64355 19.0938C9.61881 19.0839 9.59697 19.067 9.58203 19.0449C9.56709 19.0228 9.55953 18.9964 9.55957 18.9697V16.5586C9.5596 16.5392 9.55243 16.5198 9.54004 16.5049C9.52777 16.4903 9.51093 16.4801 9.49219 16.4766C9.30907 16.4331 9.13214 16.3653 8.9668 16.2754C8.22074 15.8772 7.46825 15.0609 7.29492 14.3701C6.93595 12.7363 6.93592 11.0439 7.29492 9.41016C7.50979 8.5637 8.61866 7.50756 9.49023 7.31152ZM10.291 8.86328C10.1922 8.84039 10.0887 8.85288 9.99805 8.89844C9.74032 9.01646 9.5101 9.18724 9.32324 9.40039C9.13243 9.63015 8.94695 9.95024 9.07227 10.2578C9.21039 10.5956 9.34612 10.935 9.50684 11.2627C9.83723 11.9552 10.2596 12.6003 10.7627 13.1797C10.9664 13.4095 11.1863 13.625 11.4199 13.8242C12.2065 14.4761 13.0929 14.9967 14.0449 15.3672C14.0549 15.3715 14.0651 15.3756 14.0753 15.3796C14.2966 15.466 14.5479 15.4678 14.7666 15.375C15.1216 15.177 15.4022 14.8684 15.5654 14.4961C15.6097 14.403 15.6201 14.2972 15.5947 14.1973C15.5693 14.0973 15.5101 14.0089 15.4268 13.9482C15.2482 13.796 15.061 13.6537 14.8672 13.5215C14.6713 13.3834 14.4759 13.2408 14.2725 13.1152C14.1786 13.0518 14.0663 13.0212 13.9531 13.0264C13.8402 13.0316 13.7321 13.073 13.6445 13.1445C13.4536 13.3003 13.3627 13.6031 13.0889 13.6357C12.9321 13.6382 12.7774 13.6002 12.6396 13.5254C12.4285 13.4392 12.2272 13.3289 12.041 13.1973C11.491 12.8067 11.1232 12.2498 10.8809 11.583C10.8589 11.5268 10.8503 11.4664 10.8555 11.4062C10.8607 11.3459 10.8796 11.2871 10.9111 11.2354C10.9476 11.1801 10.9937 11.1312 11.0469 11.0918C11.1008 11.0429 11.1639 10.9931 11.2266 10.9492C11.3445 10.8679 11.4268 10.7438 11.4561 10.6035C11.4852 10.4633 11.4585 10.317 11.3828 10.1953C11.1426 9.7768 10.8599 9.3839 10.5391 9.02344C10.4777 8.94266 10.3898 8.88621 10.291 8.86328ZM12.4229 8.4668C12.3948 8.46693 12.3673 8.4737 12.3418 8.48535C12.3163 8.49702 12.2938 8.51402 12.2754 8.53516C12.257 8.55629 12.2424 8.58059 12.2344 8.60742C12.2263 8.63425 12.2248 8.66267 12.2285 8.69043C12.2536 8.8334 12.405 8.84099 12.5205 8.85352C12.7026 8.87235 12.8876 8.88046 13.0684 8.91309C13.4658 8.98692 13.8436 9.14317 14.1768 9.37207C14.5099 9.60097 14.7914 9.89769 15.0029 10.2422C15.2086 10.5728 15.3432 10.9426 15.3975 11.3281C15.4289 11.5567 15.4417 11.7878 15.458 12.0176C15.4668 12.1343 15.5278 12.2411 15.6533 12.2412C15.6807 12.2403 15.7078 12.2338 15.7324 12.2217C15.757 12.2096 15.7784 12.192 15.7959 12.1709C15.8133 12.1498 15.8268 12.1251 15.834 12.0986C15.8411 12.0723 15.8422 12.0445 15.8379 12.0176C15.8165 11.7413 15.7987 11.4626 15.751 11.1914C15.6754 10.7582 15.5141 10.3446 15.2764 9.97461C14.9753 9.51564 14.5658 9.13789 14.084 8.875C13.6021 8.61213 13.0626 8.47148 12.5137 8.4668C12.4836 8.46506 12.453 8.46506 12.4229 8.4668ZM12.6445 9.33691C12.6211 9.34433 12.5994 9.35671 12.5811 9.37305C12.5628 9.38935 12.5481 9.40931 12.5381 9.43164C12.528 9.45401 12.5225 9.47842 12.5225 9.50293C12.5197 9.52699 12.5223 9.55201 12.5293 9.5752C12.5363 9.59816 12.548 9.61935 12.5635 9.6377C12.5791 9.65618 12.5984 9.67188 12.6201 9.68262C12.6417 9.69327 12.6654 9.69895 12.6895 9.7002C12.7824 9.71276 12.8758 9.72223 12.9688 9.7373C13.18 9.7709 13.3857 9.83348 13.5791 9.9248C13.8998 10.0843 14.1669 10.3347 14.3467 10.6445C14.3781 10.6985 14.4056 10.7553 14.4307 10.8105C14.5412 11.0687 14.5966 11.3472 14.5938 11.6279C14.5924 11.6805 14.5985 11.7335 14.6123 11.7842C14.6271 11.8189 14.6526 11.8481 14.6846 11.8682C14.7168 11.8882 14.7551 11.8985 14.793 11.8965C14.8306 11.8944 14.8668 11.8807 14.8965 11.8574C14.9262 11.8341 14.948 11.8018 14.959 11.7656C14.9683 11.7295 14.9739 11.6916 14.9746 11.6543C14.9746 11.637 14.9727 11.6259 14.9727 11.6172C14.9664 11.5242 14.9643 11.4484 14.958 11.373C14.9547 11.339 14.9501 11.305 14.9434 11.2715C14.9068 11.0137 14.8284 10.7632 14.7119 10.5303C14.5051 10.1316 14.1776 9.80841 13.7764 9.60645C13.4478 9.43871 13.0864 9.34437 12.7178 9.33008C12.6933 9.32724 12.668 9.3295 12.6445 9.33691ZM12.9746 10.2246C12.9276 10.2213 12.8813 10.2352 12.8438 10.2637C12.8061 10.2923 12.7799 10.3335 12.7705 10.3799C12.7621 10.4283 12.7735 10.4783 12.8018 10.5186C12.83 10.5586 12.8726 10.5861 12.9209 10.5947C13.0189 10.6186 13.1234 10.6108 13.2227 10.6396C13.3004 10.6621 13.3737 10.698 13.4395 10.7451C13.5757 10.8494 13.6716 10.9986 13.709 11.166C13.7274 11.2486 13.7395 11.3326 13.7461 11.417C13.7483 11.4389 13.7539 11.4608 13.7617 11.4814C13.7756 11.5203 13.8015 11.5535 13.8359 11.5762C13.8703 11.5988 13.9111 11.6101 13.9521 11.6074C13.9703 11.6074 13.9888 11.6067 14.006 11.6007C14.028 11.593 14.0484 11.5806 14.0654 11.5645C14.0892 11.5421 14.1062 11.5133 14.1133 11.4814C14.1211 11.432 14.1213 11.3816 14.1143 11.332C14.1097 11.274 14.1021 11.2163 14.0908 11.1592C13.9803 10.5425 13.5499 10.2661 12.9746 10.2246Z" fill="#FFFDF2"/>
</svg>
