<svg width="25" height="25" viewBox="0 0 25 25" fill="none" xmlns="http://www.w3.org/2000/svg">
<path d="M25 20C25 22.7614 22.7614 25 20 25H5C2.23858 25 0 22.7614 0 20L0 5C0 2.23858 2.23858 0 5 0L20 0C22.7614 0 25 2.23858 25 5V20ZM8.83496 6.00879C8.63989 5.97911 8.44029 6.0239 8.27637 6.13379L7.22461 6.83984C6.68098 7.20462 6.28431 7.75084 6.10547 8.38086C5.92664 9.01087 5.97724 9.68403 6.24805 10.2803L6.65723 11.1816C8.1731 14.4839 10.8661 17.1012 14.209 18.5215L14.7461 18.7607C15.3406 19.0256 16.0094 19.0718 16.6348 18.8916C17.2601 18.7114 17.8024 18.3161 18.165 17.7754L18.8662 16.7295C18.9759 16.5656 19.0207 16.3669 18.9912 16.1719C18.9616 15.9767 18.8596 15.7997 18.7061 15.6758L16.3281 13.7559C16.2454 13.6891 16.1501 13.6393 16.0479 13.6104C15.9455 13.5814 15.8379 13.5734 15.7324 13.5869C15.627 13.6004 15.5253 13.6357 15.4336 13.6895C15.3419 13.7433 15.2616 13.8149 15.1982 13.9004C14.7726 14.4753 13.9885 14.673 13.3933 14.2762C12.3378 13.5725 11.4321 12.6658 10.7293 11.6093C10.3332 11.0138 10.5304 10.2302 11.1045 9.80371C11.1899 9.74034 11.2617 9.66016 11.3154 9.56836C11.3691 9.47663 11.4035 9.37498 11.417 9.26953C11.4305 9.16395 11.4225 9.05652 11.3936 8.9541C11.3646 8.85188 11.3156 8.75657 11.249 8.67383L9.33008 6.29395C9.20628 6.14048 9.02981 6.03851 8.83496 6.00879Z" fill="#FFFDF2"/>
</svg>
