<svg width="29" height="23" viewBox="0 0 29 23" fill="none" xmlns="http://www.w3.org/2000/svg">
<path d="M2.91571 22.7592C2.79621 22.8796 2.55722 23 2.07923 23C1.72075 23 1.36226 22.7592 1.00377 22.5183L0.286789 21.7958C-0.191197 21.1937 -0.0716974 20.5916 0.645277 19.8691C4.11067 16.0157 5.90312 13.1257 6.14211 11.0785C4.82765 10.8377 3.75218 10.2356 3.0352 9.15183C2.31822 7.94765 1.95974 6.74346 2.19873 5.29843C2.55722 3.85341 3.39369 2.5288 4.58866 1.56544C5.78362 0.481672 7.21757 1.90428e-06 8.77103 1.76847e-06C10.5635 1.61177e-06 11.8779 0.722513 12.7144 2.16754C13.6704 3.61256 13.9094 5.65969 13.4314 8.3089C12.4754 13.8482 9.01002 18.6649 2.91571 22.7592ZM18.3307 22.7592C18.2112 22.8796 17.9722 23 17.4943 23C17.1358 23 16.7773 22.7592 16.4188 22.5183L15.7018 21.7958C15.3433 21.1937 15.4628 20.5916 15.9408 19.8691C19.5257 16.2565 21.3181 13.3665 21.5571 11.0785C20.2427 10.8377 19.1672 10.2356 18.4502 9.15183C17.7333 8.06806 17.3748 6.74346 17.6138 5.29843C17.8527 3.85341 18.6892 2.52879 19.8842 1.56544C21.1986 0.481671 22.6326 5.56655e-07 24.0666 4.31295e-07C25.859 2.74595e-07 27.1735 0.722511 28.1294 2.28796C29.0854 3.73298 29.2049 5.7801 28.7269 8.3089C27.7709 13.8482 24.3056 18.6649 18.3307 22.7592Z" fill="#E6E8EA"/>
</svg>
