<svg width="29" height="23" viewBox="0 0 29 23" fill="none" xmlns="http://www.w3.org/2000/svg">
<path d="M26.0843 0.240835C26.2038 0.120417 26.4428 0 26.9208 0C27.2793 0 27.6377 0.240835 27.9962 0.481676L28.7132 1.20419C29.1912 1.80628 29.0717 2.40837 28.3547 3.13089C24.8893 6.9843 23.0969 9.87435 22.8579 11.9215C24.1724 12.1623 25.2478 12.7644 25.9648 13.8482C26.6818 15.0524 27.0403 16.2565 26.8013 17.7016C26.4428 19.1466 25.6063 20.4712 24.4113 21.4346C23.2164 22.5183 21.7824 23 20.229 23C18.4365 23 17.1221 22.2775 16.2856 20.8325C15.3296 19.3874 15.0906 17.3403 15.5686 14.6911C16.5246 9.15183 19.99 4.33508 26.0843 0.240835ZM10.6693 0.240835C10.7888 0.120417 11.0278 0 11.5057 0C11.8642 0 12.2227 0.240835 12.5812 0.481676L13.2982 1.20419C13.6567 1.80628 13.5372 2.40837 13.0592 3.13089C9.4743 6.74345 7.68185 9.63351 7.44286 11.9215C8.75732 12.1623 9.83279 12.7644 10.5498 13.8482C11.2667 14.9319 11.6252 16.2565 11.3862 17.7016C11.1473 19.1466 10.3108 20.4712 9.11581 21.4346C7.80135 22.5183 6.3674 23 4.93344 23C3.141 23 1.82654 22.2775 0.870565 20.712C-0.0854058 19.267 -0.204902 17.2199 0.273083 14.6911C1.22905 9.15183 4.69445 4.33508 10.6693 0.240835Z" fill="#E6E8EA"/>
</svg>
