<svg width="23" height="21" viewBox="0 0 23 21" fill="none" xmlns="http://www.w3.org/2000/svg">
<path d="M22.7427 18.4966L21.2944 6.30906C21.2474 5.91197 21.0557 5.54614 20.7559 5.28156C20.4561 5.01698 20.0692 4.87223 19.6694 4.875H16.2538C16.2538 3.58207 15.7402 2.34209 14.826 1.42785C13.9117 0.513615 12.6718 0 11.3788 0C10.0859 0 8.84593 0.513615 7.93169 1.42785C7.01746 2.34209 6.50384 3.58207 6.50384 4.875H3.08423C2.68438 4.87223 2.29755 5.01698 1.99774 5.28156C1.69794 5.54614 1.5062 5.91197 1.45923 6.30906L0.0109497 18.4966C-0.0155909 18.724 0.0062481 18.9545 0.0750347 19.173C0.143821 19.3914 0.258002 19.5928 0.41009 19.7641C0.563278 19.936 0.750995 20.0737 0.960995 20.1682C1.17099 20.2627 1.39856 20.3119 1.62884 20.3125H21.1207C21.3524 20.313 21.5815 20.2644 21.793 20.1699C22.0045 20.0753 22.1935 19.937 22.3476 19.7641C22.499 19.5925 22.6124 19.3909 22.6805 19.1725C22.7486 18.9541 22.7698 18.7237 22.7427 18.4966ZM11.3788 1.625C12.2408 1.625 13.0674 1.96741 13.6769 2.5769C14.2864 3.1864 14.6288 4.01305 14.6288 4.875H8.12884C8.12884 4.01305 8.47125 3.1864 9.08074 2.5769C9.69024 1.96741 10.5169 1.625 11.3788 1.625ZM1.62884 18.6875L3.08423 6.5H6.50384V8.9375C6.50384 9.15299 6.58944 9.35965 6.74182 9.51202C6.89419 9.6644 7.10085 9.75 7.31634 9.75C7.53183 9.75 7.73849 9.6644 7.89086 9.51202C8.04324 9.35965 8.12884 9.15299 8.12884 8.9375V6.5H14.6288V8.9375C14.6288 9.15299 14.7144 9.35965 14.8668 9.51202C15.0192 9.6644 15.2259 9.75 15.4413 9.75C15.6568 9.75 15.8635 9.6644 16.0159 9.51202C16.1682 9.35965 16.2538 9.15299 16.2538 8.9375V6.5H19.6816L21.1207 18.6875H1.62884Z" fill="white"/>
</svg>
