<svg width="21" height="21" viewBox="0 0 21 21" fill="none" xmlns="http://www.w3.org/2000/svg">
<path d="M7 1.75L8.645 3.395M12.355 3.395L14 1.75M7.875 6.125V5.25C7.875 4.55381 8.15156 3.88613 8.64384 3.39384C9.13613 2.90156 9.80381 2.625 10.5 2.625C11.1962 2.625 11.8639 2.90156 12.3562 3.39384C12.8484 3.88613 13.125 4.55381 13.125 5.25V6.125M6.615 10.5H14.3763M6.5625 14.875H14.4375M4.375 6.125C3.94447 6.13334 3.5226 6.24747 3.14658 6.45733C2.77057 6.66719 2.45195 6.96633 2.21882 7.32837C1.9857 7.69042 1.84522 8.10426 1.80977 8.53342C1.77432 8.96257 1.84499 9.39385 2.01555 9.78925C2.18612 10.1846 2.45133 10.532 2.78782 10.8007C3.1243 11.0694 3.52173 11.2512 3.94506 11.3301C4.36839 11.409 4.80462 11.3825 5.2153 11.253C5.62598 11.1235 5.99849 10.8949 6.3 10.5875C7.9625 8.75 10.5 6.125 10.5 6.125C10.5 6.125 13.0375 8.75 14.7 10.5875C15.0015 10.8949 15.374 11.1235 15.7847 11.253C16.1954 11.3825 16.6316 11.409 17.0549 11.3301C17.4783 11.2512 17.8757 11.0694 18.2122 10.8007C18.5487 10.532 18.8139 10.1846 18.9844 9.78925C19.155 9.39385 19.2257 8.96257 19.1902 8.53342C19.1548 8.10426 19.0143 7.69042 18.7812 7.32837C18.5481 6.96633 18.2294 6.66719 17.8534 6.45733C17.4774 6.24747 17.0555 6.13334 16.625 6.125H4.375Z" stroke="#47423E" stroke-linecap="round" stroke-linejoin="round"/>
<path d="M13.5625 9.36255C14.35 10.15 14.7875 11.2 14.875 12.25C14.875 17.325 10.5 19.25 10.5 19.25C10.5 19.25 6.125 17.325 6.125 12.25C6.2125 11.2 6.65 10.15 7.4375 9.36255" stroke="#47423E" stroke-linecap="round" stroke-linejoin="round"/>
</svg>
