<svg width="25" height="25" viewBox="0 0 25 25" fill="none" xmlns="http://www.w3.org/2000/svg">
<path d="M5.20839 10.2708C7.20857 14.6256 10.7619 18.0772 15.173 19.95L15.8813 20.2656C16.6657 20.6149 17.5482 20.6761 18.3734 20.4385C19.1985 20.2009 19.9132 19.6796 20.3917 18.9667L21.3178 17.5875C21.4627 17.3712 21.5213 17.1085 21.4822 16.8511C21.4431 16.5937 21.309 16.3603 21.1063 16.1969L17.9688 13.6656C17.8595 13.5775 17.7336 13.5124 17.5985 13.4742C17.4635 13.436 17.3221 13.4255 17.1829 13.4433C17.0437 13.4611 16.9095 13.5069 16.7884 13.5778C16.6673 13.6488 16.5618 13.7435 16.4782 13.8562L15.5073 15.1656C13.0153 13.9348 10.9981 11.9173 9.76777 9.42499L11.0761 8.45416C11.1889 8.37057 11.2836 8.26507 11.3545 8.14397C11.4255 8.02287 11.4712 7.88868 11.489 7.74946C11.5068 7.61024 11.4963 7.46885 11.4581 7.3338C11.4199 7.19874 11.3548 7.0728 11.2667 6.96353L8.73547 3.82603C8.57203 3.62338 8.33863 3.48927 8.08124 3.45013C7.82385 3.411 7.56114 3.46966 7.34485 3.61457L5.95631 4.54582C5.23902 5.02684 4.71578 5.74688 4.4798 6.57766C4.24382 7.40844 4.31043 8.29602 4.66777 9.08228L5.20839 10.2708Z" fill="#47423E"/>
</svg>
