<svg width="25" height="25" viewBox="0 0 25 25" fill="none" xmlns="http://www.w3.org/2000/svg">
<path fill-rule="evenodd" clip-rule="evenodd" d="M11.7312 23.0563C11.7312 23.0563 4.16663 16.6854 4.16663 10.4167C4.16663 8.20654 5.0446 6.08692 6.6074 4.52412C8.17021 2.96132 10.2898 2.08334 12.5 2.08334C14.7101 2.08334 16.8297 2.96132 18.3925 4.52412C19.9553 6.08692 20.8333 8.20654 20.8333 10.4167C20.8333 16.6854 13.2687 23.0563 13.2687 23.0563C12.8479 23.4438 12.1552 23.4396 11.7312 23.0563ZM12.5 14.0625C12.9787 14.0625 13.4528 13.9682 13.8952 13.785C14.3375 13.6018 14.7394 13.3332 15.078 12.9947C15.4165 12.6561 15.6851 12.2542 15.8683 11.8119C16.0515 11.3695 16.1458 10.8955 16.1458 10.4167C16.1458 9.9379 16.0515 9.46381 15.8683 9.02148C15.6851 8.57914 15.4165 8.17723 15.078 7.83868C14.7394 7.50014 14.3375 7.23159 13.8952 7.04837C13.4528 6.86515 12.9787 6.77084 12.5 6.77084C11.533 6.77084 10.6057 7.15496 9.92197 7.83868C9.23824 8.52241 8.85413 9.44974 8.85413 10.4167C8.85413 11.3836 9.23824 12.3109 9.92197 12.9947C10.6057 13.6784 11.533 14.0625 12.5 14.0625Z" fill="#47423E"/>
</svg>
