<svg width="18" height="18" viewBox="0 0 18 18" fill="none" xmlns="http://www.w3.org/2000/svg">
<path d="M9.38815 12.3552L15.0826 6.37865C15.1777 6.27893 15.2307 6.14644 15.2307 6.00867C15.2307 5.87089 15.1777 5.73841 15.0826 5.63869L15.0762 5.63225C15.0301 5.58374 14.9746 5.54512 14.9131 5.51872C14.8517 5.49232 14.7854 5.47871 14.7185 5.47871C14.6516 5.47871 14.5854 5.49232 14.5239 5.51872C14.4624 5.54512 14.407 5.58374 14.3609 5.63225L8.99887 11.2602L3.639 5.63226C3.59291 5.58374 3.53744 5.54512 3.47596 5.51872C3.41447 5.49233 3.34826 5.47871 3.28135 5.47871C3.21444 5.47871 3.14823 5.49233 3.08674 5.51872C3.02526 5.54512 2.96979 5.58374 2.9237 5.63226L2.91727 5.63869C2.82221 5.73841 2.76917 5.8709 2.76917 6.00867C2.76917 6.14644 2.82221 6.27893 2.91727 6.37865L8.61173 12.3552C8.66181 12.4077 8.72204 12.4496 8.78877 12.4782C8.8555 12.5067 8.92735 12.5215 8.99994 12.5215C9.07254 12.5215 9.14438 12.5067 9.21112 12.4782C9.27785 12.4496 9.33808 12.4077 9.38815 12.3552Z" fill="#47423E"/>
</svg>
