<svg width="9" height="5" viewBox="0 0 9 5" fill="none" xmlns="http://www.w3.org/2000/svg">
<path d="M4.21963 0.118086L0.106957 4.36109C0.0383 4.43189 -2.60575e-07 4.52595 -2.66207e-07 4.62376C-2.71838e-07 4.72157 0.0383 4.81563 0.106957 4.88642L0.111604 4.89099C0.144887 4.92543 0.18495 4.95286 0.229355 4.9716C0.27376 4.99034 0.32158 5 0.369904 5C0.418228 5 0.466048 4.99034 0.510453 4.9716C0.554858 4.95286 0.594921 4.92543 0.628204 4.89099L4.50077 0.895425L8.37179 4.89099C8.40508 4.92543 8.44514 4.95286 8.48955 4.9716C8.53395 4.99034 8.58177 5 8.63009 5C8.67842 5 8.72624 4.99034 8.77064 4.9716C8.81505 4.95286 8.85511 4.92543 8.8884 4.89099L8.89304 4.88642C8.9617 4.81563 9 4.72157 9 4.62376C9 4.52595 8.9617 4.43189 8.89304 4.36109L4.78037 0.118086C4.74421 0.0807702 4.70071 0.0510629 4.65251 0.0307648C4.60432 0.0104666 4.55243 0 4.5 0C4.44757 0 4.39568 0.0104666 4.34749 0.0307648C4.29929 0.0510629 4.25579 0.0807702 4.21963 0.118086Z" fill="#47423E"/>
</svg>
