<svg width="14" height="14" viewBox="0 0 14 14" fill="none" xmlns="http://www.w3.org/2000/svg">
<path d="M6.70833 10.1363L3.31679 6.74571L3.99529 6.05571L6.22917 8.28958V0H7.1875V8.28958L9.42042 6.05667L10.0999 6.74571L6.70833 10.1363ZM1.54867 13.4167C1.10719 13.4167 0.738875 13.2691 0.443708 12.9739C0.148542 12.6788 0.000638889 12.3101 0 11.868V9.54596H0.958333V11.868C0.958333 12.0156 1.01967 12.151 1.14233 12.2743C1.265 12.3976 1.40012 12.459 1.54771 12.4583H11.869C12.0159 12.4583 12.151 12.397 12.2743 12.2743C12.3976 12.1517 12.459 12.0162 12.4583 11.868V9.54596H13.4167V11.868C13.4167 12.3095 13.2691 12.6778 12.9739 12.973C12.6788 13.2681 12.3101 13.416 11.868 13.4167H1.54867Z" fill="#47423E"/>
</svg>
