<svg width="22" height="22" viewBox="0 0 22 22" fill="none" xmlns="http://www.w3.org/2000/svg">
<path fill-rule="evenodd" clip-rule="evenodd" d="M0 3.4375C0 1.53902 1.53902 0 3.4375 0H18.5625C20.461 0 22 1.53902 22 3.4375V18.5625C22 20.461 20.461 22 18.5625 22H3.4375C1.53902 22 0 20.461 0 18.5625V3.4375ZM11 5.5C14.025 5.5 16.5 7.975 16.5 11C16.5 13.75 14.5063 16.0875 11.7563 16.5V12.5812H13.0625L13.3375 11H11.825V9.96875C11.825 9.55625 12.0312 9.14375 12.7188 9.14375H13.4062V7.76875C13.4062 7.76875 12.7875 7.63125 12.1688 7.63125C10.9313 7.63125 10.1062 8.3875 10.1062 9.7625V11H8.73125V12.5812H10.1062V16.4312C7.49375 16.0187 5.5 13.75 5.5 11C5.5 7.975 7.975 5.5 11 5.5Z" fill="#FFFDF2"/>
</svg>
