<svg width="1200" height="121" viewBox="0 0 1200 121" fill="none" xmlns="http://www.w3.org/2000/svg">
<path d="M19.1417 9.34455L24.5086 9.70396V94.7035C24.5086 101.053 25.8205 106.085 28.4442 109.799C31.068 113.512 34.7056 115.369 39.3568 115.369C39.5953 115.369 39.7146 115.729 39.7146 116.448C39.7146 117.166 39.5953 117.526 39.3568 117.526C36.0174 117.526 33.4533 117.466 31.6643 117.346L22.004 117.166L10.9126 117.346C8.8851 117.466 5.96315 117.526 2.14674 117.526C1.78895 117.526 1.61005 117.166 1.61005 116.448C1.61005 115.729 1.78895 115.369 2.14674 115.369C7.39431 115.369 11.5089 113.512 14.4905 109.799C17.5913 106.085 19.1417 101.053 19.1417 94.7035V9.34455ZM110.378 120.221C110.378 120.581 110.08 120.82 109.484 120.94C109.006 121.06 108.649 121 108.41 120.76L20.2151 19.947C16.0409 15.155 12.463 11.8604 9.48141 10.0634C6.49984 8.26634 3.45863 7.36782 0.357789 7.36782C0.119263 7.36782 0 7.00842 0 6.28961C0 5.5708 0.119263 5.21139 0.357789 5.21139L7.87136 5.39109C9.42178 5.51089 11.6878 5.57079 14.6694 5.57079L28.2654 5.39109C29.935 5.27129 31.9625 5.21139 34.3478 5.21139C35.3019 5.21139 36.0174 5.45099 36.4945 5.9302C36.9716 6.40941 37.8064 7.42772 38.999 8.98515C41.0265 11.7406 42.4577 13.5975 43.2925 14.5559L108.947 90.5703L110.378 120.221ZM110.378 120.221L105.19 114.83V28.2134C105.19 21.7441 103.878 16.6525 101.254 12.9386C98.6306 9.22475 94.993 7.36782 90.3418 7.36782C90.1032 7.36782 89.984 7.00842 89.984 6.28961C89.984 5.5708 90.1032 5.21139 90.3418 5.21139L98.0342 5.39109C101.851 5.6307 105.071 5.7505 107.695 5.7505C110.08 5.7505 113.419 5.6307 117.713 5.39109L125.763 5.21139C126.001 5.21139 126.121 5.5708 126.121 6.28961C126.121 7.00842 126.001 7.36782 125.763 7.36782C120.992 7.36782 117.236 9.28465 114.493 13.1183C111.75 16.8322 110.378 21.8639 110.378 28.2134V120.221Z" fill="#E6E8EA"/>
<path d="M161.247 71.3421H212.769L214.021 76.3738H158.564L161.247 71.3421ZM256.24 115.369C256.836 115.369 257.134 115.729 257.134 116.448C257.134 117.166 256.836 117.526 256.24 117.526C253.855 117.526 250.158 117.406 245.149 117.166C239.901 116.927 236.144 116.807 233.878 116.807C230.897 116.807 227.259 116.927 222.966 117.166C218.911 117.406 215.691 117.526 213.305 117.526C212.828 117.526 212.59 117.166 212.59 116.448C212.59 115.729 212.828 115.369 213.305 115.369C216.406 115.369 218.612 115.07 219.924 114.471C221.356 113.752 222.071 112.554 222.071 110.877C222.071 108.84 220.878 105.426 218.493 100.634L182.178 28.5728L190.943 13.1183L155.343 92.0079C153.793 95.4822 153.018 98.7168 153.018 101.712C153.018 106.025 154.509 109.379 157.49 111.775C160.591 114.171 164.706 115.369 169.834 115.369C170.43 115.369 170.728 115.729 170.728 116.448C170.728 117.166 170.43 117.526 169.834 117.526C167.687 117.526 164.586 117.406 160.531 117.166C155.999 116.927 152.064 116.807 148.724 116.807C145.504 116.807 141.628 116.927 137.096 117.166C133.041 117.406 129.761 117.526 127.257 117.526C126.78 117.526 126.541 117.166 126.541 116.448C126.541 115.729 126.78 115.369 127.257 115.369C130.596 115.369 133.399 114.71 135.665 113.393C137.931 111.955 140.197 109.499 142.463 106.025C144.729 102.431 147.412 97.1594 150.513 90.2109L189.333 4.49258C189.572 4.13317 190.109 3.95347 190.943 3.95347C191.898 3.95347 192.434 4.13317 192.553 4.49258L237.277 92.9064C241.451 101.412 244.91 107.283 247.653 110.517C250.396 113.752 253.258 115.369 256.24 115.369Z" fill="#E6E8EA"/>
<path d="M287.157 23.3614C287.157 27.6743 288.23 31.5079 290.377 34.8624C292.643 38.2168 295.386 41.152 298.606 43.6678C301.826 46.1837 306.179 49.2386 311.665 52.8327C317.628 56.6663 322.399 60.0208 325.977 62.896C329.555 65.7713 332.596 69.3055 335.1 73.4985C337.605 77.5718 338.857 82.304 338.857 87.695C338.857 93.9248 337.187 99.4955 333.848 104.407C330.509 109.2 325.858 112.973 319.894 115.729C314.05 118.364 307.491 119.682 300.216 119.682C294.968 119.682 289.363 118.963 283.4 117.526C277.556 115.968 273.62 114.291 271.593 112.494C270.996 112.015 270.519 111.596 270.162 111.236C269.923 110.757 269.804 110.038 269.804 109.08L269.267 80.5069V80.3272C269.267 79.848 269.565 79.6084 270.162 79.6084C270.758 79.4886 271.116 79.6683 271.235 80.1475C274.813 87.4554 277.914 93.3856 280.538 97.9381C283.281 102.491 286.68 106.504 290.734 109.978C294.909 113.452 299.62 115.19 304.867 115.19C309.638 115.19 313.573 113.932 316.674 111.416C319.775 108.78 321.326 104.348 321.326 98.1178C321.326 92.8465 320.133 88.2342 317.748 84.2807C315.482 80.3272 312.679 76.9728 309.34 74.2173C306 71.4619 301.409 68.1673 295.565 64.3337C289.84 60.6198 285.368 57.4451 282.148 54.8094C279.047 52.1738 276.363 48.999 274.097 45.2851C271.831 41.5713 270.698 37.1985 270.698 32.1668C270.698 25.8173 272.487 20.4861 276.065 16.1733C279.762 11.7406 284.473 8.50594 290.198 6.46931C295.922 4.31287 301.945 3.23465 308.266 3.23465C312.44 3.23465 316.674 3.65396 320.968 4.49258C325.261 5.21139 328.72 6.1099 331.344 7.18812C332.417 7.66733 333.133 8.20644 333.49 8.80545C333.848 9.28466 334.027 9.94357 334.027 10.7822V37.1985C334.027 37.5579 333.729 37.8574 333.133 38.097C332.536 38.2168 332.178 38.097 332.059 37.7376L330.628 34.3233C327.646 26.7757 324.128 20.3663 320.073 15.095C316.138 9.82376 310.592 7.18812 303.436 7.18812C298.665 7.18812 294.73 8.56584 291.629 11.3213C288.647 14.0767 287.157 18.0901 287.157 23.3614Z" fill="#E6E8EA"/>
<path d="M387.811 9.34455C373.619 9.34455 363.422 18.6292 357.22 37.1985C357.101 37.5579 356.743 37.7376 356.147 37.7376C355.551 37.6178 355.253 37.3782 355.253 37.0188C355.73 32.2267 356.266 26.0569 356.863 18.5094C357.459 10.8421 357.757 5.09159 357.757 1.25793C357.757 0.658917 358.055 0.359412 358.652 0.359412C359.367 0.359412 359.725 0.658917 359.725 1.25793C359.725 3.89357 363.124 5.21139 369.922 5.21139C380.179 5.57079 392.165 5.7505 405.88 5.7505C412.916 5.7505 420.37 5.6307 428.242 5.39109L440.406 5.21139C444.938 5.21139 448.218 4.91189 450.246 4.31287C452.392 3.71386 453.764 2.51584 454.36 0.718813C454.479 0.239604 454.837 0 455.434 0C456.149 0 456.507 0.239604 456.507 0.718813C456.149 4.31288 455.732 10.0634 455.255 17.9703C454.897 25.8772 454.718 32.2267 454.718 37.0188C454.718 37.3782 454.42 37.5579 453.824 37.5579C453.227 37.5579 452.869 37.3782 452.75 37.0188C450.961 27.7941 447.622 20.9054 442.732 16.353C437.842 11.6807 431.819 9.34455 424.664 9.34455C421.205 9.34455 418.879 10.1233 417.687 11.6807C416.613 13.1183 416.077 15.9337 416.077 20.1267V102.97C416.077 106.684 416.435 109.379 417.15 111.056C417.866 112.734 419.237 113.872 421.265 114.471C423.292 115.07 426.512 115.369 430.925 115.369C431.283 115.369 431.462 115.729 431.462 116.448C431.462 117.166 431.283 117.526 430.925 117.526C426.632 117.526 423.233 117.466 420.728 117.346L405.88 117.166L391.389 117.346C388.885 117.466 385.426 117.526 381.013 117.526C380.656 117.526 380.477 117.166 380.477 116.448C380.477 115.729 380.656 115.369 381.013 115.369C385.307 115.369 388.467 115.07 390.495 114.471C392.642 113.872 394.073 112.734 394.788 111.056C395.623 109.259 396.041 106.564 396.041 102.97V19.7673C396.041 15.6941 395.504 12.9386 394.43 11.501C393.357 10.0634 391.151 9.34455 387.811 9.34455Z" fill="#E6E8EA"/>
<path d="M525.381 119.682C514.29 119.682 504.391 117.106 495.685 111.955C487.098 106.684 480.419 99.6153 475.649 90.75C470.997 81.7648 468.672 72.001 468.672 61.4584C468.672 49.1188 471.773 38.5762 477.974 29.8307C484.176 20.9653 492.107 14.3163 501.767 9.88366C511.547 5.45099 521.505 3.23465 531.643 3.23465C542.973 3.23465 552.931 5.9302 561.518 11.3213C570.105 16.5926 576.664 23.601 581.196 32.3465C585.848 41.0921 588.173 50.3767 588.173 60.2005C588.173 71.1025 585.311 81.1059 579.586 90.2109C573.862 99.3158 566.169 106.504 556.509 111.775C546.968 117.047 536.592 119.682 525.381 119.682ZM531.285 115.19C537.964 115.19 543.927 113.273 549.174 109.439C554.541 105.486 558.715 99.7951 561.697 92.3673C564.679 84.8198 566.169 75.8347 566.169 65.4119C566.169 54.3901 564.5 44.5663 561.16 35.9406C557.821 27.1951 552.991 20.3663 546.67 15.4545C540.349 10.5426 532.955 8.08664 524.487 8.08664C513.634 8.08664 505.286 12.2198 499.442 20.4861C493.598 28.6327 490.676 40.0738 490.676 54.8094C490.676 66.4302 492.405 76.853 495.864 86.0777C499.442 95.1827 504.272 102.311 510.354 107.462C516.556 112.614 523.533 115.19 531.285 115.19Z" fill="#E6E8EA"/>
<path d="M671.572 30.0104C674.792 24.6193 676.402 20.0069 676.402 16.1733C676.402 13.298 675.508 11.1416 673.719 9.70396C672.049 8.14654 669.604 7.36782 666.384 7.36782C666.026 7.36782 665.847 7.00842 665.847 6.28961C665.847 5.5708 666.026 5.21139 666.384 5.21139L675.865 5.39109C681.351 5.6307 686.241 5.7505 690.535 5.7505C692.562 5.7505 695.007 5.6307 697.869 5.39109L704.488 5.21139C704.727 5.21139 704.846 5.5708 704.846 6.28961C704.846 7.00842 704.727 7.36782 704.488 7.36782C700.791 7.36782 696.259 9.70396 690.892 14.3762C685.526 18.9287 680.755 24.6792 676.581 31.6277L653.325 70.6233L649.568 67.5683L671.572 30.0104ZM612 25.8772C607.587 18.9287 603.89 14.1366 600.908 11.501C598.046 8.74555 595.601 7.36782 593.574 7.36782C593.216 7.36782 593.037 7.00842 593.037 6.28961C593.037 5.5708 593.216 5.21139 593.574 5.21139L599.119 5.39109C601.743 5.6307 603.592 5.7505 604.665 5.7505C608.839 5.7505 614.862 5.6307 622.734 5.39109L634.541 5.21139C634.779 5.21139 634.898 5.5708 634.898 6.28961C634.898 7.00842 634.779 7.36782 634.541 7.36782C632.513 7.36782 630.903 7.84703 629.71 8.80545C628.637 9.76387 628.1 11.0218 628.1 12.5792C628.1 14.496 628.935 16.7723 630.605 19.4079L656.366 60.2005L639.192 68.2871L612 25.8772ZM657.976 60.2005V102.97C657.976 106.684 658.274 109.379 658.87 111.056C659.467 112.734 660.6 113.872 662.269 114.471C664.058 115.07 666.861 115.369 670.677 115.369C671.035 115.369 671.214 115.729 671.214 116.448C671.214 117.166 671.035 117.526 670.677 117.526C666.742 117.526 663.641 117.466 661.375 117.346L647.958 117.166L634.72 117.346C632.334 117.466 629.114 117.526 625.059 117.526C624.821 117.526 624.701 117.166 624.701 116.448C624.701 115.729 624.821 115.369 625.059 115.369C628.876 115.369 631.678 115.07 633.467 114.471C635.256 113.872 636.449 112.734 637.045 111.056C637.761 109.259 638.118 106.564 638.118 102.97V61.8178L657.976 60.2005Z" fill="#E6E8EA"/>
<path d="M727.281 71.3421H778.802L780.055 76.3738H724.597L727.281 71.3421ZM822.274 115.369C822.87 115.369 823.168 115.729 823.168 116.448C823.168 117.166 822.87 117.526 822.274 117.526C819.888 117.526 816.191 117.406 811.182 117.166C805.935 116.927 802.178 116.807 799.912 116.807C796.93 116.807 793.293 116.927 788.999 117.166C784.944 117.406 781.724 117.526 779.339 117.526C778.862 117.526 778.623 117.166 778.623 116.448C778.623 115.729 778.862 115.369 779.339 115.369C782.44 115.369 784.646 115.07 785.958 114.471C787.389 113.752 788.105 112.554 788.105 110.877C788.105 108.84 786.912 105.426 784.527 100.634L748.211 28.5728L756.977 13.1183L721.377 92.0079C719.827 95.4822 719.052 98.7168 719.052 101.712C719.052 106.025 720.542 109.379 723.524 111.775C726.625 114.171 730.739 115.369 735.868 115.369C736.464 115.369 736.762 115.729 736.762 116.448C736.762 117.166 736.464 117.526 735.868 117.526C733.721 117.526 730.62 117.406 726.565 117.166C722.033 116.927 718.097 116.807 714.758 116.807C711.538 116.807 707.662 116.927 703.13 117.166C699.075 117.406 695.795 117.526 693.291 117.526C692.814 117.526 692.575 117.166 692.575 116.448C692.575 115.729 692.814 115.369 693.291 115.369C696.63 115.369 699.433 114.71 701.699 113.393C703.965 111.955 706.231 109.499 708.497 106.025C710.763 102.431 713.446 97.1594 716.547 90.2109L755.367 4.49258C755.606 4.13317 756.142 3.95347 756.977 3.95347C757.931 3.95347 758.468 4.13317 758.587 4.49258L803.311 92.9064C807.485 101.412 810.944 107.283 813.687 110.517C816.43 113.752 819.292 115.369 822.274 115.369Z" fill="#E6E8EA"/>
<path d="M844.782 9.34455L850.149 9.70396V94.7035C850.149 101.053 851.461 106.085 854.085 109.799C856.709 113.512 860.346 115.369 864.997 115.369C865.236 115.369 865.355 115.729 865.355 116.448C865.355 117.166 865.236 117.526 864.997 117.526C861.658 117.526 859.094 117.466 857.305 117.346L847.645 117.166L836.553 117.346C834.526 117.466 831.604 117.526 827.787 117.526C827.43 117.526 827.251 117.166 827.251 116.448C827.251 115.729 827.43 115.369 827.787 115.369C833.035 115.369 837.149 113.512 840.131 109.799C843.232 106.085 844.782 101.053 844.782 94.7035V9.34455ZM936.019 120.221C936.019 120.581 935.72 120.82 935.124 120.94C934.647 121.06 934.289 121 934.051 120.76L845.856 19.947C841.682 15.155 838.104 11.8604 835.122 10.0634C832.14 8.26634 829.099 7.36782 825.998 7.36782C825.76 7.36782 825.641 7.00842 825.641 6.28961C825.641 5.5708 825.76 5.21139 825.998 5.21139L833.512 5.39109C835.062 5.51089 837.328 5.57079 840.31 5.57079L853.906 5.39109C855.576 5.27129 857.603 5.21139 859.988 5.21139C860.943 5.21139 861.658 5.45099 862.135 5.9302C862.612 6.40941 863.447 7.42772 864.64 8.98515C866.667 11.7406 868.098 13.5975 868.933 14.5559L934.587 90.5703L936.019 120.221ZM936.019 120.221L930.831 114.83V28.2134C930.831 21.7441 929.519 16.6525 926.895 12.9386C924.271 9.22475 920.634 7.36782 915.982 7.36782C915.744 7.36782 915.625 7.00842 915.625 6.28961C915.625 5.5708 915.744 5.21139 915.982 5.21139L923.675 5.39109C927.491 5.6307 930.711 5.7505 933.335 5.7505C935.72 5.7505 939.06 5.6307 943.353 5.39109L951.403 5.21139C951.642 5.21139 951.761 5.5708 951.761 6.28961C951.761 7.00842 951.642 7.36782 951.403 7.36782C946.633 7.36782 942.876 9.28465 940.133 13.1183C937.39 16.8322 936.019 21.8639 936.019 28.2134V120.221Z" fill="#E6E8EA"/>
<path d="M972.039 19.7673C972.039 16.1733 971.681 13.5376 970.966 11.8604C970.37 10.1832 969.177 9.04505 967.388 8.44604C965.718 7.72723 963.035 7.36782 959.338 7.36782C958.98 7.36782 958.801 7.00842 958.801 6.28961C958.801 5.5708 958.98 5.21139 959.338 5.21139L968.819 5.39109C974.305 5.6307 978.658 5.7505 981.878 5.7505C985.456 5.7505 989.988 5.6307 995.474 5.39109L1004.6 5.21139C1004.96 5.21139 1005.13 5.5708 1005.13 6.28961C1005.13 7.00842 1004.96 7.36782 1004.6 7.36782C1000.9 7.36782 998.158 7.72723 996.369 8.44604C994.699 9.16486 993.507 10.4228 992.791 12.2198C992.195 13.897 991.897 16.5327 991.897 20.1267V102.97C991.897 106.684 992.195 109.379 992.791 111.056C993.387 112.734 994.52 113.872 996.19 114.471C997.979 115.07 1000.78 115.369 1004.6 115.369C1005.08 115.369 1005.31 115.729 1005.31 116.448C1005.31 117.166 1005.08 117.526 1004.6 117.526C1000.66 117.526 997.562 117.466 995.296 117.346L981.878 117.166L968.64 117.346C966.255 117.466 963.035 117.526 958.98 117.526C958.741 117.526 958.622 117.166 958.622 116.448C958.622 115.729 958.741 115.369 958.98 115.369C962.796 115.369 965.599 115.07 967.388 114.471C969.177 113.872 970.37 112.734 970.966 111.056C971.681 109.259 972.039 106.564 972.039 102.97V19.7673ZM994.759 58.2238L1009.07 44.3866L1036.44 81.4054C1044.19 92.547 1049.98 100.454 1053.79 105.126C1057.73 109.679 1060.89 112.554 1063.28 113.752C1065.66 114.83 1068.7 115.369 1072.4 115.369C1072.76 115.369 1072.94 115.729 1072.94 116.448C1072.94 117.166 1072.76 117.526 1072.4 117.526H1052.36C1050.45 117.526 1048.84 117.586 1047.53 117.705C1046.22 117.825 1045.15 117.885 1044.31 117.885C1042.4 117.885 1040.73 117.466 1039.3 116.627C1037.99 115.669 1036.32 113.992 1034.29 111.596C1032.39 109.2 1028.93 104.587 1023.92 97.7584C1023.32 96.9198 1022.61 96.0213 1021.77 95.0629C1021.06 93.9847 1020.22 92.7866 1019.27 91.4688L994.759 58.2238ZM1025.53 23.7208C1028.99 20.2465 1030.72 17.0718 1030.72 14.1965C1030.72 12.0401 1029.76 10.3629 1027.85 9.16485C1025.95 7.96683 1023.26 7.36782 1019.8 7.36782C1019.45 7.36782 1019.27 7.00842 1019.27 6.28961C1019.27 5.5708 1019.45 5.21139 1019.8 5.21139L1028.21 5.39109C1033.46 5.6307 1038.35 5.7505 1042.88 5.7505C1047.77 5.7505 1052.84 5.6307 1058.09 5.39109L1066.14 5.21139C1066.5 5.21139 1066.67 5.5708 1066.67 6.28961C1066.67 7.00842 1066.5 7.36782 1066.14 7.36782C1060.65 7.36782 1054.63 8.98515 1048.07 12.2198C1041.51 15.3347 1035.55 19.5277 1030.18 24.799L984.204 71.7015L979.374 71.1624L1025.53 23.7208Z" fill="#E6E8EA"/>
<path d="M1104.11 71.3421H1155.63L1156.89 76.3738H1101.43L1104.11 71.3421ZM1199.11 115.369C1199.7 115.369 1200 115.729 1200 116.448C1200 117.166 1199.7 117.526 1199.11 117.526C1196.72 117.526 1193.02 117.406 1188.01 117.166C1182.77 116.927 1179.01 116.807 1176.74 116.807C1173.76 116.807 1170.12 116.927 1165.83 117.166C1161.78 117.406 1158.56 117.526 1156.17 117.526C1155.69 117.526 1155.46 117.166 1155.46 116.448C1155.46 115.729 1155.69 115.369 1156.17 115.369C1159.27 115.369 1161.48 115.07 1162.79 114.471C1164.22 113.752 1164.94 112.554 1164.94 110.877C1164.94 108.84 1163.74 105.426 1161.36 100.634L1125.04 28.5728L1133.81 13.1183L1098.21 92.0079C1096.66 95.4822 1095.88 98.7168 1095.88 101.712C1095.88 106.025 1097.37 109.379 1100.36 111.775C1103.46 114.171 1107.57 115.369 1112.7 115.369C1113.3 115.369 1113.59 115.729 1113.59 116.448C1113.59 117.166 1113.3 117.526 1112.7 117.526C1110.55 117.526 1107.45 117.406 1103.4 117.166C1098.86 116.927 1094.93 116.807 1091.59 116.807C1088.37 116.807 1084.49 116.927 1079.96 117.166C1075.91 117.406 1072.63 117.526 1070.12 117.526C1069.65 117.526 1069.41 117.166 1069.41 116.448C1069.41 115.729 1069.65 115.369 1070.12 115.369C1073.46 115.369 1076.26 114.71 1078.53 113.393C1080.8 111.955 1083.06 109.499 1085.33 106.025C1087.59 102.431 1090.28 97.1594 1093.38 90.2109L1132.2 4.49258C1132.44 4.13317 1132.97 3.95347 1133.81 3.95347C1134.76 3.95347 1135.3 4.13317 1135.42 4.49258L1180.14 92.9064C1184.32 101.412 1187.78 107.283 1190.52 110.517C1193.26 113.752 1196.12 115.369 1199.11 115.369Z" fill="#E6E8EA"/>
</svg>
