<svg width="25" height="25" viewBox="0 0 25 25" fill="none" xmlns="http://www.w3.org/2000/svg">
<path d="M18.5791 16.9475C18.4238 16.9474 18.2749 16.8856 18.1651 16.7758C18.0553 16.6661 17.9936 16.5172 17.9935 16.3619L17.9928 7.83311L6.83998 18.9859C6.7301 19.0958 6.58106 19.1575 6.42566 19.1575C6.27026 19.1575 6.12123 19.0958 6.01134 18.9859C5.90146 18.876 5.83973 18.727 5.83973 18.5716C5.83973 18.4162 5.90146 18.2672 6.01134 18.1573L17.1642 7.00447L8.63537 7.00378C8.48365 6.99842 8.33992 6.93438 8.23448 6.82515C8.12903 6.71592 8.07011 6.57002 8.07011 6.4182C8.07011 6.26638 8.12903 6.12049 8.23448 6.01126C8.33992 5.90203 8.48365 5.83799 8.63537 5.83263L18.5791 5.83263C18.7343 5.83273 18.8832 5.89445 18.993 6.00425C19.1028 6.11404 19.1645 6.26293 19.1646 6.4182L19.1646 16.3619C19.1645 16.5172 19.1028 16.6661 18.993 16.7759C18.8832 16.8856 18.7343 16.9474 18.5791 16.9475Z" fill="#47423E"/>
</svg>
