<svg width="25" height="25" viewBox="0 0 25 25" fill="none" xmlns="http://www.w3.org/2000/svg">
<path fill-rule="evenodd" clip-rule="evenodd" d="M11.7312 23.0559C11.7312 23.0559 4.16663 16.6851 4.16663 10.4163C4.16663 8.2062 5.0446 6.08659 6.6074 4.52378C8.17021 2.96098 10.2898 2.08301 12.5 2.08301C14.7101 2.08301 16.8297 2.96098 18.3925 4.52378C19.9553 6.08659 20.8333 8.2062 20.8333 10.4163C20.8333 16.6851 13.2687 23.0559 13.2687 23.0559C12.8479 23.4434 12.1552 23.4393 11.7312 23.0559ZM12.5 14.0622C12.9787 14.0622 13.4528 13.9679 13.8952 13.7847C14.3375 13.6014 14.7394 13.3329 15.078 12.9943C15.4165 12.6558 15.6851 12.2539 15.8683 11.8115C16.0515 11.3692 16.1458 10.8951 16.1458 10.4163C16.1458 9.93756 16.0515 9.46347 15.8683 9.02114C15.6851 8.57881 15.4165 8.17689 15.078 7.83835C14.7394 7.4998 14.3375 7.23125 13.8952 7.04803C13.4528 6.86481 12.9787 6.77051 12.5 6.77051C11.533 6.77051 10.6057 7.15462 9.92197 7.83835C9.23824 8.52207 8.85413 9.44941 8.85413 10.4163C8.85413 11.3833 9.23824 12.3106 9.92197 12.9943C10.6057 13.6781 11.533 14.0622 12.5 14.0622Z" fill="#FFFDF2"/>
</svg>
