<svg width="21" height="21" viewBox="0 0 21 21" fill="none" xmlns="http://www.w3.org/2000/svg">
<path d="M6.99992 1.75L8.64492 3.395M12.3549 3.395L13.9999 1.75M7.87492 6.125V5.25C7.87492 4.55381 8.15148 3.88613 8.64377 3.39384C9.13605 2.90156 9.80373 2.625 10.4999 2.625C11.1961 2.625 11.8638 2.90156 12.3561 3.39384C12.8484 3.88613 13.1249 4.55381 13.1249 5.25V6.125M6.61492 10.5H14.3762M6.56242 14.875H14.4374M4.37492 6.125C3.94439 6.13334 3.52252 6.24747 3.14651 6.45733C2.77049 6.66719 2.45187 6.96633 2.21875 7.32837C1.98562 7.69042 1.84514 8.10426 1.80969 8.53342C1.77424 8.96257 1.84492 9.39385 2.01548 9.78925C2.18604 10.1846 2.45125 10.532 2.78774 10.8007C3.12423 11.0694 3.52165 11.2512 3.94498 11.3301C4.36831 11.409 4.80454 11.3825 5.21522 11.253C5.6259 11.1235 5.99841 10.8949 6.29992 10.5875C7.96242 8.75 10.4999 6.125 10.4999 6.125C10.4999 6.125 13.0374 8.75 14.6999 10.5875C15.0014 10.8949 15.3739 11.1235 15.7846 11.253C16.1953 11.3825 16.6315 11.409 17.0549 11.3301C17.4782 11.2512 17.8756 11.0694 18.2121 10.8007C18.5486 10.532 18.8138 10.1846 18.9844 9.78925C19.1549 9.39385 19.2256 8.96257 19.1902 8.53342C19.1547 8.10426 19.0142 7.69042 18.7811 7.32837C18.548 6.96633 18.2294 6.66719 17.8533 6.45733C17.4773 6.24747 17.0555 6.13334 16.6249 6.125H4.37492Z" stroke="#47423E" stroke-linecap="round" stroke-linejoin="round"/>
<path d="M13.5625 9.36249C14.35 10.15 14.7875 11.2 14.875 12.25C14.875 17.325 10.5 19.25 10.5 19.25C10.5 19.25 6.125 17.325 6.125 12.25C6.2125 11.2 6.65 10.15 7.4375 9.36249" stroke="#47423E" stroke-linecap="round" stroke-linejoin="round"/>
</svg>
