<svg width="25" height="25" viewBox="0 0 25 25" fill="none" xmlns="http://www.w3.org/2000/svg">
<path d="M5.20839 10.271C7.20857 14.6258 10.7619 18.0774 15.173 19.9502L15.8813 20.2658C16.6657 20.6151 17.5482 20.6763 18.3734 20.4387C19.1985 20.2011 19.9132 19.6798 20.3917 18.9668L21.3178 17.5877C21.4627 17.3714 21.5213 17.1087 21.4822 16.8513C21.4431 16.5939 21.309 16.3605 21.1063 16.197L17.9688 13.6658C17.8595 13.5777 17.7336 13.5126 17.5985 13.4744C17.4635 13.4362 17.3221 13.4257 17.1829 13.4435C17.0437 13.4613 16.9095 13.507 16.7884 13.578C16.6673 13.649 16.5618 13.7437 16.4782 13.8564L15.5073 15.1658C13.0153 13.935 10.9981 11.9175 9.76777 9.42517L11.0761 8.45434C11.1889 8.37076 11.2836 8.26525 11.3545 8.14415C11.4255 8.02306 11.4712 7.88887 11.489 7.74964C11.5068 7.61042 11.4963 7.46904 11.4581 7.33398C11.4199 7.19892 11.3548 7.07298 11.2667 6.96371L8.73547 3.82621C8.57203 3.62356 8.33863 3.48946 8.08124 3.45032C7.82385 3.41118 7.56114 3.46984 7.34485 3.61475L5.95631 4.546C5.23902 5.02702 4.71578 5.74706 4.4798 6.57784C4.24382 7.40863 4.31043 8.29621 4.66777 9.08246L5.20839 10.271Z" fill="#FFFDF2"/>
</svg>
