<svg width="23" height="22" viewBox="0 0 23 22" fill="none" xmlns="http://www.w3.org/2000/svg">
<path d="M5.45513 22C3.73504 22 2.38355 21.4054 1.40064 20.2162C0.46688 19.027 0 17.2185 0 14.7905C0 12.1644 0.614316 9.66216 1.84295 7.28378C3.12073 4.85586 4.96368 2.4527 7.37179 0.0743234C7.42094 0.0247745 7.49466 0 7.59295 0C7.74038 0 7.83868 0.0743248 7.88782 0.222975C7.98611 0.322072 8.01068 0.445946 7.96154 0.594596C6.63461 2.22973 5.70085 3.86487 5.16026 5.5C4.6688 7.08559 4.42308 8.86937 4.42308 10.8514C4.42308 12.2387 4.54594 13.2793 4.79167 13.973C5.03739 14.6171 5.43056 15.1622 5.97115 15.6081L3.24359 16.1284C3.19444 15.286 3.44017 14.6419 3.98077 14.1959C4.52137 13.75 5.25855 13.527 6.19231 13.527C7.47009 13.527 8.45299 13.8986 9.14102 14.6419C9.8782 15.3851 10.2468 16.4009 10.2468 17.6892C10.2468 19.027 9.80449 20.0923 8.91987 20.8851C8.0844 21.6284 6.92949 22 5.45513 22ZM18.2083 22C16.4882 22 15.1368 21.4054 14.1538 20.2162C13.2201 19.027 12.7532 17.2185 12.7532 14.7905C12.7532 12.1644 13.3675 9.66216 14.5962 7.28378C15.8739 4.85586 17.7169 2.4527 20.125 0.0743234C20.1741 0.0247745 20.2479 0 20.3462 0C20.4936 0 20.5919 0.0743248 20.641 0.222975C20.7393 0.322072 20.7639 0.445946 20.7147 0.594596C19.3878 2.22973 18.4541 3.86487 17.9135 5.5C17.422 7.08559 17.1763 8.86937 17.1763 10.8514C17.1763 12.2387 17.2991 13.2793 17.5449 13.973C17.7906 14.6171 18.1838 15.1622 18.7244 15.6081L15.9968 16.1284C15.9476 15.286 16.1934 14.6419 16.734 14.1959C17.2746 13.75 18.0118 13.527 18.9455 13.527C20.2233 13.527 21.2062 13.8986 21.8942 14.6419C22.6314 15.3851 23 16.4009 23 17.6892C23 19.027 22.5577 20.0923 21.6731 20.8851C20.8376 21.6284 19.6827 22 18.2083 22Z" fill="#47423E"/>
</svg>
