<svg width="18" height="18" viewBox="0 0 18 18" fill="none" xmlns="http://www.w3.org/2000/svg">
<path d="M14.778 9.00007L8.40899 15.5453C8.35656 15.5981 8.3151 15.6607 8.28703 15.7296C8.25895 15.7984 8.24481 15.8722 8.24543 15.9466C8.24605 16.0209 8.26141 16.0945 8.29063 16.1629C8.31984 16.2313 8.36233 16.2932 8.41564 16.345C8.46894 16.3969 8.53201 16.4377 8.60118 16.465C8.67035 16.4924 8.74426 16.5057 8.81862 16.5043C8.89298 16.5029 8.96633 16.4867 9.03441 16.4568C9.10249 16.4268 9.16395 16.3837 9.21524 16.3298L15.9652 9.39232C16.0674 9.28731 16.1246 9.14658 16.1246 9.00007C16.1246 8.85356 16.0674 8.71283 15.9652 8.60782L9.21524 1.67032C9.16395 1.61646 9.10248 1.57331 9.0344 1.54336C8.96632 1.51341 8.89298 1.49726 8.81862 1.49585C8.74425 1.49443 8.67035 1.50778 8.60118 1.53511C8.53201 1.56245 8.46894 1.60323 8.41564 1.65509C8.36233 1.70696 8.31984 1.76889 8.29062 1.83729C8.26141 1.90568 8.24605 1.9792 8.24543 2.05357C8.24481 2.12795 8.25895 2.2017 8.28703 2.27058C8.3151 2.33945 8.35656 2.40207 8.40899 2.45482L14.778 9.00007Z" fill="#47423E"/>
</svg>
