<svg width="81" height="15" viewBox="0 0 81 15" fill="none" xmlns="http://www.w3.org/2000/svg">
<path d="M7.5 0L9.18386 5.18237H14.6329L10.2245 8.38525L11.9084 13.5676L7.5 10.3647L3.09161 13.5676L4.77547 8.38525L0.367076 5.18237H5.81614L7.5 0Z" fill="#47423E"/>
<path d="M23.5 0L25.1839 5.18237H30.6329L26.2245 8.38525L27.9084 13.5676L23.5 10.3647L19.0916 13.5676L20.7755 8.38525L16.3671 5.18237H21.8161L23.5 0Z" fill="#47423E"/>
<path d="M40.5 0L42.1839 5.18237H47.6329L43.2245 8.38525L44.9084 13.5676L40.5 10.3647L36.0916 13.5676L37.7755 8.38525L33.3671 5.18237H38.8161L40.5 0Z" fill="#47423E"/>
<path d="M57.5 0L59.1839 5.18237H64.6329L60.2245 8.38525L61.9084 13.5676L57.5 10.3647L53.0916 13.5676L54.7755 8.38525L50.3671 5.18237H55.8161L57.5 0Z" fill="#47423E"/>
<path d="M73.5 0L75.1839 5.18237H80.6329L76.2245 8.38525L77.9084 13.5676L73.5 10.3647L69.0916 13.5676L70.7755 8.38525L66.3671 5.18237H71.8161L73.5 0Z" fill="#47423E"/>
</svg>
