<svg width="1426" height="533" viewBox="0 0 1426 533" fill="none" xmlns="http://www.w3.org/2000/svg">
<path d="M-14.9986 0.000366211L-14.9985 499.371C-11.3845 496.26 -8.10183 492.471 -7.1381 488.004C5.42049 487.803 18.9729 492.27 10.3144 482.032C12.3021 475.633 23.9873 477.715 29.5137 478.493C33.6397 483.261 43.6986 491.191 46.4542 489.309C50.264 502.307 60.2325 472.345 62.5515 466.95C62.3859 471.065 78.95 485.469 81.2991 481.906C73.2429 475.382 81.2991 468.38 98.601 462.835C94.7611 450.363 108.088 467.377 116.415 465.469C117.83 478.418 132.166 452.922 135.087 462.433C140.192 453.324 154.693 438.569 153.729 451.141C157.434 454.152 168.456 462.885 172.522 455.306C168.26 461.254 191.27 483.537 191.27 472.822C191.27 462.107 209.897 449.234 209.897 475.08C209.897 450.413 228.418 479.597 228.418 479.397C228.418 477.238 247.572 462.358 247.572 466.172C247.572 481.354 265.446 494.679 265.446 482.885C265.446 471.768 284.42 480.375 284.42 479.095C284.42 461.279 302.957 471.743 302.957 482.835C302.957 489.861 323.15 495.582 323.15 474.453C323.15 470.338 340.03 482.91 340.03 492.395C340.03 496.787 355.977 526.95 355.977 515.984C355.977 516.109 375.613 524.189 375.613 518.493C375.613 530.312 394.451 534.829 394.451 531.266C394.451 539.447 413.951 501.881 413.951 504.716C413.951 507.226 432.187 504.892 432.187 506.272C432.187 502.885 452.485 507.477 452.485 510.99C452.485 488.757 461.445 467.653 461.445 475.934C461.445 494.252 478.355 470.413 478.355 465.244C478.355 472.847 496.772 462.182 496.772 468.004C496.772 486.072 514.841 461.68 514.841 474.052C514.841 483.964 533.122 474.302 533.122 468.531C533.122 470.087 550.891 452.847 550.891 458.042C550.891 448.456 569.955 465.946 569.955 462.784C569.955 461.806 586.82 439.823 586.82 433.55C586.82 432.22 606.064 459.346 606.064 442.86C606.064 430.789 624.767 449.911 624.767 442.308C624.767 435.582 644.177 460.676 644.177 432.044C644.177 435.08 661.464 458.016 661.464 453.575C661.464 457.966 680.904 465.645 680.904 473.173C680.904 467.326 703.687 483.788 703.687 471.668C703.687 493.524 724.994 500.752 724.994 480.626C724.994 488.004 744.781 479.422 744.781 474.277C744.781 483.662 763.498 477.289 763.498 476.962C763.498 490.162 782.547 487.075 782.547 488.305C782.547 472.998 800.918 475.858 800.918 469.685C800.918 473.6 821.156 498.342 821.156 486.925C821.156 490.463 840.205 487.502 840.205 482.207C840.205 461.53 858.561 473.048 858.561 471.467C858.561 469.158 875.321 445.971 875.321 447.778C875.321 443.788 894.581 457.74 894.581 446.297C894.581 446.147 916.295 484.942 916.295 466.724C916.295 463.763 932.211 424.842 932.211 433.826C932.211 440.124 950.959 434.177 950.959 425.093C950.959 416.009 970.76 424.491 970.76 422.759C970.76 410.262 990.923 434.177 990.923 430.438C990.923 427.05 1010.79 433.098 1010.79 440.024C1010.79 436.084 1030.06 433.75 1030.06 428.43C1030.06 425.921 1049.64 438.343 1049.64 436.661C1049.64 433.349 1069.23 450.89 1069.23 424.541C1069.23 427.627 1088.43 430.087 1088.43 445.921C1088.43 456.285 1108.45 425.394 1108.45 423.537C1108.45 399.422 1127.55 430.287 1127.55 440.827C1127.55 424.39 1147.32 447.301 1147.32 433.775C1147.32 437.188 1166.43 460.752 1166.43 447.351C1166.43 437.765 1185.04 439.923 1185.04 442.006C1185.04 435.156 1203.95 428.154 1203.95 427.678C1203.95 394.629 1222.35 419.472 1222.35 428.23C1222.35 438.041 1239.85 460.425 1239.85 455.808C1239.85 476.31 1258.61 460.576 1258.61 445.795C1258.61 462.709 1277.33 428.857 1277.33 437.113C1277.33 444.24 1295.52 451.793 1295.52 444.164C1295.52 452.696 1315.58 445.82 1313.92 444.741C1312.72 438.317 1335.43 445.118 1334.01 447.853C1326.29 449.735 1350.45 460.977 1353.45 457.188C1357.88 472.546 1376.97 470.513 1373.3 460.124C1376.4 451.642 1396.16 471.969 1392.99 476.36C1397.6 477.564 1408.26 480.375 1413.7 472.721C1414.44 475.13 1420.72 470.262 1426 464.817L1426 3.03001e-05L-14.9986 0.000366211Z" fill="#AAAAAA"/>
</svg>
