<svg fill="none" height="534" viewBox="0 0 1440 534" width="1440" xmlns="http://www.w3.org/2000/svg"><path d="m-15.0001.00061035.0001 656.50938965c6.26995-4.091 11.96513-9.072 13.6371-14.945 21.788-.264 45.3002 5.609 30.2785-7.852 3.4484-8.412 23.7212-5.674 33.3089-4.651 7.1582 6.268 24.6095 16.693 29.3903 14.219 6.6095 17.089 23.9042-22.302 27.9272-29.395-.287 5.411 28.45 24.347 32.525 19.662-13.976-8.577 0-17.781 30.018-25.072-6.662-16.397 16.458 5.971 30.905 3.464 2.456 17.023 27.326-16.495 32.395-3.992 8.856-11.976 34.014-31.374 32.342-14.846 6.427 3.959 25.55 15.44 32.604 5.477-7.394 7.818 32.525 37.114 32.525 23.027s32.316-31.011 32.316 2.969c0-32.43 32.133 5.938 32.133 5.674 0-2.837 33.231-22.4 33.231-17.386 0 19.96 31.01 37.477 31.01 21.972 0-14.615 32.917-3.299 32.917-4.982 0-23.423 32.159-9.666 32.159 4.916 0 9.237 35.034 16.759 35.034-11.019 0-5.41 29.285 11.118 29.285 23.588 0 5.774 27.666 45.428 27.666 31.011 0 .165 34.067 10.788 34.067 3.299 0 15.539 32.682 21.477 32.682 16.792 0 10.755 33.831-38.631 33.831-34.903 0 3.299 31.637.23 31.637 2.045 0-4.454 35.216 1.584 35.216 6.202 0-29.229 15.545-56.974 15.545-46.087 0 24.083 29.338-7.258 29.338-14.054 0 9.996 31.95-4.025 31.95 3.629 0 23.753 31.35-8.314 31.35 7.95 0 13.032 31.715.33 31.715-7.258 0 2.046 30.827-20.619 30.827-13.79 0-12.602 33.074 10.392 33.074 6.235 0-1.286 29.261-30.186 29.261-38.433 0-1.749 33.39 33.914 33.39 12.239 0-15.868 32.44 9.27 32.44-.726 0-8.841 33.68 24.149 33.68-13.493 0 3.992 29.99 34.145 29.99 28.306 0 5.773 33.73 15.868 33.73 25.765 0-7.686 39.52 13.956 39.52-1.979 0 28.735 36.97 38.236 36.97 11.778 0 9.699 34.33-1.584 34.33-8.347 0 12.338 32.47 3.959 32.47 3.53 0 17.353 33.05 13.295 33.05 14.912 0-20.124 31.87-16.364 31.87-24.479 0 5.146 35.11 37.675 35.11 22.664 0 4.652 33.05.759 33.05-6.202 0-27.184 31.84-12.042 31.84-14.12 0-3.035 29.08-33.518 29.08-31.143 0-5.245 33.41 13.097 33.41-1.946 0-.198 37.68 50.805 37.68 26.854 0-3.893 27.61-55.061 27.61-43.251 0 8.281 32.53.462 32.53-11.48 0-11.943 34.35-.792 34.35-3.068 0-16.429 34.98 15.01 34.98 10.095 0-4.454 34.46 3.497 34.46 12.602 0-5.18 33.44-8.248 33.44-15.242 0-3.299 33.96 13.032 33.96 10.821 0-4.354 33.99 18.706 33.99-15.934 0 4.058 33.31 7.291 33.31 28.108 0 13.625 34.74-26.986 34.74-29.428 0-31.703 33.13 8.875 33.13 22.731 0-21.609 34.3 8.511 34.3-9.271 0 4.487 33.15 35.465 33.15 17.848 0-12.602 32.29-9.765 32.29-7.027 0-9.006 32.82-18.211 32.82-18.837 0-43.449 31.92-10.788 31.92.726 0 12.899 30.36 42.326 30.36 36.256 0 26.953 32.55 6.268 32.55-13.163 0 22.235 32.47-22.269 32.47-11.415 0 9.369 31.56 19.299 31.56 9.27 0 11.217 34.8 2.178 31.92.759-2.09-8.445 37.31.495 34.85 4.091-13.4 2.474 28.53 17.254 33.73 12.272 7.68 20.19 40.81 17.518 34.43 3.86 5.39-11.151 39.66 15.572 34.17 21.345 8 1.584 26.5 5.278 35.93-4.784 1.28 3.167 12.17-3.233 21.34-10.392v-611.08097242z" fill="#aaa"/></svg>