<svg fill="none" height="1094" viewBox="0 0 1440 1094" width="1440" xmlns="http://www.w3.org/2000/svg"><g fill="#aaa"><path d="m1441 547.5v-513.4833c-3.61 3.1996-6.9 7.0958-7.86 11.6887-12.56.2065-26.11-4.3865-17.45 6.1412-1.99 6.5798-13.68 4.4382-19.2 3.6383-4.13-4.9026-14.19-13.0564-16.94-11.1211-3.81-13.3661-13.78 17.4429-16.1 22.9906.17-4.2318-16.4-19.0427-18.75-15.3786 8.06 6.7088 0 13.9078-17.3 19.6103 3.84 12.8242-9.49-4.6703-17.81-2.7093-1.42-13.3144-15.75 12.9015-18.68 3.1221-5.1 9.3666-19.6 24.5388-18.64 11.6114-3.7-3.0963-14.72-12.0758-18.79-4.2832 4.26-6.1154-18.75-29.0285-18.75-18.0106 0 11.018-18.63 24.2549-18.63-2.3223 0 25.3645-18.52-4.6445-18.52-4.4381 0 2.2191-19.15 17.5203-19.15 13.5982 0-15.611-17.88-29.3124-17.88-17.1849 0 11.4308-18.97 2.5804-18.97 3.8963 0 18.3203-18.54 7.5602-18.54-3.8448 0-7.2249-20.19-13.1079-20.19 8.6184 0 4.2317-16.88-8.6958-16.88-18.4494 0-4.5155-15.95-35.53085-15.95-24.2549 0-.129-19.63-8.4376-19.63-2.5803 0-12.15328-18.84-16.79792-18.84-13.13386 0-8.41184-19.5 30.21556-19.5 27.29976 0-2.5803-18.235-.1806-18.235-1.5997 0 3.4834-20.299-1.2386-20.299-4.851 0 22.8616-8.959 44.562-8.959 36.0469 0-18.8363-16.911 5.6768-16.911 10.9922 0-7.8183-18.416 3.1481-18.416-2.8383 0-18.5783-18.07 6.5023-18.07-6.2186 0-10.1923-18.281-.258-18.281 5.6767 0-1.5998-17.768 16.127-17.768 10.7857 0 9.8568-19.064-8.1279-19.064-4.8767 0 1.0064-16.865 23.6099-16.865 30.0602 0 1.368-19.245-26.5251-19.245-9.5724 0 12.4114-18.702-7.2508-18.702.5676 0 6.9152-19.41-18.8879-19.41 10.5538 0-3.122-17.287-26.7066-17.287-22.1394 0-4.5156-19.44-12.4113-19.44-20.1523 0 6.0121-22.784-10.9148-22.784 1.5481 0-22.4745-21.307-29.9059-21.307-9.2117 0-7.5861-19.787 1.2386-19.787 6.5283 0-9.6504-18.717-3.0964-18.717-2.761 0-13.5725-19.049-10.3987-19.049-11.6631 0 15.74-18.371 12.7985-18.371 19.1461 0-4.0253-20.238-29.4672-20.238-17.7268 0-3.6382-19.049-.5936-19.049 4.8509 0 21.2618-18.356 9.4182-18.356 11.0438 0 2.3739-16.76 26.2161-16.76 24.3582 0 4.1028-19.259-10.2437-19.259 1.5225 0 .1548-21.714-39.7369-21.714-21.0038 0 3.0448-15.917 43.0652-15.917 33.8282 0-6.4769-18.747-.362-18.747 8.979s-19.802.619-19.802 2.4c0 12.85-20.163-11.741-20.163-7.896 0 3.484-19.862-2.735-19.862-9.8566 0 4.0511-19.274 6.4506-19.274 11.9206 0 2.581-19.576-10.1919-19.576-8.463 0 3.406-19.591-14.6304-19.591 12.463 0-3.174-19.199-5.703-19.199-21.9844 0-10.6567-20.027 21.1074-20.027 23.0164 0 24.797-19.094-6.941-19.094-17.7783 0 16.9013-19.772-6.6572-19.772 7.2503 0-3.5088-19.109-27.7381-19.109-13.9592 0 9.8568-18.612 7.6378-18.612 5.4961 0 7.0441-18.913 14.2431-18.913 14.7341 0 33.982-18.401 8.437-18.401-.568 0-10.0892-17.498-33.1056-17.498-28.3578 0-21.0812-18.762-4.9027-18.762 10.2954 0-17.3913-18.718 17.4174-18.718 8.928 0-7.3281-18.19-15.0949-18.19-7.2507 0-8.7731-20.058-1.703-18.401-.5934 1.204 6.6056-21.5036-.3872-20.0882-3.1998 7.7249-1.9352-16.4436-13.495-19.4401-9.5987-4.4272-15.7915-23.521-13.7014-19.8468-3.0189-3.102 8.7215-22.8585-12.1792-19.6962-16.6947-4.6079-1.2386-15.2691-4.1285-20.7052 3.7415-.7378-2.4771-7.01708 2.5287-12.30252403 8.128l.00002438 477.9521z"/><path d="m0 545.953.00007109 513.487c3.61397891-3.2 6.89667891-7.1 7.86040891-11.69 12.55862-.21 26.11102 4.38 17.45252-6.14 1.9877-6.58 13.6729-4.44 19.1993-3.64 4.1259 4.9 14.1849 13.05 16.9405 11.12 3.8098 13.37 13.7783-17.44 16.0973-22.99-.1656 4.23 16.3985 19.04 18.7475 15.38-8.0561-6.71 0-13.91 17.3024-19.61-3.84-12.83 9.486 4.67 17.813 2.71 1.416 13.31 15.751-12.91 18.673-3.13 5.104-9.36 19.606-24.535 18.642-11.61 3.704 3.1 14.727 12.08 18.793 4.29-4.262 6.11 18.747 29.02 18.747 18.01 0-11.02 18.627-24.26 18.627 2.32 0-25.37 18.522 4.64 18.522 4.44 0-2.22 19.154-17.52 19.154-13.6 0 15.61 17.874 29.31 17.874 17.18 0-11.43 18.973-2.58 18.973-3.89 0-18.32 18.537-7.56 18.537 3.84 0 7.23 20.193 13.11 20.193-8.62 0-4.23 16.881 8.7 16.881 18.45 0 4.52 15.946 35.53 15.946 24.26 0 .13 19.636 8.44 19.636 2.58 0 12.15 18.838 16.8 18.838 13.13 0 8.41 19.501-30.21 19.501-27.3 0 2.58 18.235.18 18.235 1.6 0-3.48 20.299 1.24 20.299 4.85 0-22.86 8.959-44.56 8.959-36.04 0 18.83 16.911-5.68 16.911-11 0 7.82 18.416-3.14 18.416 2.84 0 18.58 18.07-6.5 18.07 6.22 0 10.19 18.281.26 18.281-5.68 0 1.6 17.768-16.12 17.768-10.78 0-9.86 19.064 8.13 19.064 4.88 0-1.01 16.865-23.614 16.865-30.065 0-1.368 19.245 26.525 19.245 9.575 0-12.414 18.702 7.25 18.702-.57 0-6.915 19.41 18.89 19.41-10.554 0 3.123 17.287 26.704 17.287 22.144 0 4.51 19.44 12.41 19.44 20.15 0-6.01 22.784 10.91 22.784-1.55 0 22.47 21.307 29.91 21.307 9.21 0 7.59 19.787-1.24 19.787-6.53 0 9.65 18.717 3.1 18.717 2.76 0 13.58 19.049 10.4 19.049 11.67 0-15.74 18.371-12.8 18.371-19.15 0 4.03 20.238 29.47 20.238 17.73 0 3.64 19.049.59 19.049-4.85 0-21.26 18.356-9.42 18.356-11.05 0-2.37 16.76-26.21 16.76-24.35 0-4.11 19.259 10.24 19.259-1.53 0-.15 21.714 39.74 21.714 21.01 0-3.05 15.917-43.069 15.917-33.832 0 6.477 18.747.362 18.747-8.979s19.802-.619 19.802-2.4c0-12.85 20.161 11.741 20.161 7.896 0-3.483 19.86 2.735 19.86 9.857 0-4.051 19.28-6.451 19.28-11.921 0-2.581 19.57 10.192 19.57 8.463 0-3.406 19.59 14.626 19.59-12.463 0 3.174 19.2 5.703 19.2 21.989 0 10.65 20.03-21.111 20.03-23.021 0-24.797 19.1 6.941 19.1 17.778 0-16.901 19.77 6.653 19.77-7.25 0 3.509 19.11 27.743 19.11 13.963 0-9.86 18.61-7.641 18.61-5.5 0-7.044 18.91-14.243 18.91-14.733 0-33.983 18.4-8.438 18.4.567 0 10.089 17.5 33.106 17.5 28.356 0 21.08 18.76 4.9 18.76-10.29 0 17.39 18.72-17.421 18.72-8.931 0 7.331 18.19 15.091 18.19 7.251 0 8.77 20.06 1.7 18.4.59-1.2-6.603 21.5.39 20.09 3.2-7.73 1.94 16.44 13.5 19.44 9.6 4.43 15.79 23.52 13.7 19.85 3.02 3.1-8.72 22.85 12.18 19.69 16.69 4.61 1.24 15.27 4.13 20.71-3.74.74 2.48 7.01-2.53 12.3-8.12v-477.957z"/></g></svg>