<svg width="14" height="14" viewBox="0 0 14 14" fill="none" xmlns="http://www.w3.org/2000/svg">
<path d="M7.31678 9.2925L11.963 4.41613C12.0406 4.33476 12.0839 4.22666 12.0839 4.11425C12.0839 4.00184 12.0406 3.89374 11.963 3.81238L11.9578 3.80713C11.9202 3.76755 11.8749 3.73603 11.8248 3.71449C11.7746 3.69296 11.7206 3.68185 11.666 3.68185C11.6114 3.68185 11.5573 3.69296 11.5072 3.71449C11.457 3.73603 11.4118 3.76755 11.3742 3.80713L6.99915 8.39913L2.6259 3.80713C2.5883 3.76755 2.54304 3.73603 2.49288 3.71449C2.44271 3.69296 2.38869 3.68185 2.33409 3.68185C2.2795 3.68185 2.22548 3.69296 2.17531 3.71449C2.12514 3.73603 2.07988 3.76755 2.04228 3.80713L2.03703 3.81238C1.95947 3.89374 1.9162 4.00184 1.9162 4.11425C1.9162 4.22667 1.95947 4.33476 2.03703 4.41613L6.68328 9.2925C6.72414 9.33539 6.77328 9.36953 6.82773 9.39286C6.88218 9.41619 6.9408 9.42822 7.00003 9.42822C7.05926 9.42822 7.11788 9.41619 7.17233 9.39286C7.22678 9.36953 7.27592 9.33539 7.31678 9.2925Z" fill="white"/>
</svg>
