<svg width="18" height="16" viewBox="0 0 18 16" fill="none" xmlns="http://www.w3.org/2000/svg">
<path d="M17.181 14.0906L16.0677 4.71562C16.0352 4.44869 15.9059 4.20296 15.7043 4.02499C15.5027 3.84702 15.2428 3.74917 14.9739 3.75H12.1888V3.59375C12.1888 2.64063 11.8102 1.72654 11.1362 1.05258C10.4622 0.378626 9.54815 0 8.59503 0C7.64191 0 6.72783 0.378626 6.05387 1.05258C5.37991 1.72654 5.00128 2.64063 5.00128 3.59375V3.75H2.21457C1.94566 3.74917 1.6858 3.84702 1.48421 4.02499C1.28263 4.20296 1.15333 4.44869 1.12082 4.71562L0.00753355 14.0906C-0.0106371 14.2446 0.00415294 14.4008 0.0509223 14.5486C0.0976917 14.6965 0.175371 14.8327 0.278806 14.9483C0.382241 15.0638 0.509067 15.1561 0.650868 15.2188C0.792669 15.2816 0.946204 15.3136 1.10128 15.3125H16.0888C16.2439 15.3136 16.3974 15.2816 16.5392 15.2188C16.681 15.1561 16.8078 15.0638 16.9113 14.9483C17.0147 14.8327 17.0924 14.6965 17.1391 14.5486C17.1859 14.4008 17.2007 14.2446 17.1825 14.0906H17.181ZM5.93878 3.59375C5.93878 2.88927 6.21864 2.21364 6.71678 1.7155C7.21492 1.21735 7.89055 0.9375 8.59503 0.9375C9.29951 0.9375 9.97514 1.21735 10.4733 1.7155C10.9714 2.21364 11.2513 2.88927 11.2513 3.59375V3.75H5.93878V3.59375ZM16.2122 14.3203C16.1968 14.3378 16.1778 14.3517 16.1565 14.3612C16.1352 14.3706 16.1121 14.3753 16.0888 14.375H1.10128C1.07798 14.3753 1.05489 14.3706 1.03358 14.3612C1.01228 14.3517 0.993266 14.3378 0.977846 14.3203C0.963211 14.3043 0.952211 14.2854 0.945602 14.2647C0.938994 14.2441 0.936934 14.2223 0.939565 14.2008L2.05363 4.82578C2.05812 4.78671 2.07719 4.75077 2.10702 4.72513C2.13686 4.6995 2.17526 4.68606 2.21457 4.6875H5.00128V6.71875C5.00128 6.84307 5.05067 6.9623 5.13858 7.05021C5.22648 7.13811 5.34571 7.1875 5.47003 7.1875C5.59435 7.1875 5.71358 7.13811 5.80149 7.05021C5.8894 6.9623 5.93878 6.84307 5.93878 6.71875V4.6875H11.2513V6.71875C11.2513 6.84307 11.3007 6.9623 11.3886 7.05021C11.4765 7.13811 11.5957 7.1875 11.72 7.1875C11.8444 7.1875 11.9636 7.13811 12.0515 7.05021C12.1394 6.9623 12.1888 6.84307 12.1888 6.71875V4.6875H14.9755C15.0148 4.68606 15.0532 4.6995 15.083 4.72513C15.1129 4.75077 15.1319 4.78671 15.1364 4.82578L16.2505 14.2008C16.2531 14.2223 16.2511 14.2441 16.2445 14.2647C16.2379 14.2854 16.2269 14.3043 16.2122 14.3203Z" fill="white"/>
</svg>
