<svg width="15" height="15" viewBox="0 0 15 15" fill="none" xmlns="http://www.w3.org/2000/svg">
<path d="M8.19352 11.9631C8.12769 11.8972 8.09071 11.8078 8.09071 11.7147C8.09071 11.6215 8.12769 11.5321 8.19352 11.4662L11.8117 7.84746L2.34821 7.84746C2.25497 7.84746 2.16555 7.81042 2.09962 7.74449C2.03369 7.67856 1.99665 7.58914 1.99665 7.4959C1.99665 7.40266 2.03369 7.31324 2.09962 7.24731C2.16555 7.18138 2.25497 7.14434 2.34821 7.14434L11.8117 7.14434L8.19352 3.52559C8.13142 3.45894 8.09761 3.3708 8.09922 3.27972C8.10083 3.18864 8.13772 3.10174 8.20214 3.03733C8.26655 2.97291 8.35345 2.93602 8.44453 2.93441C8.53561 2.9328 8.62375 2.96661 8.6904 3.02871L12.9091 7.24746C12.975 7.31338 13.012 7.40274 13.012 7.4959C13.012 7.58906 12.975 7.67842 12.9091 7.74434L8.6904 11.9631C8.62448 12.0289 8.53512 12.0659 8.44196 12.0659C8.34879 12.0659 8.25944 12.0289 8.19352 11.9631Z" fill="white"/>
</svg>
