<svg fill="none" height="533" viewBox="0 0 1426 533" width="1426" xmlns="http://www.w3.org/2000/svg"><path d="m-14.9986.00036621.0001 499.37063379c3.614-3.111 6.89667-6.9 7.8604-11.367 12.55859-.201 26.111 4.266 17.4525-5.972 1.9877-6.399 13.6729-4.317 19.1993-3.539 4.126 4.768 14.1849 12.698 16.9405 10.816 3.8098 12.998 13.7783-16.964 16.0973-22.359-.1656 4.115 16.3985 18.519 18.7476 14.956-8.0562-6.524 0-13.526 17.3019-19.071-3.8399-12.472 9.487 4.542 17.814 2.634 1.415 12.949 15.751-12.547 18.672-3.036 5.105-9.109 19.606-23.864 18.642-11.292 3.705 3.011 14.727 11.744 18.793 4.165-4.262 5.948 18.748 28.231 18.748 17.516s18.627-23.588 18.627 2.258c0-24.667 18.521 4.517 18.521 4.317 0-2.159 19.154-17.039 19.154-13.225 0 15.182 17.874 28.507 17.874 16.713 0-11.117 18.974-2.51 18.974-3.79 0-17.816 18.537-7.352 18.537 3.74 0 7.026 20.193 12.747 20.193-8.382 0-4.115 16.88 8.457 16.88 17.942 0 4.392 15.947 34.555 15.947 23.589 0 .125 19.636 8.205 19.636 2.509 0 11.819 18.838 16.336 18.838 12.773 0 8.181 19.5-29.385 19.5-26.55 0 2.51 18.236.176 18.236 1.556 0-3.387 20.298 1.205 20.298 4.718 0-22.233 8.96-43.337 8.96-35.056 0 18.318 16.91-5.521 16.91-10.69 0 7.603 18.417-3.062 18.417 2.76 0 18.068 18.069-6.324 18.069 6.048 0 9.912 18.281.25 18.281-5.521 0 1.556 17.769-15.684 17.769-10.489 0-9.586 19.064 7.904 19.064 4.742 0-.978 16.865-22.961 16.865-29.234 0-1.33 19.244 25.796 19.244 9.31 0-12.071 18.703 7.051 18.703-.552 0-6.726 19.41 18.368 19.41-10.264 0 3.036 17.287 25.972 17.287 21.531 0 4.391 19.44 12.07 19.44 19.598 0-5.847 22.783 10.615 22.783-1.505 0 21.856 21.307 29.084 21.307 8.958 0 7.378 19.787-1.204 19.787-6.349 0 9.385 18.717 3.012 18.717 2.685 0 13.2 19.049 10.113 19.049 11.343 0-15.307 18.371-12.447 18.371-18.62 0 3.915 20.238 28.657 20.238 17.24 0 3.538 19.049.577 19.049-4.718 0-20.677 18.356-9.159 18.356-10.74 0-2.309 16.76-25.496 16.76-23.689 0-3.99 19.26 9.962 19.26-1.481 0-.15 21.714 38.645 21.714 20.427 0-2.961 15.916-41.882 15.916-32.898 0 6.298 18.748.351 18.748-8.733s19.801-.602 19.801-2.334c0-12.497 20.163 11.418 20.163 7.679 0-3.388 19.867 2.66 19.867 9.586 0-3.94 19.27-6.274 19.27-11.594 0-2.509 19.58 9.913 19.58 8.231 0-3.312 19.59 14.229 19.59-12.12 0 3.086 19.2 5.546 19.2 21.38 0 10.364 20.02-20.527 20.02-22.384 0-24.115 19.1 6.75 19.1 17.29 0-16.437 19.77 6.474 19.77-7.052 0 3.413 19.11 26.977 19.11 13.576 0-9.586 18.61-7.428 18.61-5.345 0-6.85 18.91-13.852 18.91-14.328 0-33.049 18.4-8.206 18.4.552 0 9.811 17.5 32.195 17.5 27.578 0 20.502 18.76 4.768 18.76-10.013 0 16.914 18.72-16.938 18.72-8.682 0 7.127 18.19 14.68 18.19 7.051 0 8.532 20.06 1.656 18.4.577-1.2-6.424 21.51.377 20.09 3.112-7.72 1.882 16.44 13.124 19.44 9.335 4.43 15.358 23.52 13.325 19.85 2.936 3.1-8.482 22.86 11.845 19.69 16.236 4.61 1.204 15.27 4.015 20.71-3.639.74 2.409 7.02-2.459 12.3-7.904v-464.8169697z" fill="#aaa"/></svg>