<svg width="1427" height="533" viewBox="0 0 1427 533" fill="none" xmlns="http://www.w3.org/2000/svg">
<path d="M1441 532.453L1441 33.0815C1437.39 36.1932 1434.1 39.9823 1433.14 44.449C1420.58 44.6498 1407.03 40.1831 1415.69 50.4215C1413.7 56.8204 1402.01 54.7377 1396.49 53.9598C1392.36 49.1919 1382.3 41.2622 1379.55 43.1443C1375.74 30.1456 1365.77 60.1078 1363.45 65.503C1363.62 61.3876 1347.05 46.9837 1344.7 50.547C1352.76 57.0715 1344.7 64.0727 1327.4 69.6185C1331.24 82.0902 1317.91 65.0765 1309.59 66.9836C1308.17 54.0351 1293.84 79.5305 1290.91 70.0199C1285.81 79.129 1271.31 93.8843 1272.27 81.3122C1268.57 78.3009 1257.55 69.5683 1253.48 77.1467C1257.74 71.1994 1234.73 48.916 1234.73 59.6311C1234.73 70.3463 1216.1 83.2194 1216.1 57.3726C1216.1 82.04 1197.58 52.8557 1197.58 53.0565C1197.58 55.2145 1178.43 70.0952 1178.43 66.2809C1178.43 51.099 1160.55 37.7742 1160.55 49.5684C1160.55 60.685 1141.58 52.0778 1141.58 53.3576C1141.58 71.1744 1123.04 60.71 1123.04 49.6185C1123.04 42.5921 1102.85 36.8708 1102.85 57.9999C1102.85 62.1153 1085.97 49.5432 1085.97 40.0576C1085.97 35.6662 1070.02 5.50329 1070.02 16.4694C1070.02 16.3439 1050.39 8.26361 1050.39 13.96C1050.39 2.14068 1031.55 -2.37634 1031.55 1.18701C1031.55 -6.99359 1012.05 30.5722 1012.05 27.7366C1012.05 25.2271 993.815 27.5609 993.815 26.1808C993.815 29.5684 973.516 24.9762 973.516 21.4631C973.516 43.6964 964.557 64.8004 964.557 56.5193C964.557 38.2007 947.646 62.04 947.646 67.2094C947.646 59.6059 929.23 70.2709 929.23 64.4491C929.23 46.3815 911.16 70.7728 911.16 58.4014C911.16 48.4893 892.879 58.1505 892.879 63.9221C892.879 62.3663 875.111 79.6059 875.111 74.4114C875.111 83.9973 856.047 66.5069 856.047 69.6688C856.047 70.6474 839.182 92.6297 839.182 98.9032C839.182 100.233 819.937 73.1067 819.937 89.5934C819.937 101.664 801.235 82.5419 801.235 90.1454C801.235 96.8706 781.825 71.7767 781.825 100.409C781.825 97.3726 764.538 74.4366 764.538 78.8782C764.538 74.4868 745.098 66.808 745.098 59.2798C745.098 65.1267 722.315 48.665 722.315 60.7854C722.315 38.9285 701.007 31.7014 701.007 51.8268C701.007 44.4492 681.22 53.0314 681.22 58.1757C681.22 48.7905 662.503 55.1644 662.503 55.4906C662.503 42.2911 643.454 45.3776 643.454 44.1481C643.454 59.4554 625.083 56.5948 625.083 62.7679C625.083 58.8533 604.845 34.1106 604.845 45.5284C604.845 41.9901 585.796 44.9511 585.796 50.2459C585.796 70.9234 567.44 59.4053 567.44 60.9862C567.44 63.2949 550.68 86.4818 550.68 84.675C550.68 88.6649 531.421 74.7127 531.421 86.1556C531.421 86.3062 509.707 47.5108 509.707 65.729C509.707 68.6901 493.79 107.611 493.79 98.6272C493.79 92.3287 475.043 98.2759 475.043 107.36C475.043 116.444 455.241 107.962 455.241 109.694C455.241 122.19 435.078 98.2759 435.078 102.015C435.078 105.403 415.216 99.3551 415.216 92.4291C415.216 96.3689 395.942 98.7026 395.942 104.023C395.942 106.532 376.366 94.1103 376.366 95.7916C376.366 99.104 356.775 81.5634 356.775 107.912C356.775 104.826 337.576 102.366 337.576 86.5319C337.576 76.1681 317.549 107.059 317.549 108.916C317.549 133.031 298.455 102.166 298.455 91.6261C298.455 108.063 278.683 85.1518 278.683 98.6775C278.683 95.2647 259.574 71.7014 259.574 85.1016C259.574 94.6875 240.962 92.5294 240.962 90.4466C240.962 97.2973 222.049 104.299 222.049 104.775C222.049 137.824 203.648 112.981 203.648 104.223C203.648 94.4115 186.15 72.0276 186.15 76.6449C186.15 56.1431 167.388 71.877 167.388 86.6574C167.388 69.744 148.67 103.596 148.67 95.34C148.67 88.2133 130.48 80.66 130.48 88.2886C130.48 79.7566 110.422 86.6324 112.079 87.7115C113.283 94.1355 90.5753 87.3349 91.9908 84.5997C99.7157 82.7176 75.5472 71.4756 72.5507 75.2648C68.1235 59.9072 49.0297 61.9399 52.7039 72.3288C49.6019 80.8106 29.8455 60.4844 33.0077 56.0929C28.3999 54.8884 17.7386 52.0779 12.3026 59.7316C11.5647 57.3226 5.2854 62.1909 4.11215e-07 67.6363L2.47955e-05 532.453L1441 532.453Z" fill="#AAAAAA"/>
</svg>
