<svg width="681" height="463" viewBox="0 0 681 463" fill="none" xmlns="http://www.w3.org/2000/svg">
<path d="M294.95 422.121C294.91 422.442 295.658 421.881 295.965 422.121C296.272 422.362 296.432 421.961 296.752 422.121C297.059 422.281 297.62 422.976 297.54 422.001C297.46 421.026 296.605 420.786 296.912 419.932C297.219 419.064 296.846 419.064 297.553 418.516C298.26 417.969 298.647 417.648 298.647 416.874C298.647 416.1 297.86 415.539 297.713 414.524C297.553 413.509 298.02 413.109 298.02 412.014C298.02 410.919 298.487 411.386 298.02 410.372C297.553 409.357 297.153 408.876 296.806 409.037C296.459 409.197 296.218 409.117 295.898 409.904C295.578 410.692 295.191 411.4 294.964 411.159C294.724 410.919 295.044 410.919 294.964 410.452C294.884 409.984 294.87 409.01 294.87 409.01C294.87 409.01 294.417 408.356 294.176 409.01C293.936 409.664 293.549 409.985 293.549 409.985C293.549 409.985 292.535 409.264 292.535 408.716C292.535 408.169 293.082 407.234 293.469 406.847C293.856 406.46 295.591 405.124 295.591 405.124L296.512 404.363C296.512 404.363 296.018 404.07 295.591 404.363C295.164 404.657 294.096 405.365 294.096 405.365C294.096 405.365 292.388 405.485 292.268 404.724C292.148 403.963 292.214 402.788 292.268 401.787C292.321 400.785 292.308 400.024 292.201 399.37C292.094 398.716 291.213 396.846 291.44 396.366C291.681 395.898 292.268 395.017 292.495 394.723C292.735 394.43 292.962 393.896 292.668 393.375C292.375 392.854 291.907 392.253 292.321 391.906C292.735 391.559 293.376 391.319 293.616 391.199C293.856 391.078 294.737 389.903 294.737 389.903C294.737 389.903 295.378 390.438 295.378 390.838C295.378 391.239 295.351 390.958 295.017 391.719C294.67 392.48 294.256 392.841 294.497 393.949C294.737 395.071 295.671 395.832 296.325 396.299C296.966 396.766 297.446 397.06 297.566 398.061C297.687 399.063 297.913 399.77 297.687 400.358C297.446 400.945 296.565 401.533 297.393 401.653C298.22 401.773 298.647 401.706 298.647 401.706C298.647 401.706 298.661 402.12 298.647 402.294C298.634 402.467 298.274 402.708 298.154 402.881C298.034 403.055 298.274 403.295 299.088 402.641C299.902 401.987 300.556 401.399 301.21 400.879C301.851 400.345 302.558 399.944 302.798 399.343C303.039 398.756 303.559 397.995 303.332 397.407C303.092 396.82 303.039 396.526 302.331 396.646C301.624 396.766 300.983 396.94 300.503 396.646C300.036 396.352 299.208 396.112 299.568 395.298C299.915 394.47 300.503 393.655 301.277 393.589C302.038 393.535 303.212 393.468 303.399 393.829C303.572 394.176 303.933 394.47 304.16 394.47C304.387 394.47 304.747 395.057 304.867 394.296C304.987 393.535 305.508 392.24 305.988 391.652C306.455 391.065 306.575 391.185 306.816 390.478C307.056 389.77 306.936 390.064 306.816 389.423C306.695 388.782 306.228 388.889 306.575 388.368C306.922 387.834 306.842 388.488 306.949 387.607C307.056 386.726 306.749 385.845 306.642 385.604C306.535 385.364 305.881 385.484 305.881 384.963C305.881 384.443 306.175 383.495 306.415 383.321C306.655 383.147 307.016 383.027 306.989 383.962C306.949 384.897 306.509 385.257 306.989 385.898C307.47 386.539 307.883 387.433 308.297 387.901C308.711 388.368 309.538 388.662 309.712 388.955C309.885 389.249 310.179 389.957 310.005 390.304C309.832 390.651 305.307 395.191 305.187 395.605C305.067 396.019 304.36 396.192 305.067 396.019C305.775 395.845 310.953 390.611 311.18 390.371C311.42 390.13 311.527 389.49 311.474 389.022C311.42 388.555 311.594 386.672 312.114 386.552C312.635 386.432 313.048 386.312 313.048 387.193V388.608C313.048 388.608 314.103 388.782 314.984 387.607C315.865 386.432 316.105 385.604 316.745 384.603C317.386 383.601 317.8 382.72 318.801 381.599C319.802 380.477 326.742 372.479 326.742 372.479C326.742 372.479 326.689 371.478 326.448 371.425C326.208 371.371 325.621 371.718 325.207 371.425C324.793 371.131 324.326 370.957 324.446 370.129C324.567 369.302 324.567 369.075 324.446 368.541C324.326 368.007 323.859 366.538 323.566 366.071C323.272 365.603 322.685 365.069 322.218 365.016C321.75 364.962 321.096 365.016 320.749 364.722C320.402 364.428 320.576 363.961 319.575 363.427C318.574 362.893 318.04 362.599 317.159 362.492C316.278 362.372 316.225 363.253 315.224 361.731C314.223 360.196 313.462 359.141 313.169 357.846C312.875 356.551 313.462 355.723 314.223 355.616C314.984 355.496 315.518 354.908 315.865 355.149C316.212 355.389 316.986 355.269 317.039 356.391C317.092 357.512 317.573 358.914 317.573 359.328C317.573 359.742 317.813 360.089 317.813 360.089C317.813 360.089 318.454 360.623 318.4 359.915C318.347 359.208 318.107 358.567 318.347 358.273C318.587 357.979 318.521 356.804 319.228 356.564C319.935 356.324 320.763 356.804 320.763 357.445C320.763 358.086 320.643 358.206 320.416 358.861C320.176 359.501 320.296 360.156 320.469 360.69C320.643 361.224 320.763 361.157 321.297 361.277C321.831 361.397 322.711 362.332 323.232 362.866C323.752 363.4 324.113 364.335 324.113 364.335L323.766 364.508C323.766 364.508 323.299 364.682 323.646 365.096C323.993 365.51 323.939 366.338 324.406 366.738C324.874 367.152 325.167 367.673 325.461 367.74C325.754 367.793 326.168 367.739 326.395 367.793C326.635 367.846 326.395 368.207 326.742 368.728C327.089 369.248 327.449 369.782 327.449 369.782L328.33 369.542C328.33 369.542 328.797 369.248 329.038 368.607C329.278 367.967 329.158 367.726 329.745 366.778C330.332 365.844 330.746 365.136 331.093 364.482C331.44 363.841 332.094 363.066 332.508 362.185C332.922 361.304 333.509 360.65 333.442 360.182C333.389 359.715 332.508 358.126 332.027 357.592C331.56 357.058 331.267 357.005 331.32 356.658C331.373 356.31 331.614 356.07 331.614 355.723C331.614 355.376 331.56 355.549 331.614 355.082C331.667 354.601 332.494 353.32 332.494 353.32C332.494 353.32 333.148 353.026 333.442 354.615C333.736 356.204 333.789 356.377 333.789 356.671C333.789 356.965 334.323 358.553 334.323 358.553C334.323 358.553 334.203 359.261 334.67 358.967C335.137 358.674 336.378 357.552 336.725 356.965C337.072 356.377 337.553 355.843 337.78 355.322C338.02 354.788 338.367 354.495 338.314 353.907C338.26 353.32 337.673 352.559 337.78 352.078C337.9 351.611 338.5 350.956 338.314 350.436C338.127 349.902 337.713 349.314 337.606 348.606C337.499 347.899 337.259 347.365 337.486 346.844C337.726 346.31 339.128 345.963 340.075 345.135C341.023 344.307 342.077 342.718 342.838 342.545C343.599 342.371 345.361 342.131 346.482 341.784C347.603 341.437 348.711 341.49 349.658 340.662C350.606 339.834 350.899 340.315 351.006 339.247C351.113 338.179 350.953 335.482 350.713 334.133C350.472 332.785 349.952 332.01 350.072 331.196C350.192 330.381 350.419 329.954 350.245 329.073C350.072 328.192 350.125 328.245 349.538 327.724C348.951 327.19 348.123 327.017 347.776 326.082C347.429 325.147 347.483 324.667 347.136 324.32C346.789 323.972 345.668 323.492 345.668 323.492C345.668 323.492 344.667 323.318 344.667 323.145C344.667 322.971 344.373 322.677 344.493 322.504C344.613 322.33 344.96 322.45 344.96 322.09C344.96 321.729 345.08 322.263 344.667 321.209C344.253 320.154 342.905 319.673 343.132 318.151C343.372 316.616 343.252 312.85 343.252 312.85C343.252 312.85 343.666 313.091 343.959 313.852C344.253 314.613 344.893 315.975 344.96 317.083C345.014 318.204 344.96 318.672 345.307 318.845C345.654 319.019 346.482 319.259 346.655 319.673C346.829 320.087 347.069 322.317 347.069 322.317C347.069 322.317 346.535 322.611 346.829 322.731C347.122 322.851 347.469 322.731 348.07 322.731C348.671 322.731 348.951 322.557 349.004 323.318C349.058 324.079 349.471 324.854 349.712 325.027C349.952 325.201 350.179 325.495 350.592 325.962C351.006 326.429 351.527 326.549 351.353 327.497C351.18 328.432 351.593 329.62 351.82 329.967C352.061 330.314 352.234 329.847 352.234 331.142C352.234 332.437 351.994 334.373 352.234 335.842C352.474 337.311 351.94 337.484 352.234 338.072C352.528 338.659 352.528 339.127 353.115 339.487C353.702 339.848 353.996 340.021 354.583 340.128C355.17 340.235 355.824 340.475 356.812 340.769C357.813 341.063 358.4 341.183 358.747 340.943C359.094 340.702 359.575 341.477 359.575 340.181V336.83C359.575 336.069 359.815 335.655 359.575 335.068C359.334 334.48 358.867 334.066 359.281 333.826C359.695 333.586 360.696 333.359 360.816 334.24C360.936 335.121 360.989 335.775 360.816 336.657C360.642 337.538 360.469 336.95 360.642 337.538C360.816 338.125 360.295 338.539 360.816 338.125C361.35 337.711 361.11 337.364 361.577 336.884C362.044 336.403 362.284 336.349 362.578 335.949C362.871 335.535 363.165 335.014 363.112 334.48C363.058 333.946 362.524 333.185 361.99 332.651C361.457 332.117 360.869 332.064 360.936 331.182C360.989 330.301 360.469 329.126 361.23 329.473C361.99 329.82 362.658 330.007 363.125 330.942C363.592 331.877 363.939 332.291 364.113 332.477C364.286 332.651 364.7 332.771 364.7 332.237C364.7 331.703 364.286 331.236 364.7 330.475C365.114 329.714 365.527 329.233 366.235 328.939C366.942 328.646 367.289 328.352 367.583 328.058C367.876 327.764 367.996 327.123 368.463 327.417C368.931 327.711 369.291 328.178 368.931 328.712C368.57 329.246 368.103 329.594 367.583 330.542C367.062 331.489 366.288 333.012 366.288 333.012C366.288 333.012 365.46 334.948 365.167 335.655C364.873 336.363 364.633 337.538 364.233 337.885C363.819 338.232 362.991 339.127 362.991 339.127C362.991 339.127 363.045 339.714 363.926 339.714C364.807 339.714 365.461 340.248 366.448 339.3C367.449 338.366 368.61 337.711 369.064 337.538C369.505 337.364 371.627 337.244 372.681 337.484C373.735 337.725 374.736 338.018 375.324 338.312C375.911 338.606 376.965 339.193 377.739 339.02C378.5 338.846 379.154 339.02 379.328 338.192C379.501 337.364 379.675 335.842 380.329 335.188C380.983 334.534 381.97 334.013 381.21 333.305C380.449 332.598 380.035 332.664 379.675 331.596C379.328 330.541 378.674 330.475 379.141 329.367C379.608 328.245 380.489 327.364 381.023 326.549C381.556 325.721 382.437 325.014 382.491 324.133C382.544 323.251 382.784 322.303 382.491 322.25C382.197 322.197 381.023 322.424 380.782 321.956C380.542 321.489 380.075 321.075 380.315 320.541C380.555 320.007 380.729 319.713 380.956 319.299C381.196 318.885 381.543 318.124 381.196 317.831C380.849 317.537 380.315 317.123 380.609 316.829C380.902 316.535 381.73 315.587 382.251 316.535C382.771 317.483 383.011 318.245 382.624 318.592C382.251 318.939 380.769 318.418 381.837 319.767C382.891 321.115 383.372 320.888 383.839 321.476C384.306 322.063 384.96 321.716 384.479 323.064C384.012 324.413 383.839 324.239 383.305 325.294C382.771 326.349 382.598 325.294 382.304 327.711C382.01 330.128 381.597 330.355 381.957 331.476C382.304 332.598 382.718 333.118 383.011 333.706C383.305 334.293 383.305 334.587 383.478 335.121C383.652 335.655 384.012 335.949 384.066 336.176C384.119 336.416 384.012 337.111 384.239 337.471C384.479 337.818 384.413 338.593 385.587 338.82C386.762 339.06 388.47 339.06 388.884 339.354C389.298 339.647 389.818 340.115 389.885 340.702C389.938 341.29 389.298 341.824 389.885 341.944C390.472 342.064 390.712 342.478 391.179 342.064C391.647 341.65 392.18 340.943 392.527 340.822C392.874 340.702 394.649 340.475 395.237 340.769C395.824 341.063 395.944 341.597 396.531 341.77C397.119 341.944 397.773 342.117 398.587 342.184C399.414 342.238 400.348 342.184 401.002 342.358C401.643 342.531 401.763 342.478 401.763 343.186C401.763 343.893 401.71 344.067 401.763 344.721C401.817 345.362 401.817 345.656 401.002 346.136C400.175 346.604 397.359 346.964 396.118 346.897C394.876 346.844 391.353 345.722 390.472 345.722C389.591 345.722 388.884 346.31 387.296 346.363C385.707 346.417 382.704 345.602 381.703 345.122C380.702 344.654 380.943 344.361 379.768 344.361C378.594 344.361 374.95 344.481 374.536 344.361C374.122 344.24 369.651 344.12 369.238 344.187C368.824 344.24 366.648 342.892 366.648 342.892C366.648 342.892 366.008 342.478 366.181 342.945C366.355 343.413 367.89 344.294 368.944 345.175C369.998 346.056 370.586 347.058 371.653 347.885C372.721 348.713 372.948 349.127 373.415 348.94C373.882 348.767 373.882 348.059 374.349 347.645C374.816 347.231 376.285 347.178 376.872 347.178C377.459 347.178 377.286 346.71 378.46 346.884C379.635 347.058 379.701 347.231 380.395 347.765C381.089 348.299 381.93 348.82 382.517 348.82C383.105 348.82 383.518 348.473 383.812 348.179C384.106 347.885 384.573 347.538 385.053 348.126C385.52 348.713 386.468 348.954 386.882 349.768C387.296 350.582 387.936 351.063 387.643 351.704C387.349 352.345 387.402 352.585 386.815 352.585C386.228 352.585 385.881 352.118 385.694 352.759C385.52 353.4 385.814 353.814 384.693 354.174C383.572 354.521 379.808 355.296 379.101 355.643C378.393 355.99 376.805 356.35 376.511 357.111C376.218 357.873 376.979 359.461 377.566 359.528C378.153 359.582 379.568 359.702 380.155 358.821C380.742 357.939 381.036 356.591 381.396 356.591C381.757 356.591 381.516 356.711 382.517 357.525C383.518 358.353 385.454 359.355 386.041 359.408C386.628 359.461 387.749 359.288 387.976 359.288C388.203 359.288 388.39 359.528 388.804 360.289C389.217 361.05 388.75 361.291 391.033 362.052C393.328 362.813 394.383 362.933 395.09 362.759C395.797 362.586 395.971 362.172 396.264 362.586C396.558 363 397.265 363.827 396.611 363.934C395.971 364.054 395.677 363.761 395.49 364.175C395.317 364.589 396.078 365.296 394.73 365.229C393.382 365.176 375.15 361.704 374.616 361.638C374.082 361.584 372.908 361.518 372.855 361.05C372.801 360.583 372.321 359.875 372.321 359.875C372.321 359.875 372.027 360.169 371.026 359.995C370.025 359.822 369.091 359.528 368.61 358.874C368.143 358.233 367.436 357.339 367.262 356.751C367.089 356.164 366.915 355.629 366.849 355.162C366.795 354.695 366.502 354.041 366.261 353.987C366.021 353.934 365.38 352.866 365.38 353.693C365.38 354.521 365.434 355.162 365.674 356.043C365.914 356.925 365.501 358.166 366.849 359.221C368.197 360.276 369.371 360.757 370.666 361.157C371.96 361.571 373.428 361.918 373.428 361.918L395.237 366.097C395.237 366.097 398.12 366.565 399.641 366.858C401.176 367.152 402.524 367.793 403.819 368.153C405.113 368.514 405.527 368.687 406.528 368.741C407.529 368.794 408.356 368.687 408.944 368.794C409.531 368.914 410.705 369.208 411.706 369.328C412.707 369.449 413.001 369.796 414.763 369.916C416.525 370.036 420.462 370.263 421.823 370.33C423.171 370.383 425 370.45 425.24 370.383C425.48 370.33 425.293 370.143 425.707 370.036C426.121 369.929 426.534 369.916 426.534 369.916C426.534 369.916 425.827 369.382 425.066 369.328C424.306 369.275 424.239 369.208 423.825 369.328C423.411 369.449 423.118 369.569 422.584 369.569C422.05 369.569 421.53 369.222 420.942 368.981C420.355 368.741 420.529 368.394 419.648 368.808C418.767 369.222 418.473 369.275 417.766 369.222C417.058 369.168 416.298 368.687 415.644 368.808C414.99 368.928 415.403 369.048 414.349 368.981C413.295 368.928 412.641 368.687 412.12 368.634C411.586 368.581 411.359 368.687 410.532 368.394C409.704 368.1 408.477 367.74 408.236 367.659C407.996 367.579 408.063 367.045 409.117 366.925C410.172 366.805 411.933 366.751 412.828 366.391C413.708 366.044 413.415 365.39 415.35 365.269C417.285 365.149 418.7 364.802 420.582 364.802C422.464 364.802 424.346 365.096 425.106 364.976C425.867 364.855 426.454 364.215 426.521 363.801C426.575 363.387 426.107 363.454 426.521 362.973C426.935 362.506 427.349 362.092 427.869 362.212C428.39 362.332 428.51 362.92 429.11 362.92C429.711 362.92 430.752 362.973 431.339 362.572C431.927 362.158 432.514 360.396 432.874 359.809C433.221 359.221 433.288 357.512 433.581 358.807C433.875 360.102 433.995 360.863 433.995 361.224C433.995 361.584 433.702 361.638 433.581 362.158C433.461 362.679 432.994 363.16 433.461 363.28C433.928 363.4 434.583 363.106 435.103 362.933C435.637 362.759 436.571 362.586 437.038 362.759C437.505 362.933 438.093 363 437.679 363.467C437.265 363.934 436.851 364.295 436.798 364.642C436.745 364.989 436.745 365.403 437.145 365.283C437.545 365.163 438.146 364.402 438.44 364.281C438.733 364.161 439.854 366.458 441.202 366.925C442.55 367.392 442.671 367.513 443.084 367.392C443.498 367.272 444.259 367.152 444.673 367.392C445.086 367.633 445.433 367.913 445.727 367.659C446.021 367.406 445.607 366.925 445.433 366.578C445.26 366.231 445.407 365.643 445.834 365.456C446.261 365.269 446.848 365.697 446.901 365.109C446.955 364.522 446.554 364.108 446.368 363.934C446.181 363.761 445.487 363.173 446.021 362.759C446.554 362.345 446.781 362.225 447.262 362.118C447.729 361.998 447.675 361.878 447.969 361.411C448.263 360.943 448.209 360.169 448.73 360.65C449.264 361.117 449.437 362.479 449.851 362.773C450.265 363.066 451.025 362.893 451.092 363.414C451.146 363.948 450.678 364.175 450.265 364.709C449.851 365.243 449.677 365.83 449.918 366.418C450.158 367.005 450.865 368.3 451.092 369.008C451.319 369.716 451.786 370.543 451.493 370.717C451.199 370.891 450.905 371.064 451.146 371.304C451.386 371.545 451.973 371.545 452.494 371.545C453.014 371.545 453.908 371.425 454.375 371.785C454.843 372.132 455.617 372.493 455.31 372.666C455.016 372.84 454.135 374.082 454.015 374.375C453.895 374.669 454.015 374.669 454.189 375.964C454.362 377.259 454.242 377.673 453.948 377.847C453.655 378.02 451.186 376.432 450.945 376.432C450.705 376.432 450.011 376.084 449.891 376.432C449.771 376.779 449.597 376.899 448.837 377.606C448.076 378.314 446.488 378.661 446.194 378.661C445.9 378.661 445.433 378.955 445.367 379.302C445.313 379.649 445.073 379.836 444.539 379.836C444.005 379.836 443.418 379.783 442.951 380.183C442.484 380.597 441.069 381.772 440.241 382.6C439.414 383.428 439.481 383.895 438.893 384.136C438.306 384.376 437.252 384.723 436.718 384.843C436.184 384.963 435.89 385.257 435.183 384.376C434.476 383.495 434.009 382.547 433.595 382.667C433.181 382.787 432.887 382.84 432.954 383.548C433.008 384.256 433.301 384.549 433.074 385.19C432.834 385.831 432.54 386.485 431.313 387.367C430.071 388.248 427.202 389.543 426.428 390.184C425.654 390.825 424.252 392.066 423.839 392.654C423.425 393.241 423.785 393.241 422.784 393.775C421.783 394.31 421.022 394.31 420.849 394.897C420.675 395.485 420.902 396.139 420.902 396.139C420.902 396.139 421.61 396.019 421.369 396.486C421.129 396.953 420.956 397.127 420.488 397.194C420.021 397.247 419.608 397.14 419.02 397.367C418.433 397.607 417.259 398.128 417.259 398.128C417.259 398.128 417.205 397.834 416.671 398.956C416.138 400.077 416.498 400.425 415.617 400.425C414.736 400.425 414.496 399.664 413.855 400.251C413.215 400.839 413.148 400.959 412.147 401.96C411.146 402.961 409.851 404.016 409.264 404.55C408.677 405.084 408.143 405.672 407.796 406.019C407.449 406.366 407.209 406.66 407.209 406.9C407.209 407.141 407.502 407.488 407.622 407.728C407.743 407.968 407.863 407.848 407.676 408.436C407.502 409.023 407.142 409.491 407.622 409.971C408.103 410.452 408.743 410.612 409.451 410.612C410.158 410.612 412.454 410.732 413.094 411.079C413.735 411.427 413.442 411.907 414.336 411.72C415.217 411.547 415.63 411.547 415.924 411.133C416.218 410.719 416.338 410.078 416.858 409.664C417.392 409.25 417.913 409.023 419.327 409.023C420.742 409.023 421.036 408.729 421.97 408.609C422.904 408.489 424.386 408.956 425.787 409.437C427.202 409.904 427.789 410.372 428.964 411.266C430.138 412.147 430.018 412.321 431.606 413.616C433.194 414.911 434.956 416.741 435.664 417.328C436.371 417.915 436.905 418.156 437.252 418.156C437.599 418.156 437.892 417.568 438.133 418.156C438.373 418.743 438.546 419.624 439.014 419.865C439.481 420.105 439.601 420.279 440.015 419.985C440.428 419.691 441.016 419.224 441.189 418.93C441.363 418.636 441.363 418.223 442.123 418.289C442.884 418.343 443.418 418.116 443.712 417.942C444.005 417.769 443.538 417.114 444.592 417.648C445.647 418.182 445.42 418.65 448.183 420.065C450.945 421.48 450.478 421.227 451.599 422.589C452.72 423.95 453.481 425.125 453.828 425.953C454.175 426.781 454.469 428.303 454.469 429.251C454.469 430.199 454.709 431.307 454.709 432.896C454.709 434.485 454.763 435.193 454.536 436.074C454.309 436.955 453.535 436.488 453.121 437.249C452.707 438.01 452.414 437.716 452.48 440.306C452.534 442.897 452.133 443.364 452.427 445.193C452.72 447.022 453.068 447.076 452.841 447.717C452.614 448.358 452.494 448.771 452.2 449.132C451.906 449.479 451.493 449.546 451.146 449.546C450.799 449.546 450.678 449.426 450.505 449.96C450.331 450.494 449.744 450.721 449.504 450.667C449.264 450.614 449.037 450.788 448.97 451.135C448.917 451.482 448.97 451.722 448.503 451.842C448.036 451.962 447.449 451.896 447.449 452.376C447.449 452.857 448.089 454.259 449.918 455.314C451.746 456.369 452.507 456.729 453.334 456.609C454.162 456.489 455.563 456.061 456.097 456.636C456.631 457.196 457.445 457.971 457.859 458.558C458.273 459.146 457.912 459.266 459.033 459.8C460.155 460.334 460.862 459.92 461.556 460.801C462.263 461.683 461.97 462.631 463.144 462.631C464.319 462.631 466.561 462.924 467.028 462.337C467.495 461.749 466.855 460.988 468.082 460.868C469.31 460.748 469.911 461.335 470.672 461.335C471.432 461.335 471.673 461.629 472.727 461.335C473.781 461.042 473.781 460.801 474.729 460.214C475.677 459.626 475.73 459.279 477.078 458.972C478.426 458.665 477.785 458.852 478.906 457.797C480.028 456.742 479.787 456.035 480.788 455.501C481.789 454.967 482.497 454.86 483.017 454.566C483.538 454.272 483.658 453.738 483.952 453.151C484.245 452.563 485.486 452.216 485.78 451.856C486.074 451.509 485.433 451.735 485.78 451.095C486.127 450.454 488.009 447.797 488.423 446.448C488.836 445.1 489.13 444.566 489.771 443.444C490.411 442.323 490.305 442.029 491.185 441.441C492.066 440.854 489.837 442.202 492.72 440.56C495.603 438.918 500.074 435.74 501.302 435.259C502.543 434.792 503.478 433.964 505.653 433.911C507.829 433.857 508.589 434.151 509.243 433.15C509.884 432.148 510.418 431.508 511.419 431.614C512.42 431.735 512.593 431.494 513.714 432.496C514.836 433.497 514.542 433.671 515.716 433.323C516.891 432.976 517.478 433.377 517.598 432.322C517.718 431.267 517.131 430.092 517.598 429.438C518.065 428.797 518.773 427.969 519.534 427.315C520.294 426.674 520.882 425.78 521.122 425.486C521.362 425.192 521.656 424.364 522.123 423.897C522.59 423.43 522.763 423.256 523.764 423.136C524.765 423.016 524.819 423.016 525.526 423.376C526.234 423.723 526.647 423.91 526.994 423.67C527.341 423.43 528.115 423.083 527.528 422.548C526.941 422.014 525.887 421.787 526.354 421.374C526.821 420.96 528.409 420.319 528.409 419.785C528.409 419.251 528.529 419.144 528.409 418.49C528.289 417.835 528.529 417.141 529.116 416.26C529.704 415.379 529.29 414.324 531.586 413.79C533.881 413.256 534.762 413.029 535.99 413.082C537.231 413.136 536.697 412.668 538.286 413.082C539.874 413.496 541.048 413.843 541.929 414.257C542.81 414.671 543.05 414.257 543.811 415.499C544.572 416.741 544.638 417.328 545.639 417.502C546.64 417.675 547.401 418.036 549.056 417.034C550.698 416.033 551.112 415.392 553.114 414.978C555.116 414.564 556.17 415.098 557.291 415.445C558.412 415.793 559.173 416.153 559.934 416.153C560.694 416.153 561.762 415.859 562.456 415.098C563.164 414.337 563.631 413.162 564.805 413.042C565.98 412.922 567.274 412.695 567.915 412.281C568.556 411.867 569.33 411.28 569.503 410.639C569.677 409.998 569.21 409.05 568.863 408.342C568.516 407.635 567.982 406.994 567.982 406.166C567.982 405.338 568.035 404.403 567.982 404.043C567.928 403.696 567.635 402.868 567.688 402.574C567.741 402.281 568.102 402.16 568.222 401.933C568.342 401.706 568.102 400.999 567.755 400.345C567.408 399.704 566.82 399.17 567.408 399.049C567.995 398.929 568.462 399.17 568.702 399.223C568.943 399.276 569.823 398.635 569.944 397.928C570.064 397.22 569.65 396.459 569.944 396.219C570.237 395.979 570.878 395.391 570.998 395.872C571.118 396.339 571.412 396.873 571.999 396.459C572.586 396.045 573.534 395.631 573.934 395.217C574.348 394.804 575.229 394.336 575.402 393.682C575.576 393.041 575.349 392.213 574.762 391.626C574.174 391.038 574.228 389.69 573.347 389.69C572.466 389.69 571.999 390.224 570.998 390.277C569.997 390.331 570.117 390.451 569.236 390.277C568.355 390.104 568.475 389.69 567.301 389.984C566.126 390.277 565.246 390.397 565.072 390.277C564.899 390.157 564.832 389.396 563.537 389.636C562.243 389.877 562.243 389.984 561.776 389.93C561.308 389.877 560.721 389.516 560.241 389.343C559.773 389.169 558.999 388.702 558.119 389.516C557.238 390.344 556.65 390.691 555.89 390.691C555.129 390.691 554.715 390.344 554.475 390.691C554.235 391.038 554.422 391.332 553.941 391.626C553.474 391.92 552.7 391.572 552.887 392.16C553.06 392.747 553.3 392.868 553.127 393.281C552.953 393.695 552.073 393.695 552.006 394.216C551.952 394.75 552.54 394.683 552.246 395.151C551.952 395.618 551.779 395.685 550.711 395.979C549.643 396.272 550.004 396.566 549.363 396.686C548.723 396.806 549.483 396.272 548.122 396.152C546.761 396.032 545.479 395.565 545.119 395.217C544.772 394.87 544.412 393.682 544.358 393.041C544.305 392.4 544.065 391.693 544.118 391.332C544.171 390.985 543.878 390.331 542.943 391.452C542.009 392.574 541.769 392.801 541.769 393.335C541.769 393.869 542.009 394.216 541.475 394.87C540.941 395.511 540.301 395.338 540.234 396.165C540.181 396.993 540.528 396.806 540.181 397.581C539.834 398.342 540.181 398.876 538.352 399.757C536.524 400.638 534.642 401.64 533.534 402.054C532.426 402.467 530.771 402.988 530.117 402.815C529.477 402.641 522.296 397.22 521.762 396.406C521.229 395.591 515.116 388.889 514.355 387.821C513.594 386.752 509.243 382.053 508.416 380.811C507.588 379.569 504.412 374.455 503.771 373.16C503.131 371.865 502.356 369.689 502.009 368.567C501.662 367.446 500.181 365.336 499.781 364.268C499.38 363.2 498.953 361.918 498.78 361.037C498.606 360.156 498.539 359.688 498.539 358.861C498.539 358.033 498.366 356.804 498.192 356.738C498.019 356.684 497.485 356.858 497.485 357.979C497.485 359.101 497.485 359.515 497.245 359.809C497.004 360.102 496.364 359.982 496.364 359.982C496.364 359.982 495.897 359.101 495.483 359.568C495.069 360.036 494.362 360.209 493.895 360.102C493.428 359.982 492.894 358.754 492.96 359.809C493.014 360.863 493.254 361.638 493.841 362.519C494.429 363.4 494.842 363.52 495.136 363.814C495.43 364.108 495.67 364.402 495.67 364.575C495.67 364.749 496.257 365.109 496.257 365.109C496.257 365.109 496.671 363.641 497.018 363.4C497.365 363.16 498.486 363.16 498.433 363.814C498.379 364.455 498.606 364.989 498.966 365.817C499.327 366.645 499.38 367.059 499.794 367.579C500.208 368.1 500.381 367.82 500.435 368.928C500.488 370.036 500.488 371.398 500.314 372.573C500.141 373.748 499.674 374.869 500.194 374.923C500.728 374.976 501.315 373.801 501.609 373.387C501.903 372.973 501.956 372.92 502.49 373.734C503.024 374.549 504.025 375.911 504.492 377.206C504.959 378.501 505.319 379.436 507.135 381.318C508.95 383.201 510.485 384.549 511.312 385.671C512.14 386.792 513.02 387.794 514.128 388.849C515.249 389.903 517.064 392.374 517.598 393.201C518.132 394.029 520.014 396.379 521.015 397.38C522.016 398.382 522.897 398.502 523.364 399.797C523.831 401.092 523.831 400.919 525.006 401.973C526.18 403.028 527.595 403.562 527.421 404.15C527.248 404.737 527.181 405.205 526.367 405.205C525.553 405.205 525.126 404.964 524.659 404.564C524.191 404.15 523.831 404.096 523.124 403.976C522.416 403.856 521.883 403.269 521.242 403.269C520.601 403.269 519.894 403.148 519.894 403.148L518.479 402.094C518.479 402.094 515.543 402.267 514.715 402.147C513.888 402.027 513.127 401.506 513.127 401.506C513.127 401.506 512.834 400.678 512.126 400.919C511.419 401.159 512.246 401.266 510.418 401.386C508.589 401.506 507.829 401.626 507.895 401.333C507.949 401.039 508.483 400.625 508.83 400.037C509.177 399.45 509.123 397.688 509.123 397.688C509.123 397.688 508.656 396.633 509.47 396.272C510.298 395.925 511.699 395.097 511.993 394.096C512.286 393.095 513.114 392.267 512.286 391.158C511.459 390.037 511.045 389.516 510.872 388.862C510.698 388.208 510.872 387.687 509.871 387.033C508.87 386.392 508.402 386.325 508.162 385.618C507.922 384.91 506.694 384.202 506.334 384.082C505.987 383.962 506.28 383.962 504.986 383.735C503.691 383.495 502.69 383.321 502.864 383.147C503.037 382.974 502.81 382.146 502.57 382.026C502.33 381.906 501.809 382.787 501.516 382.667C501.222 382.547 500.515 382.199 500.688 381.839C500.862 381.492 500.982 381.492 501.516 381.078C502.049 380.664 502.984 379.903 502.156 379.783C501.329 379.663 496.804 381.839 496.27 382.013C495.737 382.186 494.268 382.48 494.215 382.133C494.162 381.786 494.562 381.078 495.269 380.597C495.977 380.13 496.444 379.302 496.444 378.955C496.444 378.608 496.391 378.127 497.205 378.127C498.019 378.127 498.673 378.247 498.259 377.593C497.845 376.939 497.725 377.006 497.498 376.538C497.258 376.071 497.258 374.776 496.671 375.07C496.084 375.363 496.671 375.831 495.55 376.245C494.429 376.658 494.202 376.592 493.614 376.712C493.027 376.832 492.56 376.178 492.907 375.777C493.254 375.363 493.201 375.19 494.028 374.722C494.856 374.255 494.669 374.188 495.79 373.481C496.911 372.773 497.552 372.186 496.964 372.132C496.377 372.079 495.723 371.839 495.029 372.079C494.322 372.319 494.202 371.905 493.614 372.72C493.027 373.547 491.092 375.537 490.558 376.485C490.024 377.433 488.329 378.715 487.555 379.302C486.794 379.89 485.5 380.357 485.259 380.183C485.019 380.01 484.552 379.062 485.5 378.541C486.447 378.02 486.968 377.606 487.502 377.246C488.036 376.899 488.329 376.899 488.329 376.124C488.329 375.35 488.383 374.536 489.037 373.948C489.677 373.361 489.864 373.708 490.571 372.479C491.279 371.251 492.28 371.652 491.919 370.597C491.572 369.542 490.571 367.833 489.744 367.886C488.916 367.94 488.209 367.419 488.036 368.42C487.862 369.422 487.982 369.769 487.795 370.423C487.622 371.064 487.155 370.891 486.914 371.598C486.674 372.306 486.861 372.6 486.381 372.947C485.913 373.294 484.913 373.361 485.033 372.479C485.153 371.598 485.033 370.25 484.739 370.77C484.445 371.304 485.446 371.598 484.152 371.892C482.857 372.186 481.976 372.012 481.923 371.545C481.869 371.077 482.51 371.077 482.457 370.543C482.403 370.009 482.457 370.009 481.696 369.302C480.935 368.594 480.228 368.06 480.348 367.713C480.468 367.366 481.175 367.005 481.175 367.005C481.175 367.005 480.882 365.71 480.295 365.536C479.707 365.363 479.534 365.069 479.24 365.71C478.947 366.351 478.893 366.645 478.239 366.765C477.599 366.885 476.477 366.818 476.704 366.057C476.931 365.296 476.651 365.176 476.17 365.296C475.703 365.416 475.877 365.763 475.703 366.351C475.53 366.938 475.877 367.646 475.236 367.286C474.596 366.925 474.649 366.872 474.235 366.164C473.821 365.456 474.115 365.229 472.887 365.163C471.646 365.109 470.418 364.629 470.418 364.629C470.418 364.629 470.124 364.749 470.952 365.216C471.779 365.683 472.42 365.924 473.007 366.631C473.595 367.339 474.302 367.566 474.355 368.394C474.409 369.222 474.702 369.862 474.182 370.156C473.648 370.45 473.888 371.331 472.767 370.744C471.646 370.156 470.538 370.103 471.179 369.622C471.819 369.155 472.353 369.035 472.06 368.447C471.766 367.86 471.886 366.738 470.885 366.391C469.884 366.044 468.469 365.336 467.949 364.802C467.428 364.268 467.188 363.454 467.188 363.213C467.188 362.973 466.361 362.679 465.947 362.746C465.533 362.799 464.826 362.799 464.893 363.627C464.959 364.455 465.24 364.802 464.599 364.922C463.958 365.042 463.424 364.922 463.251 364.922C463.077 364.922 462.904 365.269 462.423 365.163C461.956 365.042 461.716 365.216 461.075 364.228C460.435 363.227 460.728 363.173 460.435 363.227C460.141 363.28 458.967 363.227 458.793 363.106C458.62 362.986 458.5 362.172 458.326 361.985C458.153 361.811 458.206 362.279 458.673 361.691C459.14 361.104 458.967 361.397 459.434 360.93C459.901 360.463 460.315 360.583 459.901 359.995C459.487 359.408 459.073 359.061 458.78 359.114C458.486 359.168 458.246 358.527 457.952 358.647C457.659 358.767 457.485 359.288 457.605 359.822C457.725 360.356 457.952 360.877 457.365 360.997C456.778 361.117 456.604 360.997 456.311 360.997C456.017 360.997 455.016 361.17 455.016 361.17C455.016 361.17 454.602 360.583 454.429 360.169C454.255 359.755 454.082 359.461 453.788 359.635C453.495 359.809 452.494 359.809 452.734 359.341C452.974 358.874 453.027 358.22 453.441 358.046C453.855 357.873 454.028 357.993 454.028 357.285C454.028 356.577 453.681 355.99 453.975 355.75C454.269 355.509 454.616 354.575 455.323 354.695C456.03 354.815 456.618 355.576 457.325 355.629C458.032 355.683 457.912 355.75 458.566 355.389C459.207 355.042 459.447 354.922 459.981 355.216C460.515 355.509 461.222 355.336 461.222 355.336C461.222 355.336 461.463 353.867 462.397 355.095C463.331 356.324 464.746 358.033 465.453 358.981C466.161 359.929 466.454 360.449 466.921 360.276C467.388 360.102 467.802 359.515 468.042 359.448C468.283 359.395 468.576 359.568 468.923 359.795C469.27 360.036 469.804 360.089 470.218 359.849C470.632 359.608 471.099 359.728 470.925 359.208C470.752 358.674 470.391 357.792 470.391 357.205C470.391 356.617 469.924 355.563 470.805 356.204C471.686 356.844 471.806 357.138 472.046 357.672C472.287 358.206 472.166 358.5 472.46 358.553C472.754 358.607 473.101 358.794 473.101 358.019C473.101 357.245 473.274 357.379 472.634 356.671C471.993 355.963 470.218 354.495 470.285 354.147C470.338 353.8 470.925 353.32 470.578 352.972C470.231 352.625 469.457 352.438 469.871 352.091C470.285 351.744 470.925 351.21 470.925 351.21C470.925 351.21 470.925 349.915 471.633 350.623C472.34 351.33 472.754 352.332 472.981 353.146C473.207 353.96 474.035 355.082 474.035 355.082C474.035 355.082 475.276 355.616 475.036 356.431C474.796 357.258 474.569 357.071 474.102 358.14C473.635 359.194 473.274 359.488 472.981 360.556C472.687 361.624 471.86 362.492 472.807 362.492C473.755 362.492 473.862 362.025 474.222 362.025C474.582 362.025 474.929 362.372 475.156 362.439C475.396 362.492 476.037 362.559 476.037 361.731C476.037 360.903 475.984 359.969 475.917 359.435C475.863 358.901 476.211 358.674 476.211 358.674C476.211 358.674 476.798 359.501 476.971 360.089C477.145 360.676 476.504 360.73 477.145 360.676C477.785 360.623 477.906 359.795 477.906 359.795L477.732 358.327C477.732 358.327 477.852 357.445 477.612 357.085C477.372 356.738 476.905 356.791 477.078 356.03C477.252 355.269 477.906 355.683 478.253 355.91C478.6 356.15 478.546 356.551 479.187 356.083C479.827 355.616 479.48 355.202 480.361 355.322C481.242 355.443 480.415 356.324 480.828 356.564C481.242 356.804 481.763 357.152 482.537 357.619C483.298 358.086 483.177 358.033 483.885 358.086C484.592 358.14 484.299 358.033 485.059 358.14C485.82 358.26 486.234 357.258 486.234 357.258C486.234 357.258 485.593 355.376 486.354 355.202C487.115 355.029 487.475 355.67 487.475 355.67L488.596 357.899C488.596 357.899 488.423 359.782 487.889 360.369L487.355 360.957C487.355 360.957 486.768 359.488 486.594 359.488C486.421 359.488 485.887 359.608 485.887 359.608L485.42 359.782C485.42 359.782 484.178 360.129 484.005 360.957C483.831 361.785 483.885 363.253 483.885 363.253C483.885 363.253 482.537 363.307 482.297 363.787C482.056 364.255 482.003 365.376 482.003 365.376C482.003 365.376 482.83 365.55 483.418 365.617C484.005 365.67 484.299 365.376 484.352 366.324C484.405 367.259 484.993 368.087 484.993 368.087C484.993 368.087 486.995 368.434 487.702 366.965C488.409 365.496 488.997 364.909 489.41 363.854C489.824 362.799 489.944 362.319 490.238 360.797C490.531 359.261 489.891 357.378 490.878 356.684C491.866 355.99 495.109 355.629 496.471 355.563C497.819 355.509 497.231 354.628 498.179 353.68C499.127 352.732 500.995 351.504 502.236 350.623C503.478 349.741 503.825 348.793 504.879 348.687C505.933 348.566 505.88 348.807 506.294 348.513C506.707 348.219 507.348 346.51 507.882 345.923C508.416 345.335 508.763 344.681 508.589 344.454C508.416 344.227 508.002 344.694 507.829 344.16C507.655 343.626 507.188 342.865 507.588 342.451C507.989 342.037 508.122 341.33 508.229 341.036C508.349 340.742 508.229 339.5 508.523 339.981C508.816 340.448 509.163 342.331 509.35 342.919C509.524 343.506 510.111 343.973 510.525 343.453C510.938 342.919 511.232 342.104 511.405 341.69C511.579 341.276 511.873 340.756 511.873 340.756C511.873 340.756 512.166 339.754 511.752 338.993C511.339 338.232 510.111 337.111 510.111 336.643C510.111 336.176 509.47 336.109 510.111 336.176C510.751 336.229 512.113 337.057 512.58 337.591C513.047 338.125 513.701 338.593 513.995 339.233C514.288 339.874 514.408 340.235 514.235 340.702C514.061 341.169 513.648 341.343 513.821 342.051C513.995 342.758 513.701 343.226 514.529 343.172C515.356 343.119 515.823 343.052 516.41 343.052C516.998 343.052 518.119 342.638 517.758 343.292C517.411 343.933 516.931 344.174 516.464 345.122C515.997 346.056 515.703 347.418 515.703 347.418C515.703 347.418 515.823 347.712 516.237 347.071C516.651 346.43 522.176 337.952 522.176 337.952L521.589 337.778C521.589 337.778 519.881 340.008 519.12 340.489C518.359 340.956 517.999 341.543 517.772 340.836C517.532 340.128 516.237 338.245 515.89 337.124C515.543 336.002 515.129 334.013 515.062 332.651C515.009 331.303 515.009 329.353 514.822 328.472C514.649 327.591 514.408 326.83 514.408 326.175C514.408 325.521 513.941 324.293 514.408 323.532C514.876 322.771 514.996 321.889 515.463 322.824C515.93 323.759 516.878 325.174 516.811 326.002C516.757 326.83 516.17 326.71 516.224 327.644C516.277 328.579 516.864 330.461 517.345 331.877C517.812 333.292 517.812 334.227 518.933 335.175C520.054 336.109 520.348 336.47 520.935 336.349C521.522 336.229 521.576 336.697 521.869 336.002C522.163 335.295 521.923 334.881 522.403 334.827C522.87 334.774 523.11 334.774 523.11 335.415C523.11 336.056 522.176 335.829 522.87 336.416C523.578 337.004 523.404 337.177 524.338 336.59C525.273 336.002 527.048 334.12 527.808 333.412C528.569 332.704 529.277 331.062 530.331 330.061C531.385 329.059 533.147 328.005 533.801 327.297C534.442 326.589 535.269 326.055 535.269 326.055L537.151 324.226L541.035 322.397L543.798 322.277L548.322 321.396C548.322 321.396 550.257 320.928 550.671 322.157L551.085 323.398L551.792 323.866L552.62 323.332L552.967 323.919C552.967 323.919 553.38 324.333 553.501 323.972C553.621 323.625 553.674 323.211 554.208 322.21C554.742 321.209 554.915 320.034 556.09 318.565C557.264 317.096 558.265 314.626 559.907 314.559C561.549 314.493 561.028 314.733 562.203 314.68C563.377 314.626 562.616 314.439 564.912 313.919C567.208 313.384 569.677 312.45 570.678 313.451C571.679 314.453 572.613 315.868 572.8 316.268C572.973 316.682 573.147 316.389 573.04 317.15C572.92 317.911 572.626 318.565 572.399 318.792C572.159 319.032 572.106 318.965 571.812 319.032C571.518 319.086 570.878 319.152 570.931 319.673C570.985 320.207 571.105 320.501 571.572 320.434C572.039 320.381 572.279 320.608 572.573 319.9C572.867 319.192 575.216 313.838 575.456 313.318C575.696 312.784 575.87 312.263 575.816 311.729C575.763 311.195 575.069 310.434 575.816 310.14C576.564 309.846 576.39 310.087 576.977 309.553C577.565 309.018 576.804 307.91 578.686 307.082C580.568 306.255 583.09 304.372 583.864 304.025C584.625 303.678 586.92 302.089 587.454 301.675C587.988 301.261 588.575 300.74 588.989 300.74C589.403 300.74 590.991 301.675 591.111 301.915C591.231 302.156 591.752 302.556 591.752 302.97V303.851C591.752 303.851 591.805 304.265 592.219 303.558C592.633 302.85 592.633 302.556 593.1 302.262C593.567 301.969 594.101 301.795 594.221 301.208C594.341 300.62 593.687 300.62 594.221 300.033C594.755 299.445 601.161 291.381 601.802 291.154C602.443 290.913 603.737 290.74 605.445 290.74C607.154 290.74 607.568 290.62 608.035 290.206C608.502 289.792 608.742 289.565 609.383 289.565C610.023 289.565 610.437 289.565 610.971 288.977C611.505 288.39 611.678 287.736 612.439 287.736C613.2 287.736 614.561 288.27 614.788 288.323C615.028 288.377 615.322 288.27 615.843 288.15C616.363 288.029 617.778 288.096 618.659 287.736C619.54 287.389 619.54 286.908 620.073 286.854C620.607 286.801 621.421 287.268 621.782 287.682C622.129 288.096 622.422 287.976 622.316 288.443C622.195 288.911 621.969 288.684 622.075 289.204C622.182 289.725 623.423 290.673 623.784 290.032C624.131 289.391 624.198 288.857 625.078 288.096C625.959 287.335 626.613 286.748 626.907 286.214C627.2 285.68 627.441 285.212 627.2 284.745C626.96 284.278 626.373 284.625 626.613 283.57C626.853 282.515 626.96 280.926 627.961 279.751C628.962 278.576 629.723 277.161 629.723 276.333C629.723 275.505 629.256 274.277 628.669 274.504C628.081 274.731 625.732 275.973 625.252 275.265C624.785 274.557 625.666 271.033 626.133 269.964C626.6 268.91 627.014 266.787 627.374 265.558C627.721 264.317 628.428 255.905 628.842 255.731C629.256 255.558 629.776 255.384 630.55 255.264C631.325 255.144 631.898 254.209 632.846 253.675C633.794 253.141 639.026 253.208 639.493 253.141C639.96 253.088 639.546 251.432 640.374 250.084C641.201 248.735 641.615 247.56 642.496 247.146C643.377 246.732 644.618 246.853 644.204 245.317C643.79 243.782 642.496 239.669 643.27 239.135C644.044 238.601 644.097 238.08 644.978 238.374C645.859 238.668 646.913 238.494 647.447 237.907C647.981 237.319 650.917 235.09 654.681 235.09C658.445 235.09 664.384 233.327 664.798 233.381C665.212 233.434 664.624 234.102 666.333 234.302C668.041 234.502 669.629 233.968 670.684 233.915C671.738 233.861 674.154 233.381 675.208 233.741C676.263 234.102 678.318 234.462 679.092 234.302C679.853 234.142 681.561 233.621 680.387 232.379C679.212 231.138 678.625 231.498 678.264 230.083C677.917 228.667 676.97 224.435 677.384 224.141C677.797 223.848 678.625 223.434 679.679 222.793C680.734 222.152 681.187 216.851 680.787 215.316C680.387 213.78 679.266 213.313 679.145 211.791C679.025 210.255 678.612 209.735 678.972 208.787C679.319 207.852 679.506 206.263 679.386 205.142C679.266 204.02 679.679 202.258 679.145 201.55C678.612 200.842 677.317 200.615 677.09 199.32C676.85 198.025 675.849 195.795 676.089 194.62C676.329 193.445 674.501 192.097 674.034 192.204C673.567 192.324 672.739 193.205 671.805 191.79C670.871 190.375 669.576 189.32 669.803 186.85C670.043 184.38 669.509 180.147 669.923 179.68C670.337 179.213 670.804 178.038 671.925 178.038C673.046 178.038 678.278 178.505 678.692 178.038C679.105 177.57 679.519 175.274 678.932 174.98C678.345 174.686 676.463 174.86 673.82 174.152C671.177 173.445 670.59 173.858 670.297 172.443C670.003 171.028 666.773 168.972 666.773 168.144C666.773 167.316 667.307 164.793 667.534 164.672C667.774 164.552 669.242 165.554 670.47 164.672C671.711 163.791 673.286 162.616 673.767 162.202C674.234 161.788 674.821 160.854 675.115 159.732C675.408 158.611 674.821 157.382 676.236 156.434C677.651 155.5 680.293 154.378 680.587 153.964C680.88 153.55 681.348 153.671 680.587 152.789C679.826 151.908 679.346 152.148 679.346 150.56C679.346 148.971 679.933 146.033 679.292 144.965C678.652 143.91 675.115 139.731 675.115 138.73C675.115 137.729 675.288 136.5 676.116 135.672C676.943 134.845 678.411 133.843 678.291 132.855C678.171 131.854 677.41 130.505 676.876 130.505C676.343 130.505 673.647 129.971 673.286 130.505C672.939 131.039 671.057 133.803 670.283 134.564C669.523 135.325 665.345 135.806 664.584 135.445C663.823 135.098 661.768 132.561 660.287 132.802C658.805 133.042 657.644 132.922 657.23 132.268C656.817 131.613 655.228 127.568 653.814 127.915C652.399 128.262 647.701 129.45 646.82 128.743C645.939 128.035 644.231 127.101 643.59 126.62C642.949 126.139 642.295 121.439 641.828 121.386C641.361 121.333 639.653 121.092 639.533 121.973C639.413 122.855 638.358 124.323 637.651 124.497C636.943 124.671 631.178 124.203 631.178 124.203C631.178 124.203 629.883 121.853 629.242 121.68C628.602 121.506 626.947 120.531 626.653 121.319C626.36 122.094 626.947 122.681 625.479 122.387C624.011 122.094 621.715 121.119 621.768 121.012C621.822 120.919 622.062 118.208 622.062 118.208C622.062 118.208 621.128 116.967 620.821 117.033C620.527 117.087 615.883 117.741 614.761 117.861C613.64 117.981 613.347 118.155 612.639 117.741C611.932 117.327 611.171 116.379 610.584 117.033C609.997 117.688 609.236 118.569 608.755 117.915C608.288 117.274 606.994 114.496 606.633 114.496C606.273 114.496 603.577 114.029 603.577 114.496C603.577 114.964 604.338 120.678 604.338 120.905C604.338 121.132 603.217 124.257 601.522 124.083C599.813 123.91 593.06 118.782 592.179 117.728C591.298 116.673 587.067 115.084 585.893 114.55C584.718 114.016 584.358 114.43 584.358 113.428C584.358 112.427 583.824 111.839 582.716 111.012C581.609 110.184 579.193 109.476 579.073 108.782C578.953 108.088 577.484 103.842 576.951 103.374C576.417 102.907 572.773 100.851 572.84 99.1419C572.893 97.4329 572.72 95.6171 572.306 95.6171C571.892 95.6171 571.065 95.3768 570.184 95.6171C569.303 95.8574 568.943 96.258 567.768 97.3261C566.594 98.3809 561.482 103.268 561.001 103.802C560.534 104.336 557.705 103.748 556.117 103.628C554.528 103.508 554.288 103.628 554.115 104.042C553.941 104.456 553.647 105.457 551.699 105.457C549.75 105.457 548.522 104.696 548.469 105.751C548.416 106.806 548.642 108.168 548.416 108.982C548.189 109.797 548.416 110.397 546.36 110.624C544.305 110.865 540.474 111.159 540.074 110.798C539.674 110.438 538.019 109.089 538.019 109.089L530.077 109.329L524.018 103.214L510.618 104.269C510.618 104.269 508.563 107.206 508.202 107.327C507.842 107.447 505.853 107.567 504.318 106.686C502.784 105.805 502.023 106.152 502.023 105.15C502.023 104.149 502.73 104.029 501.436 103.441C500.141 102.854 498.019 102.734 497.965 101.799C497.912 100.864 497.725 99.0885 497.498 98.1539C497.271 97.2193 497.205 95.9509 496.671 95.5236C496.137 95.0964 495.55 93.7479 495.91 93.4541C496.257 93.1604 496.377 93.0402 497.498 92.7465C498.619 92.4527 499.26 91.5047 499.26 91.5047C499.26 91.5047 498.966 87.8597 498.846 87.566C498.726 87.2722 497.432 87.3256 497.138 86.6313C496.844 85.9237 496.31 83.8141 495.843 82.2253C495.376 80.6364 494.495 79.4614 493.841 78.6336C493.187 77.8058 491.839 76.8044 492.013 76.3371C492.186 75.8698 492.947 74.8684 493.307 74.3344C493.668 73.8003 494.549 72.8657 494.242 72.1046C493.948 71.3436 493.187 70.9296 492.413 70.8095C491.653 70.6893 491.172 70.3422 490.585 70.3956C489.997 70.449 488.943 71.4504 488.236 71.0365C487.528 70.6226 484.819 69.6212 484.472 68.2727C484.125 66.9241 483.938 65.2685 483.765 64.5075C483.591 63.7464 483.057 61.8638 482.35 61.6902C481.643 61.5167 481.709 60.5153 481.055 61.3965C480.415 62.2777 480.415 63.7464 479.053 63.2791C477.705 62.8118 476.464 61.8104 475.997 62.3445C475.53 62.8785 471.699 65.9361 471.352 66.1631C471.005 66.4034 469.711 65.8694 469.123 66.0429C468.536 66.2165 468.189 66.4568 467.882 66.3367C467.589 66.2165 466.948 66.2165 467.055 64.9214C467.175 63.6263 467.522 62.8652 466.641 62.7984C465.76 62.745 462.757 62.3845 461.876 63.0922C460.995 63.7998 460.408 64.5609 459.287 64.3339C458.166 64.0936 456.284 63.3325 455.87 63.92C455.457 64.5075 455.043 65.2151 454.109 65.3887C453.174 65.5622 451.399 66.1497 451.172 65.1483C450.932 64.147 450.412 63.3859 451.119 62.5581C451.826 61.7303 452.24 61.6769 452.534 60.6755C452.827 59.6741 453.415 58.2588 452.654 57.7915C451.893 57.3242 449.838 56.3228 449.838 56.0825C449.838 55.8421 449.838 54.9076 450.425 54.4937C451.012 54.0798 450.719 53.3187 450.598 52.8514C450.478 52.3841 450.652 49.3265 450.652 48.6188C450.652 47.9112 449.771 46.7363 449.357 45.8551C448.943 44.9738 448.356 44.5599 447.769 44.0926C447.182 43.6253 446.421 43.0912 445.473 42.5038C444.539 41.9163 443.538 41.3822 443.712 40.7413C443.885 40.1004 444.299 39.2726 445.18 39.326C446.061 39.3794 446.181 39.2726 446.888 38.9789C447.595 38.6851 447.942 38.6317 448.53 38.0443C449.117 37.4568 448.77 36.9227 449.704 37.163C450.638 37.4034 452.173 37.9241 452.587 37.8039C453.001 37.6838 454.002 37.5769 454.229 37.0963C454.469 36.6289 455.523 35.454 455.163 34.4526C454.816 33.4513 454.109 31.7422 453.748 31.1547C453.401 30.5673 451.626 29.0318 450.398 28.2708C449.157 27.5097 448.516 27.3361 448.049 26.041C447.582 24.7459 447.702 24.4522 446.995 23.6911C446.287 22.9301 445.233 22.3426 444.285 21.5148C443.338 20.687 441.696 20.3932 441.696 18.4572C441.696 16.5212 441.816 16.4011 441.99 15.5198C442.163 14.6386 441.936 13.0498 441.576 11.9282C441.229 10.8067 441.109 10.5129 440.815 9.75186C440.522 8.99081 440.935 8.81724 439.934 8.33658C438.934 7.86927 438.813 7.45535 438.053 7.28178C437.292 7.10821 436.705 7.74908 436.344 6.81446C435.997 5.87983 434.516 4.17081 434.516 4.17081C434.516 4.17081 433.341 3.93048 433.101 3.46317C432.861 2.99586 432.1 0.939683 431.273 0.579185C430.445 0.232039 429.271 0.0451221 428.63 0.0451221C427.989 0.0451221 426.801 0.392273 426.107 0.926344C425.413 1.46041 424.052 2.1013 423.345 2.51521C422.637 2.92911 422.05 3.22285 421.223 3.51659C420.395 3.81033 418.753 3.86372 418.58 3.81031C418.406 3.7569 417.993 3.86372 418.166 3.39641C418.34 2.9291 418.927 2.39504 418.406 1.63399C417.873 0.872935 416.231 0.926334 414.99 1.16667C413.748 1.407 412.868 1.16667 412.868 1.16667C412.868 1.16667 410.639 0.111881 410.278 0.0451221C409.931 -0.00828495 409.344 -0.128443 408.864 0.512442C408.396 1.15333 407.689 2.04789 406.982 2.74219C406.274 3.44983 405.1 3.9839 403.872 5.26567C402.631 6.56079 401.403 7.20167 400.522 7.32183C399.641 7.442 398.52 6.61419 397.879 6.61419C397.239 6.61419 396.585 6.26705 396.291 7.08151C395.997 7.90932 395.757 8.37663 394.876 8.49679C393.996 8.61696 393.168 9.7919 391.166 8.44338C389.164 7.09485 389.338 6.44061 388.163 5.73297C386.989 5.02532 386.228 4.67819 384.866 4.85177C383.518 5.02534 382.277 4.73159 381.57 5.19891C380.862 5.66622 379.861 5.95995 379.688 6.73435C379.514 7.4954 379.341 8.61696 379.808 9.20444C380.275 9.79191 380.636 11.3274 380.102 11.5009C379.568 11.6745 377.926 12.035 378.634 12.8495C379.341 13.6773 380.222 13.6105 379.568 14.4383C378.914 15.2662 378.447 15.6801 378.153 16.855C377.859 18.03 377.219 19.0313 377.219 19.0313L375.457 19.7924C375.457 19.7924 374.99 20.8472 373.922 21.3278C372.868 21.7951 373.161 21.9153 371.867 21.8619C370.572 21.8085 367.93 22.8633 366.982 22.396C366.048 21.9287 365.981 20.5668 364.86 20.46C363.739 20.3532 363.098 20.0461 361.27 20.5134C359.441 20.9807 358.68 21.2744 357.973 21.2744C357.266 21.2744 357.332 20.8071 355.264 20.8071C353.195 20.8071 351.794 20.7537 350.793 20.8605C349.792 20.9807 348.444 19.9259 348.444 19.9259L345.975 18.9913L344.44 19.6989L344.493 22.0488C344.493 22.0488 345.32 24.2252 345.2 24.8127C345.08 25.4001 344.853 26.6418 343.732 25.5203C342.611 24.3988 341.997 23.7579 340.889 23.6911C339.782 23.6377 339.021 23.2238 339.021 23.2238C339.021 23.2238 336.966 21.8085 336.018 21.9287C335.07 22.0488 333.963 22.1023 333.135 23.1036C332.308 24.105 332.254 23.6377 331.307 25.28C330.359 26.9222 329.305 28.164 328.544 29.5792C327.783 30.9945 328.424 31.7556 326.715 32.343C325.007 32.9305 323.072 32.9305 322.418 33.7583C321.764 34.5861 322.832 35.0001 321.363 35.4674C319.895 35.9347 320.429 36.7091 320.069 37.4701C319.722 38.2312 319.014 37.9374 318.828 38.5249C318.654 39.1124 319.121 39.9402 318.481 40.8214C317.84 41.7026 317.48 41.3555 317.239 42.4103C316.999 43.4651 316.999 44.2929 316.892 44.9338C316.772 45.5747 316.358 45.5212 315.958 46.1087C315.544 46.6962 316.078 47.6976 315.838 48.285C315.598 48.8725 314.717 48.8191 314.423 49.7538C314.13 50.6884 313.182 51.1023 314.009 52.1037C314.837 53.1051 315.424 52.9315 315.131 53.9863C314.837 55.0411 315.838 55.989 316.065 56.216C316.305 56.4563 316.358 57.391 316.358 58.0986C316.358 58.8063 316.412 59.0332 316.772 59.5139C317.119 59.9812 317.359 60.1014 317.827 60.9826C318.294 61.8638 319.295 63.2791 319.068 63.7464C318.828 64.2137 318.534 64.6811 318.534 64.9214C318.534 65.1617 318.881 65.629 318.774 66.3367C318.654 67.0443 318.067 66.577 317.84 67.6852C317.6 68.8067 318.254 68.9803 317.373 69.5144C316.492 70.0485 314.784 70.5158 314.784 70.5158C314.784 70.5158 311.607 69.1005 311.14 68.6332C310.673 68.1659 308.497 66.2832 308.377 65.6958C308.257 65.1083 308.431 64.2271 308.03 63.2257C307.63 62.2243 307.323 61.5167 306.789 60.9292C306.255 60.3417 304.146 58.2856 303.372 58.2856C302.598 58.2856 302.078 59.3403 301.143 59.6341C300.209 59.9278 297.38 58.1654 296.552 58.4591C295.725 58.7528 292.842 61.9306 292.441 62.2777C292.041 62.6249 290.506 62.8652 290.146 62.4513C289.799 62.0374 287.97 59.1534 286.849 58.9264C285.728 58.6861 284.433 60.2749 283.913 60.5153C283.392 60.7556 281.978 60.7556 281.444 60.8624C280.91 60.9826 280.029 61.036 280.029 61.6902C280.029 62.3445 279.495 64.2805 279.148 64.8145C278.801 65.3486 278.094 65.9895 277.506 65.5222C276.919 65.0549 276.505 64.5208 276.092 64.9347C275.678 65.3486 274.156 65.8693 273.863 65.8693C273.569 65.8693 272.034 65.8693 271.447 64.4006C270.86 62.9319 268.978 59.9946 269.272 59.5807C269.565 59.1668 270.62 57.4043 270.566 57.0572C270.513 56.71 269.685 56.5899 269.245 56.0024C268.805 55.4149 267.977 53.1184 267.75 52.5843C267.51 52.0503 265.228 51.9968 264.28 52.2906C263.346 52.5843 262.278 52.8247 261.984 53.5857C261.691 54.3468 261.637 55.228 261.224 55.7086C260.81 56.1759 259.876 56.0558 259.515 56.1225C259.168 56.1759 258.755 55.4149 257.98 56.0692C257.22 56.71 254.977 57.6046 254.804 58.1253C254.63 58.646 254.163 59.9545 254.163 60.9425C254.163 61.9306 254.043 63.4126 253.75 63.8799C253.456 64.3473 253.336 65.8159 251.921 64.5208C250.506 63.2257 250.573 63.466 249.692 62.8786C248.811 62.2911 248.224 61.4633 248.157 60.7022C248.104 59.9412 248.104 59.4605 248.157 58.4725C248.211 57.4711 248.798 55.762 247.517 55.7086C246.222 55.6552 245.341 55.5885 244.874 55.7086C244.407 55.8288 243.459 54.8809 242.699 54.8274C241.938 54.774 240.763 55.0677 240.523 55.2947C240.283 55.5217 239.349 57.4177 237.814 57.2975C236.279 57.1773 235.638 53.9462 235.104 53.5857C234.571 53.2252 234.05 52.8247 234.277 52.2372C234.504 51.6497 234.277 49.42 233.449 49.5268C232.622 49.6336 231.808 49.8205 230.74 50.5816C229.686 51.3426 228.912 52.0503 228.271 52.7579C227.63 53.4655 227.977 53.3988 227.39 54.2266C226.803 55.0544 226.509 56.2294 225.562 56.1092C224.614 55.989 223.266 55.5217 222.625 55.8689C221.985 56.216 221.624 56.5765 221.331 56.1092C221.037 55.6419 220.276 54.053 220.276 54.053L218.568 54.1064V57.8717C218.568 57.8717 217.807 59.3403 216.446 60.2215C215.098 61.1028 214.564 62.6382 213.857 62.1041C213.149 61.5701 212.268 61.4632 212.388 60.3417C212.509 59.2201 212.976 58.6327 213.216 57.8182C213.456 56.9904 213.923 56.3495 213.096 55.5217C212.268 54.6939 211.561 53.9863 210.8 53.9329C210.039 53.8795 209.626 53.8795 209.092 53.6391C208.558 53.3988 207.557 52.3974 207.21 51.8099C206.863 51.2225 205.742 50.9287 204.914 51.3426C204.087 51.7565 203.446 52.5844 203.206 53.5724C202.966 54.5604 201.671 54.6939 200.977 54.8675C200.27 55.0411 198.455 55.2814 197.974 55.1078C197.507 54.9343 197.734 54.2266 197.974 53.9329C198.214 53.6391 198.561 52.9315 198.561 52.6377C198.561 52.344 198.308 51.1023 197.707 50.9955C197.093 50.8753 195.572 50.2344 195.572 49.3532C195.572 48.472 196.212 46.4692 195.572 45.8283C194.931 45.1874 194.691 43.9458 193.637 44.4798C192.582 45.0139 191.167 46.0153 190.407 46.1221C189.646 46.2422 187.47 45.8817 186.696 45.8817C185.922 45.8817 179.996 43.5852 179.222 42.9978C178.461 42.4103 179.169 42.0631 177.581 42.0631C175.992 42.0631 173.23 42.3035 171.988 42.2367C170.747 42.1833 169.105 41.9964 168.278 41.4089C167.451 40.8214 167.517 41.2887 167.037 40.3541C166.57 39.4195 166.396 38.1778 165.449 38.1778C164.501 38.1778 163.98 38.0576 163.033 38.6451C162.099 39.2325 161.792 39.6465 160.737 39.5797C159.683 39.5263 157.921 39.6999 156.853 38.9922C155.799 38.2846 155.265 37.0562 154.971 36.3486C154.678 35.6409 154.504 35.8813 154.678 35.0534C154.851 34.2256 155.772 33.7049 154.611 33.6382C153.45 33.5848 151.274 33.1708 150.914 33.2243C150.567 33.2777 149.619 33.6916 148.859 33.9319C148.098 34.1722 145.562 34.3992 144.508 34.3992C143.453 34.3992 143.573 34.1055 142.626 34.3458C141.692 34.5861 139.863 34.3458 137.688 34.2924C135.512 34.239 135.219 33.7049 134.218 33.291C133.217 32.8771 132.282 33.0507 132.042 33.1175C131.802 33.1709 130.921 33.8785 130.04 33.4646C129.159 33.0507 125.222 30.9411 125.222 30.9411C125.222 30.9411 122.926 30.5272 122.633 30.821C122.339 31.1147 121.458 32.3564 120.11 32.9973C118.762 33.6382 115.813 34.466 115.813 34.466C115.813 34.466 113.05 34.5194 111.408 33.9987C109.767 33.4646 108.886 32.9439 108.405 33.064C107.938 33.1842 105.402 35 104.988 35.3605C104.575 35.7077 102.76 35.4807 101.051 35.5341C99.3429 35.5875 96.5268 34.5995 95.4056 34.4793C94.2845 34.3592 93.2302 34.239 92.6963 34.4793C92.1624 34.7197 90.6943 35.3071 90.5208 35.8279C90.3473 36.3619 89.9869 37.884 89.8802 38.832C89.7734 39.78 90.4674 41.3021 90.8144 41.9563C91.1614 42.5972 92.109 43.6653 91.4551 44.373C90.8144 45.0806 89.1061 46.2556 87.3977 46.3758C85.6893 46.4959 84.0477 46.6695 82.8732 47.0834C81.6987 47.4973 80.0571 48.018 79.283 48.3785C78.5222 48.7257 77.4011 50.2077 76.6937 50.7952C75.9864 51.3827 75.3457 51.7298 74.4648 51.3293C73.584 50.9153 73.2236 51.3292 72.9967 50.448C72.7565 49.5668 72.9967 48.9126 71.8756 48.9126C70.7545 48.9126 68.8726 48.6723 68.6457 48.9126C68.4055 49.1529 68.5256 49.0862 67.2977 50.0341C66.0698 50.9821 65.2957 53.2119 64.882 53.559C64.4682 53.9062 63.6408 54.5604 63.2938 55.0945C62.9467 55.6285 62.2928 55.8021 62.7599 56.216C63.227 56.6299 63.2938 56.7501 63.227 57.4577C63.1736 58.1654 63.4673 57.8049 63.9344 58.5125C64.4015 59.2202 63.9878 59.3403 64.228 60.3951C64.4683 61.4499 65.229 60.9292 65.4692 62.2243C65.7095 63.5194 65.2957 65.3486 64.9354 66.1097C64.5884 66.8707 64.1079 67.3514 64.228 68.4596C64.3481 69.5811 64.4683 70.1019 65.1089 70.8763C65.7495 71.6373 65.9898 73.3998 66.9908 74.6415C67.9918 75.8832 69.3398 76.2837 69.927 77.9394C70.5143 79.5816 70.3941 80.7565 70.7545 81.8247C71.1149 82.8928 72.0491 82.9996 72.3427 84.4149C72.6364 85.8302 72.2894 86.8316 73.0501 87.7128C73.8109 88.594 75.5726 89.0079 75.5726 90.4232C75.5726 91.8385 75.9864 92.0655 76.9874 92.8399C77.9883 93.601 81.5118 95.6571 81.0981 96.4315C80.6844 97.2059 75.0388 97.019 74.7451 97.7267C74.4515 98.4343 75.279 101.492 75.6794 102.253C76.0931 103.014 78.8559 107.781 78.4421 108.729C78.0284 109.663 78.322 110.264 77.6146 111.439C76.9073 112.614 76.4935 114.323 76.0798 115.738C75.666 117.154 75.7328 117.621 74.665 117.915C73.6107 118.208 72.6631 118.262 70.6077 118.622C68.5523 118.969 67.3778 118.622 66.4969 118.969C65.6161 119.316 65.7362 119.143 64.9621 120.264C64.2013 121.386 46.0233 139.264 45.2091 140.212C44.3816 141.147 34.2115 154.218 33.4508 155.099C32.69 155.98 31.9827 157.743 30.8082 158.624C29.6337 159.505 27.9253 161.561 26.8042 162.509C25.6831 163.444 25.5096 162.683 25.3361 163.858C25.1625 165.033 25.0424 165.861 24.6954 166.208C24.3484 166.555 23.8145 166.742 23.7612 167.97C23.7078 169.212 25.0558 170.387 25.0558 171.322C25.0558 172.256 25.296 174.032 25.296 175.327C25.296 176.622 24.2416 183.792 24.2416 183.792C24.2416 183.792 23.294 185.087 23.7745 185.501C24.2416 185.915 24.7755 185.555 24.6554 186.436C24.5353 187.317 24.602 188.198 24.602 188.198C24.602 188.198 25.2426 188.666 25.0691 189.373C24.8956 190.081 26.1902 191.256 26.1902 191.256C26.1902 191.256 28.953 193.379 29.4868 194.02C30.0207 194.661 31.4888 195.902 30.3677 196.61C29.2466 197.318 27.8452 198.079 26.4839 196.85C25.1225 195.622 21.9594 193.673 21.0118 193.259C20.0642 192.845 19.8373 192.965 19.4769 193.552C19.1299 194.14 17.3014 196.49 15.7132 197.731C14.1249 198.973 13.8847 200.495 13.2974 201.256C12.7102 202.017 12.0562 201.897 11.2954 203.085C10.5347 204.26 9.7072 204.795 10.2944 206.437C10.8817 208.079 11.0018 209.254 10.7616 210.202C10.5213 211.137 10.0008 210.616 9.7072 211.844C9.41358 213.086 9.7072 214.608 9.11995 215.022C8.5327 215.436 7.47832 216.264 6.94446 216.437C6.41059 216.611 6.06358 215.609 5.11598 216.437C4.16837 217.265 2.23311 220.149 1.69925 221.324C1.16538 222.499 0.698252 223.968 0.644865 225.036C0.591479 226.104 0.297857 227.626 0.111005 228.334C-0.0625008 229.041 -0.00911446 230.216 0.111005 230.457C0.231124 230.697 0.698252 230.87 1.64586 230.577C2.58012 230.283 4.46199 229.749 4.70223 230.87C4.94247 231.992 4.58211 232.513 5.11598 233.047C5.64984 233.581 5.82334 234.395 6.23709 235.984C6.65083 237.573 5.59645 237.279 7.29147 238.454C8.99983 239.629 12.0562 241.045 12.817 241.926C13.5777 242.807 15.6331 249.336 17.2213 249.99C18.8096 250.644 20.6381 250.337 21.7458 250.578C22.8669 250.818 24.4552 252.167 24.4552 253.101C24.4552 254.036 24.989 255.398 25.3361 255.571C25.6831 255.745 25.9767 256.453 26.8042 256.746C27.6317 257.04 27.8586 256.626 28.3924 256.279C28.9263 255.932 29.5669 255.571 30.4478 256.039C31.3287 256.506 31.9827 256.573 32.6767 256.092C33.384 255.625 35.6129 251.913 36.4938 251.392C37.3747 250.858 39.2032 251.339 39.4968 251.272C39.7904 251.219 41.0316 250.15 41.4988 251.566C41.9659 252.981 40.6713 253.208 42.9669 254.69C45.2625 256.172 51.789 259.39 52.6165 259.457C53.444 259.51 53.9645 259.216 55.3792 258.749C56.794 258.282 57.9017 259.163 58.6758 259.216C59.4366 259.27 61.1983 258.629 61.9057 258.575C62.6131 258.522 62.6131 258.923 63.494 259.871C64.3748 260.805 64.842 260.925 66.1366 260.872C67.4312 260.819 67.191 261.166 68.1386 261.286C69.0728 261.406 68.5523 260.164 70.3141 260.698C72.0758 261.232 74.9053 263.996 76.4935 264.584C78.0818 265.171 79.4965 265.412 80.3107 264.584C81.1381 263.756 81.018 263.235 82.6597 263.409C84.3013 263.582 85.5425 263.355 85.5425 263.355C85.5425 263.355 88.7724 262.18 89.8935 262.234C91.0146 262.287 92.3092 261.94 93.3636 263.409C94.418 264.877 95.0052 266.173 96.3666 267.521C97.728 268.87 100.01 269.404 100.371 269.644C100.718 269.884 101.785 271.286 102.373 272.461C102.96 273.636 104.375 274.224 104.788 275.172C105.202 276.12 105.616 276.707 106.67 276.587C107.725 276.467 109.553 276.347 110.554 276C111.555 275.652 112.556 273.877 113.37 273.943C114.198 273.997 115.199 273.997 116.013 273.302C116.827 272.608 117.775 271.18 118.429 270.953C119.069 270.712 120.778 270.832 121.538 270.071C122.299 269.31 120.951 268.015 122.179 267.948C123.42 267.895 125.182 268.242 126.063 267.948C126.944 267.655 128.879 266.653 129.586 266.653C130.294 266.653 130.827 266.947 131.815 266.827C132.803 266.707 134.458 265.705 134.458 265.705C134.458 265.705 137.274 266.64 138.929 266.466C140.584 266.293 144.107 264.29 144.988 264.29C145.869 264.29 147.751 265.171 148.925 264.824C150.1 264.477 150.1 262.941 152.342 262.941C154.584 262.941 156.4 263.289 157.04 262.407C157.681 261.526 161.925 251.179 162.325 250.938C162.739 250.698 170.267 248.588 171.027 248.348C171.788 248.108 172.442 247.881 173.497 247.226C174.551 246.586 174.845 245.29 175.672 245.17C176.5 245.05 176.726 244.756 177.38 244.463C178.034 244.169 178.021 242.927 178.021 242.927L178.074 240.697L178.195 239.055C178.195 239.055 180.904 238.348 182.425 238.521C183.96 238.695 183.894 238.468 184.067 239.522C184.241 240.577 183.533 241.458 185.188 241.352C186.83 241.231 188.004 241.819 188.485 240.818C188.952 239.816 188.898 239.109 189.366 238.882C189.833 238.641 191.127 238.882 191.488 239.349C191.835 239.816 192.729 240.591 193.37 240.524C194.01 240.47 194.077 239.696 194.904 239.936C195.732 240.177 196.439 241.058 197.08 240.871C197.721 240.697 198.134 241.165 199.015 239.456C199.896 237.747 200.777 236.225 202.072 236.692C203.366 237.159 204.367 237.867 204.888 237.52C205.422 237.173 205.595 236.398 206.423 235.877C207.25 235.357 209.479 234.062 210.133 234.449C210.774 234.823 211.187 235.65 211.601 235.998C212.015 236.345 216.953 235.998 217.367 236.291C217.781 236.585 219.422 238.121 220.423 239.229C221.424 240.35 221.304 241.645 222.479 242.406C223.653 243.167 224.414 242.941 225.001 243.528C225.588 244.115 227.47 244.703 227.884 244.823C228.298 244.943 229.005 244.583 229.058 246.065C229.112 247.534 228.645 249.363 230.353 249.416C232.061 249.47 232.475 248.241 232.475 248.241C232.475 248.241 234.237 250.711 235.064 250.591C235.892 250.471 237.88 248.762 239.362 249.056C240.843 249.349 241.711 250.818 240.603 251.406C239.482 251.993 237.547 252.46 237.961 253.929C238.374 255.398 238.895 256.279 239.789 255.571C240.67 254.864 240.617 252.754 241.724 252.981C242.845 253.221 242.605 253.569 243.019 255.451C243.433 257.334 243.726 258.682 244.847 258.162C245.968 257.627 245.728 257.28 246.089 256.279C246.436 255.278 245.915 254.103 247.677 254.049C249.439 253.996 249.972 253.876 251.094 254.103C252.215 254.33 253.803 253.342 254.564 254.223C255.324 255.104 256.566 255.571 257.567 255.344C258.568 255.104 259.862 254.877 259.155 256.399C258.448 257.935 259.982 263.689 260.329 263.983C260.676 264.277 262.799 264.744 262.799 264.744L264.734 265.038C264.734 265.038 264.854 265.278 265.668 265.972C266.496 266.68 267.55 266.386 268.017 265.265C268.484 264.143 268.017 263.435 269.071 263.502C270.126 263.556 271.594 264.09 271.661 264.851C271.714 265.612 271.714 266.68 272.074 266.854C272.421 267.027 273.009 267.267 273.489 267.735C273.956 268.202 275.251 268.082 274.837 269.03C274.423 269.978 273.369 270.445 273.249 271.206C273.129 271.967 274.01 272.742 274.423 273.035C274.837 273.329 275.718 276.854 274.717 277.268C273.716 277.682 273.075 278.389 273.596 279.271C274.13 280.152 274.183 280.152 273.596 281.273C273.009 282.395 272.715 282.982 273.182 283.623C273.649 284.264 272.595 284.918 272.542 285.386C272.488 285.853 274.37 285.8 273.182 286.854C271.994 287.909 270.059 287.442 270.126 288.39C270.193 289.338 270.713 290.099 271.42 290.513C272.128 290.927 272.662 290.513 272.835 291.688C273.009 292.863 273.956 294.572 275.651 294.799C277.36 295.039 277.24 294.038 278.067 294.745C278.895 295.453 278.067 295.627 278.708 297.162C279.348 298.698 280.536 298.217 280.71 298.871C280.883 299.525 280.069 300.994 281.177 301.875C282.298 302.756 283.593 303.638 284.113 302.703C284.647 301.768 284.647 299.525 285.408 299.352C286.168 299.178 287.343 298.471 287.703 300.593C288.05 302.716 288.704 303.945 288.237 304.893C287.77 305.827 286.889 305.36 287.183 306.775C287.476 308.191 287.944 309.299 287.823 310.888C287.703 312.477 285.942 312.236 286.529 313.478C287.116 314.72 288.878 314.893 289.051 314.893C289.225 314.893 290.88 316.242 290.346 317.07C289.812 317.897 288.931 318.418 288.931 319.713C288.931 321.008 288.584 321.355 289.518 321.836C290.453 322.303 290.573 322.544 291.454 323.131C292.335 323.719 292.628 323.305 293.749 323.545C294.87 323.785 294.87 323.599 295.164 324.6C295.458 325.601 295.044 326.429 296.459 326.309C297.873 326.189 299.635 325.428 300.222 326.309C300.81 327.19 300.93 327.364 301.517 327.724C302.104 328.071 303.746 327.484 303.866 328.432C303.986 329.38 304.16 333.372 304.16 333.372L304.453 336.136C304.453 336.136 305.334 338.366 305.334 339.073C305.334 339.781 304.987 341.543 304.987 341.543L306.335 343.6C306.335 343.6 306.042 344.187 306.162 345.242C306.282 346.297 307.336 346.297 307.336 347.365C307.336 348.433 307.977 349.367 308.684 349.661C309.392 349.955 310.032 349.488 311.62 350.249C313.209 351.01 316.799 353.426 316.732 353.894C316.679 354.361 314.797 353.84 313.609 353.894C312.435 353.947 312.261 353.72 311.14 353.653C310.019 353.6 309.725 353.707 307.376 353.707C305.027 353.707 304.667 352.879 303.559 353.587C302.438 354.294 303.265 354.588 301.851 355.055C300.436 355.523 300.209 355.816 299.435 355.002C298.674 354.174 299.261 353.587 298.728 353.119C298.194 352.652 297.38 352.292 297.38 352.292C297.38 352.292 296.619 349.234 295.965 350.356C295.311 351.477 294.964 352.478 294.964 352.478C294.964 352.478 293.723 351.357 293.202 352.478C292.668 353.6 293.082 354.481 292.615 355.296C292.148 356.123 290.613 356.711 290.026 355.763C289.438 354.828 287.677 352.826 287.677 352.826L285.554 351.824L284.62 349.408C284.62 349.408 283.379 348.767 283.272 350.169C283.152 351.584 283.739 352.639 282.565 352.465C281.39 352.292 281.15 352.412 280.977 351.223C280.803 350.048 279.976 348.219 279.629 349.341C279.282 350.462 279.282 350.983 279.161 351.811C279.041 352.639 278.281 352.866 277.747 353.28C277.213 353.693 277.106 354.521 276.452 354.815C275.811 355.109 274.69 355.456 275.158 353.64C275.625 351.811 275.625 351.223 276.038 350.289C276.452 349.354 276.626 348.406 276.038 347.765C275.451 347.124 275.505 345.055 274.33 346.23C273.156 347.405 273.155 347.939 272.568 347.939C271.981 347.939 271.634 346.764 269.979 347.592C268.324 348.419 268.738 348.473 267.977 349.127C267.216 349.768 265.802 348.54 266.149 350.062C266.496 351.597 265.214 351.597 264.854 351.771C264.507 351.944 263.973 351.303 264.44 353.186C264.907 355.069 264.734 355.536 265.148 356.711C265.561 357.886 265.388 360.77 265.615 361.704C265.855 362.639 266.375 362.532 267.91 363.761C269.445 365.002 271.087 364.468 269.739 366.578C268.391 368.701 267.617 369.635 267.39 370.81C267.15 371.985 268.324 373.988 268.391 374.455C268.444 374.923 268.444 376.512 267.336 377.046C266.215 377.58 263.693 377.633 261.691 378.287C259.689 378.942 258.981 377.406 258.808 379.583C258.634 381.759 258.394 382.814 258.928 384.282C259.462 385.751 260.69 386.993 259.222 386.993C257.754 386.993 256.512 387.527 256.512 388.234C256.512 388.942 256.272 389.703 255.098 389.997C253.923 390.291 253.336 390.878 253.216 391.586C253.096 392.293 252.869 393.522 252.095 392.934C251.334 392.347 249.385 392.467 249.385 392.467C249.385 392.467 247.45 392 247.45 393.816C247.45 395.631 247.623 395.872 248.691 396.579C249.746 397.287 250.453 398.168 250.333 399.223C250.213 400.278 249.399 400.572 249.452 401.453C249.505 402.334 248.451 401.746 248.211 402.694C247.97 403.642 248.211 404.163 247.97 404.924C247.73 405.685 247.09 406.513 245.328 405.926C243.566 405.338 239.976 403.803 239.389 404.51C238.801 405.218 238.748 405.392 238.454 405.979C238.161 406.566 237.52 406.446 237.867 407.514C238.214 408.569 238.508 408.342 238.695 409.637C238.868 410.932 238.748 410.692 239.522 412.401C240.296 414.11 240.109 414.631 241.351 416.22C242.592 417.809 244.113 419.037 245.408 419.331C246.703 419.625 248.171 420.626 248.171 420.626C248.171 420.626 248.638 422.749 250.173 422.922C251.708 423.096 254.817 423.63 256.285 423.63C257.754 423.63 259.102 423.51 259.756 422.695C260.396 421.868 260.877 421.28 260.103 420.572C259.342 419.865 258.221 418.984 259.462 418.863C260.703 418.743 260.877 419.157 261.17 418.396C261.464 417.635 260.997 416.273 261.811 417.755C262.625 419.237 265.575 420.172 265.922 419.584C266.269 418.997 266.562 417.942 267.096 417.355C267.63 416.767 267.51 416.473 269.031 416.527C270.566 416.58 270.793 417.061 271.554 416.18C272.315 415.299 272.315 415.125 273.196 414.938C274.076 414.764 274.784 414.297 275.424 413.696C276.065 413.109 277.48 411.694 279.308 411.694C281.137 411.694 282.311 411.453 284.487 411.64C286.662 411.814 288.25 411.64 289.719 413.349C291.187 415.058 292.241 414.351 293.015 416.407C293.776 418.463 294.737 420.973 294.577 422.308L294.95 422.121Z" fill="#ECEBEA"/>
</svg>
