<svg width="894" height="111" viewBox="0 0 894 111" fill="none" xmlns="http://www.w3.org/2000/svg">
<path d="M17.5935 5.82407L22.547 6.16667L20.6681 87.1898C20.5542 93.3565 21.7499 98.2099 24.2551 101.75C26.8742 105.176 30.5182 106.889 35.187 106.889C35.5287 106.889 35.6995 107.231 35.6995 107.917C35.6995 108.602 35.5287 108.944 35.187 108.944C32.1124 108.944 29.7211 108.887 28.013 108.773L18.6184 108.602L7.8573 108.773C6.03532 108.887 3.58703 108.944 0.512433 108.944C0.170811 108.944 0 108.602 0 107.917C0 107.231 0.170811 106.889 0.512433 106.889C5.18126 106.889 8.88216 105.119 11.6151 101.579C14.3481 98.0386 15.7715 93.2423 15.8854 87.1898L17.5935 5.82407ZM138.186 106.889C138.414 106.889 138.528 107.231 138.528 107.917C138.528 108.602 138.414 108.944 138.186 108.944C134.314 108.944 131.24 108.887 128.962 108.773L116.322 108.602L103.511 108.773C101.348 108.887 98.387 108.944 94.6292 108.944C94.2876 108.944 94.1168 108.602 94.1168 107.917C94.1168 107.231 94.2876 106.889 94.6292 106.889C98.2732 106.889 100.949 106.603 102.657 106.032C104.479 105.347 105.675 104.205 106.244 102.606C106.814 101.008 106.985 98.4954 106.757 95.0694L102.828 19.0139L111.539 5.31019L67.9827 107.745C67.755 108.202 67.2995 108.431 66.6162 108.431C65.933 108.431 65.4775 108.202 65.2497 107.745L17.2519 16.1018C14.9744 11.8765 12.5831 8.79321 10.0778 6.85186C7.68649 4.9105 4.89658 3.93982 1.70811 3.93982C1.36649 3.93982 1.19568 3.59722 1.19568 2.91204C1.19568 2.22686 1.36649 1.88427 1.70811 1.88427L9.73622 2.05556C11.3305 2.16976 13.3802 2.22685 15.8854 2.22685L24.9384 2.05556C25.9633 1.94136 27.2728 1.88427 28.867 1.88427C30.3474 1.88427 31.4861 2.39815 32.2833 3.42592C33.0804 4.4537 34.5607 6.90895 36.7243 10.7917L74.986 82.7361L66.4454 98.1528L106.415 6.16667C107.098 4.5679 107.782 3.48303 108.465 2.91204C109.262 2.22686 110.287 1.88427 111.539 1.88427C112.564 1.88427 113.703 1.94136 114.956 2.05556C116.322 2.16976 117.859 2.22685 119.568 2.22685L129.645 2.05556C131.24 1.94136 133.517 1.88427 136.478 1.88427C136.82 1.88427 136.99 2.22686 136.99 2.91204C136.99 3.59722 136.82 3.93982 136.478 3.93982C131.126 3.93982 127.254 5.02469 124.863 7.19444C122.471 9.3642 121.39 12.733 121.617 17.3009L125.717 95.0694C125.945 98.6096 126.343 101.179 126.912 102.778C127.596 104.377 128.734 105.461 130.329 106.032C132.037 106.603 134.656 106.889 138.186 106.889Z" fill="#E6E8EA"/>
<path d="M181.132 95.0694C181.132 98.6096 181.416 101.179 181.986 102.778C182.555 104.377 183.637 105.461 185.231 106.032C186.939 106.603 189.615 106.889 193.259 106.889C193.601 106.889 193.772 107.231 193.772 107.917C193.772 108.602 193.601 108.944 193.259 108.944C189.501 108.944 186.541 108.887 184.377 108.773L171.395 108.602L158.755 108.773C156.478 108.887 153.403 108.944 149.532 108.944C149.304 108.944 149.19 108.602 149.19 107.917C149.19 107.231 149.304 106.889 149.532 106.889C153.176 106.889 155.852 106.603 157.56 106.032C159.268 105.461 160.407 104.377 160.976 102.778C161.659 101.065 162.001 98.4954 162.001 95.0694V15.7593C162.001 12.3333 161.659 9.82099 160.976 8.22223C160.407 6.62346 159.268 5.53858 157.56 4.96759C155.852 4.28241 153.176 3.93982 149.532 3.93982C149.304 3.93982 149.19 3.59722 149.19 2.91204C149.19 2.22686 149.304 1.88427 149.532 1.88427L158.755 2.05556C163.994 2.28395 168.207 2.39815 171.395 2.39815C174.925 2.39815 179.31 2.28395 184.548 2.05556L193.259 1.88427C193.601 1.88427 193.772 2.22686 193.772 2.91204C193.772 3.59722 193.601 3.93982 193.259 3.93982C189.729 3.93982 187.11 4.28241 185.402 4.96759C183.694 5.65278 182.555 6.85186 181.986 8.56482C181.416 10.1636 181.132 12.6759 181.132 16.1018V95.0694Z" fill="#E6E8EA"/>
<path d="M269.748 108.944C269.406 108.944 269.235 108.602 269.235 107.917C269.235 107.231 269.406 106.889 269.748 106.889C273.506 106.889 275.384 105.918 275.384 103.977C275.384 102.949 274.872 101.693 273.847 100.208L220.725 17.6435C217.65 12.733 214.69 9.25 211.843 7.19444C208.996 5.02469 205.978 3.93982 202.79 3.93982C202.448 3.93982 202.277 3.59722 202.277 2.91204C202.277 2.22686 202.448 1.88427 202.79 1.88427L210.135 2.05556C213.323 2.28395 215.715 2.39815 217.309 2.39815C221.294 2.39815 226.248 2.28395 232.169 2.05556L241.906 1.88427C242.133 1.88427 242.247 2.22686 242.247 2.91204C242.247 3.59722 242.133 3.93982 241.906 3.93982C238.034 3.93982 236.098 4.9105 236.098 6.85186C236.098 7.76544 236.61 9.07871 237.635 10.7917L291.782 94.7269C294.629 98.9522 297.533 102.035 300.494 103.977C303.454 105.918 306.871 106.889 310.742 106.889C311.084 106.889 311.255 107.231 311.255 107.917C311.255 108.602 311.084 108.944 310.742 108.944C307.44 108.944 304.878 108.887 303.056 108.773L292.807 108.602L278.801 108.773C276.637 108.887 273.619 108.944 269.748 108.944ZM201.594 108.944C201.253 108.944 201.082 108.602 201.082 107.917C201.082 107.231 201.253 106.889 201.594 106.889C205.124 106.889 209.451 105.005 214.576 101.236C219.7 97.4676 225.052 91.7006 230.632 83.9352L251.642 55.5L254.716 57.8982L235.756 84.963C231.315 91.2438 229.095 96.3256 229.095 100.208C229.095 104.662 232.055 106.889 237.977 106.889C238.205 106.889 238.318 107.231 238.318 107.917C238.318 108.602 238.205 108.944 237.977 108.944C234.219 108.944 231.372 108.887 229.436 108.773L216.796 108.602L208.768 108.773C207.288 108.887 204.897 108.944 201.594 108.944ZM254.887 53.1019L273.847 26.037C278.288 19.642 280.509 14.5031 280.509 10.6204C280.509 6.16667 277.548 3.93982 271.627 3.93982C271.399 3.93982 271.285 3.59722 271.285 2.91204C271.285 2.22686 271.399 1.88427 271.627 1.88427L280.167 2.05556C284.722 2.28395 288.935 2.39815 292.807 2.39815C295.199 2.39815 297.875 2.28395 300.835 2.05556L308.009 1.88427C308.351 1.88427 308.522 2.22686 308.522 2.91204C308.522 3.59722 308.351 3.93982 308.009 3.93982C304.365 3.93982 299.981 5.88117 294.857 9.76389C289.846 13.5324 284.494 19.2994 278.801 27.0648L257.962 55.5L254.887 53.1019Z" fill="#E6E8EA"/>
<path d="M369.847 111C359.257 111 349.805 108.545 341.492 103.634C333.293 98.6096 326.916 91.8719 322.361 83.4213C317.92 74.8565 315.7 65.5494 315.7 55.5C315.7 43.7377 318.661 33.6883 324.582 25.3519C330.503 16.9012 338.076 10.5633 347.3 6.33796C356.638 2.11265 366.146 -1.2905e-09 375.825 0C386.643 1.44232e-09 396.152 2.56945 404.351 7.70834C412.55 12.733 418.813 19.4136 423.14 27.75C427.581 36.0864 429.801 44.9367 429.801 54.3009C429.801 64.6929 427.069 74.2284 421.603 82.9074C416.137 91.5864 408.792 98.4383 399.568 103.463C390.458 108.488 380.551 111 369.847 111ZM375.484 106.718C381.861 106.718 387.554 104.89 392.565 101.236C397.689 97.4676 401.675 92.0432 404.521 84.963C407.368 77.7685 408.792 69.2037 408.792 59.2685C408.792 48.7623 407.198 39.3982 404.009 31.1759C400.821 22.8395 396.209 16.3303 390.173 11.6482C384.138 6.96605 377.078 4.625 368.993 4.625C358.63 4.625 350.659 8.56482 345.079 16.4444C339.499 24.2099 336.71 35.1157 336.71 49.162C336.71 60.2392 338.361 70.1744 341.663 78.9676C345.079 87.6466 349.691 94.4414 355.499 99.3519C361.42 104.262 368.082 106.718 375.484 106.718Z" fill="#E6E8EA"/>
<path d="M474.49 94.3843C474.49 97.3534 474.718 99.5231 475.173 100.894C475.629 102.15 476.483 103.006 477.735 103.463C479.102 103.92 481.265 104.148 484.226 104.148H490.034C498.916 104.148 506.602 101.807 513.093 97.125C519.584 92.3287 523.911 85.8765 526.075 77.7685C526.075 77.5401 526.302 77.4259 526.758 77.4259C526.986 77.4259 527.214 77.5401 527.441 77.7685C527.783 77.8827 527.954 77.9969 527.954 78.1111C526.929 89.4167 526.416 98.838 526.416 106.375C526.416 107.289 526.189 107.974 525.733 108.431C525.391 108.773 524.765 108.944 523.854 108.944H443.231C443.004 108.944 442.89 108.602 442.89 107.917C442.89 107.231 443.004 106.889 443.231 106.889C446.875 106.889 449.495 106.603 451.089 106.032C452.797 105.461 453.936 104.377 454.505 102.778C455.188 101.065 455.53 98.4954 455.53 95.0694V15.7593C455.53 12.3333 455.188 9.82099 454.505 8.22223C453.936 6.62346 452.797 5.53858 451.089 4.96759C449.381 4.28241 446.762 3.93982 443.231 3.93982C443.004 3.93982 442.89 3.59722 442.89 2.91204C442.89 2.22686 443.004 1.88427 443.231 1.88427L451.943 2.05556C457.181 2.28395 461.508 2.39815 464.924 2.39815C468.341 2.39815 472.668 2.28395 477.906 2.05556L486.617 1.88427C486.959 1.88427 487.13 2.22686 487.13 2.91204C487.13 3.59722 486.959 3.93982 486.617 3.93982C483.087 3.93982 480.468 4.28241 478.76 4.96759C477.052 5.53858 475.913 6.68055 475.344 8.39352C474.775 9.99229 474.49 12.5046 474.49 15.9306V94.3843Z" fill="#E6E8EA"/>
<path d="M593.703 111C583.112 111 573.661 108.545 565.348 103.634C557.149 98.6096 550.772 91.8719 546.217 83.4213C541.776 74.8565 539.555 65.5494 539.555 55.5C539.555 43.7377 542.516 33.6883 548.438 25.3519C554.359 16.9012 561.932 10.5633 571.155 6.33796C580.493 2.11265 590.002 2.85556e-08 599.681 2.98461e-08C610.499 3.12884e-08 620.007 2.56945 628.206 7.70834C636.405 12.733 642.668 19.4136 646.995 27.75C651.437 36.0864 653.657 44.9367 653.657 54.3009C653.657 64.6929 650.924 74.2284 645.458 82.9074C639.992 91.5864 632.647 98.4383 623.424 103.463C614.314 108.488 604.407 111 593.703 111ZM599.339 106.718C605.716 106.718 611.41 104.89 616.42 101.236C621.545 97.4676 625.53 92.0432 628.377 84.963C631.224 77.7685 632.647 69.2037 632.647 59.2685C632.647 48.7623 631.053 39.3982 627.865 31.1759C624.676 22.8395 620.064 16.3303 614.029 11.6482C607.994 6.96605 600.933 4.625 592.848 4.625C582.486 4.625 574.515 8.56482 568.935 16.4444C563.355 24.2099 560.565 35.1157 560.565 49.162C560.565 60.2392 562.216 70.1744 565.519 78.9676C568.935 87.6466 573.547 94.4414 579.354 99.3519C585.276 104.262 591.937 106.718 599.339 106.718Z" fill="#E6E8EA"/>
<path d="M733.874 111C720.893 111 709.619 108.602 700.054 103.806C690.488 98.8951 683.143 92.2716 678.019 83.9352C672.895 75.5988 670.333 66.3488 670.333 56.1852C670.333 45.3364 673.179 35.6296 678.873 27.0648C684.681 18.5 692.652 11.8765 702.787 7.19444C712.921 2.39815 724.309 4.64607e-08 736.949 4.81459e-08C742.415 4.88747e-08 747.881 0.456791 753.347 1.37037C758.813 2.16975 763.197 3.25463 766.499 4.625C767.752 5.08179 768.435 5.48148 768.549 5.82407C768.776 6.05247 768.947 6.96605 769.061 8.56482L771.282 32.375C771.282 32.7176 770.94 32.946 770.257 33.0602C769.687 33.1744 769.346 33.0031 769.232 32.5463C767.752 28.7778 765.36 24.6667 762.058 20.213C758.756 15.7593 754.428 11.8765 749.076 8.56482C743.724 5.25309 737.518 3.59723 730.458 3.59723C723.17 3.59723 716.508 5.59568 710.473 9.59259C704.438 13.5895 699.655 19.2994 696.125 26.7222C692.709 34.1451 691.001 42.767 691.001 52.588C691.001 63.3225 692.993 72.9151 696.979 81.3657C701.078 89.8164 706.715 96.3827 713.889 101.065C721.063 105.747 729.148 108.088 738.144 108.088C742.813 108.088 746.4 107.574 748.905 106.546C751.411 105.519 753.233 103.52 754.371 100.551C755.51 97.5818 756.08 93.1852 756.08 87.3611C756.08 81.4228 755.738 77.3117 755.055 75.0278C754.371 72.6296 752.891 71.0309 750.614 70.2315C748.45 69.4321 744.578 69.0324 738.998 69.0324C738.315 69.0324 737.974 68.5756 737.974 67.662C737.974 67.3195 738.031 67.034 738.144 66.8056C738.372 66.463 738.6 66.2917 738.828 66.2917C748.507 66.8627 756.364 67.1482 762.4 67.1482C768.207 67.1482 774.242 66.9769 780.505 66.6343C780.961 66.6343 781.189 67.034 781.189 67.8333C781.303 68.6327 781.075 69.0324 780.505 69.0324C778.456 68.9182 776.975 69.3179 776.064 70.2315C775.267 71.0309 774.755 72.7438 774.527 75.3704C774.299 77.9969 774.186 82.5648 774.186 89.0741C774.186 94.213 774.356 97.8673 774.698 100.037C775.153 102.207 775.381 103.577 775.381 104.148C775.381 104.833 775.267 105.29 775.04 105.519C774.812 105.747 774.299 105.975 773.502 106.204C758.813 109.401 745.603 111 733.874 111Z" fill="#E6E8EA"/>
<path d="M862.229 25.5232C865.304 20.3843 866.841 15.9877 866.841 12.3333C866.841 9.5926 865.987 7.53704 864.279 6.16667C862.685 4.6821 860.35 3.93982 857.276 3.93982C856.934 3.93982 856.763 3.59722 856.763 2.91204C856.763 2.22686 856.934 1.88427 857.276 1.88427L866.329 2.05556C871.567 2.28395 876.236 2.39815 880.335 2.39815C882.271 2.39815 884.605 2.28395 887.338 2.05556L893.658 1.88427C893.886 1.88427 894 2.22686 894 2.91204C894 3.59722 893.886 3.93982 893.658 3.93982C890.128 3.93982 885.801 6.16667 880.677 10.6204C875.552 14.9599 870.997 20.4414 867.012 27.0648L844.806 64.2361L841.219 61.3241L862.229 25.5232ZM805.349 21.5833C801.136 14.9599 797.606 10.392 794.759 7.87963C792.026 5.25309 789.692 3.93982 787.756 3.93982C787.414 3.93982 787.243 3.59722 787.243 2.91204C787.243 2.22686 787.414 1.88427 787.756 1.88427L793.051 2.05556C795.556 2.28395 797.321 2.39815 798.346 2.39815C802.331 2.39815 808.082 2.28395 815.598 2.05556L826.871 1.88427C827.099 1.88427 827.213 2.22686 827.213 2.91204C827.213 3.59722 827.099 3.93982 826.871 3.93982C824.935 3.93982 823.398 4.39661 822.259 5.31019C821.235 6.22377 820.722 7.42284 820.722 8.9074C820.722 10.7346 821.519 12.9043 823.113 15.4167L847.71 54.3009L831.312 62.0093L805.349 21.5833ZM849.248 54.3009V95.0694C849.248 98.6096 849.532 101.179 850.102 102.778C850.671 104.377 851.753 105.461 853.347 106.032C855.055 106.603 857.731 106.889 861.375 106.889C861.717 106.889 861.888 107.231 861.888 107.917C861.888 108.602 861.717 108.944 861.375 108.944C857.617 108.944 854.656 108.887 852.493 108.773L839.682 108.602L827.042 108.773C824.765 108.887 821.69 108.944 817.818 108.944C817.591 108.944 817.477 108.602 817.477 107.917C817.477 107.231 817.591 106.889 817.818 106.889C821.462 106.889 824.138 106.603 825.846 106.032C827.555 105.461 828.693 104.377 829.263 102.778C829.946 101.065 830.288 98.4954 830.288 95.0694V55.8426L849.248 54.3009Z" fill="#E6E8EA"/>
</svg>
