<svg width="486" height="116" viewBox="0 0 486 116" fill="none" xmlns="http://www.w3.org/2000/svg">
<path d="M18.3808 6.08642L23.5559 6.44445L21.5929 91.1173C21.474 97.5617 22.7231 102.634 25.3405 106.333C28.0768 109.914 31.8838 111.704 36.7615 111.704C37.1184 111.704 37.2969 112.062 37.2969 112.778C37.2969 113.494 37.1184 113.852 36.7615 113.852C33.5494 113.852 31.051 113.792 29.2665 113.673L19.4515 113.494L8.20889 113.673C6.30538 113.792 3.74753 113.852 0.535362 113.852C0.178454 113.852 0 113.494 0 112.778C0 112.062 0.178454 111.704 0.535362 111.704C5.41311 111.704 9.27961 109.854 12.1349 106.154C14.9901 102.455 16.4773 97.4424 16.5962 91.1173L18.3808 6.08642ZM144.369 111.704C144.607 111.704 144.726 112.062 144.726 112.778C144.726 113.494 144.607 113.852 144.369 113.852C140.324 113.852 137.112 113.792 134.733 113.673L121.527 113.494L108.143 113.673C105.883 113.792 102.79 113.852 98.8635 113.852C98.5066 113.852 98.3282 113.494 98.3282 112.778C98.3282 112.062 98.5066 111.704 98.8635 111.704C102.671 111.704 105.466 111.405 107.251 110.809C109.154 110.093 110.404 108.899 110.998 107.228C111.593 105.558 111.772 102.932 111.534 99.3519L107.429 19.8704L116.53 5.54939L71.0247 112.599C70.7868 113.076 70.3109 113.315 69.5971 113.315C68.8833 113.315 68.4074 113.076 68.1694 112.599L18.0239 16.8272C15.6445 12.4115 13.1461 9.1893 10.5288 7.1605C8.03043 5.13169 5.11568 4.11728 1.78454 4.11728C1.42763 4.11728 1.24918 3.75926 1.24918 3.04321C1.24918 2.32717 1.42763 1.96914 1.78454 1.96914L10.1719 2.14815C11.8375 2.26749 13.9789 2.32716 16.5962 2.32716L26.0543 2.14815C27.125 2.02881 28.4932 1.96914 30.1587 1.96914C31.7053 1.96914 32.895 2.50618 33.7278 3.58024C34.5606 4.65432 36.1072 7.22016 38.3676 11.2778L78.3413 86.463L69.4186 102.574L111.177 6.44445C111.891 4.77366 112.604 3.63992 113.318 3.04321C114.151 2.32717 115.222 1.96914 116.53 1.96914C117.601 1.96914 118.791 2.02881 120.1 2.14815C121.527 2.26749 123.133 2.32716 124.918 2.32716L135.447 2.14815C137.112 2.02881 139.492 1.96914 142.585 1.96914C142.942 1.96914 143.12 2.32717 143.12 3.04321C143.12 3.75926 142.942 4.11728 142.585 4.11728C136.993 4.11728 132.948 5.25103 130.45 7.51852C127.952 9.78601 126.821 13.3066 127.059 18.0802L131.342 99.3519C131.58 103.051 131.996 105.737 132.591 107.407C133.305 109.078 134.495 110.212 136.16 110.809C137.945 111.405 140.681 111.704 144.369 111.704Z" fill="#E6E8EA"/>
<path d="M236.17 20.9444C237.36 18.1996 237.954 15.8724 237.954 13.963C237.954 10.9794 236.824 8.5926 234.564 6.80247C232.303 5.01234 229.21 4.11728 225.284 4.11728C225.046 4.11728 224.927 3.75926 224.927 3.04321C224.927 2.32717 225.046 1.96914 225.284 1.96914L233.315 2.14815C237.836 2.38683 241.88 2.50617 245.45 2.50617C248.067 2.50617 250.803 2.38683 253.658 2.14815L261.154 1.96914C261.51 1.96914 261.689 2.32717 261.689 3.04321C261.689 3.75926 261.51 4.11728 261.154 4.11728C257.703 4.11728 254.134 5.66873 250.446 8.77161C246.758 11.7551 243.784 15.8128 241.524 20.9444L211.186 88.4321C208.45 94.6379 206.249 100.366 204.584 105.617C203.513 108.84 202.621 111.047 201.907 112.241C201.193 113.315 200.182 113.852 198.873 113.852H164.967C164.729 113.852 164.61 113.494 164.61 112.778C164.61 112.062 164.729 111.704 164.967 111.704C170.32 111.704 175.793 110.63 181.385 108.481C186.976 106.214 192.032 103.171 196.553 99.3519C201.193 95.4136 204.584 90.9383 206.725 85.9259L236.17 20.9444ZM166.394 16.8272C163.658 11.9342 161.338 8.5926 159.435 6.80247C157.531 5.01234 154.914 4.11728 151.583 4.11728C151.345 4.11728 151.226 3.75926 151.226 3.04321C151.226 2.32717 151.345 1.96914 151.583 1.96914C154.2 1.96914 156.044 2.02881 157.115 2.14815C160.684 2.38683 165.324 2.50617 171.034 2.50617C179.481 2.50617 186.441 2.38683 191.913 2.14815C193.46 2.02881 195.304 1.96914 197.445 1.96914C197.683 1.96914 197.802 2.32717 197.802 3.04321C197.802 3.75926 197.683 4.11728 197.445 4.11728C189.95 4.11728 186.203 5.90741 186.203 9.48766C186.203 11.1584 186.798 13.0082 187.987 15.037L217.789 69.6358L207.617 90.7593L166.394 16.8272Z" fill="#E6E8EA"/>
<path d="M305.945 113.136C312.251 113.136 317.01 110.451 320.222 105.08C323.553 99.5905 325.219 92.9074 325.219 85.0309C325.219 75.3642 322.661 68.0844 317.545 63.1914C312.548 58.179 305.41 55.6728 296.131 55.6728C295.655 55.6728 295.417 55.3148 295.417 54.5988C295.417 53.8827 295.655 53.5247 296.131 53.5247C304.696 53.5247 311.061 51.2572 315.225 46.7222C319.508 42.1872 321.649 35.8025 321.649 27.5679C321.649 19.3333 320.222 13.0679 317.367 8.77161C314.63 4.47531 310.526 2.32716 305.053 2.32716C301.008 2.32716 296.963 3.75926 292.918 6.62346C288.873 9.36831 285.304 13.1872 282.211 18.0802C279.118 22.9733 276.798 28.463 275.251 34.5494C275.132 34.9074 274.776 35.0267 274.181 34.9074C273.586 34.7881 273.288 34.6091 273.288 34.3704L275.787 8.95062C276.025 7.51852 276.263 6.56378 276.501 6.08642C276.738 5.60906 277.393 5.19136 278.464 4.83333C287.624 1.61111 297.142 -1.3169e-09 307.016 0C314.868 1.04717e-09 321.471 1.13374 326.825 3.40123C332.178 5.54938 336.164 8.47325 338.781 12.1728C341.517 15.7531 342.885 19.6914 342.885 23.9877C342.885 29.358 340.982 34.3704 337.175 39.0247C333.487 43.5597 328.847 47.2593 323.256 50.1235C317.664 52.9877 312.31 54.5988 307.195 54.9568L309.693 53.5247C316.95 53.5247 323.434 54.7181 329.145 57.1049C334.974 59.3724 339.495 62.6543 342.707 66.9506C346.038 71.2469 347.704 76.2593 347.704 81.9877C347.704 88.4321 345.622 94.2798 341.458 99.5309C337.294 104.663 331.702 108.72 324.683 111.704C317.664 114.568 309.99 116 301.663 116C296.309 116 291.193 115.403 286.316 114.21C281.438 113.016 277.69 111.346 275.073 109.198C274.002 108.601 273.348 108.123 273.11 107.765C272.872 107.288 272.694 106.393 272.575 105.08L270.433 80.9136C270.433 80.6749 270.731 80.4959 271.325 80.3765C272.039 80.2572 272.456 80.3765 272.575 80.7346C273.526 86.821 275.608 92.3704 278.82 97.3827C282.152 102.276 286.197 106.154 290.955 109.019C295.714 111.763 300.711 113.136 305.945 113.136Z" fill="#E6E8EA"/>
<path d="M390.349 67.8457H441.743L442.993 72.858H387.672L390.349 67.8457ZM485.108 111.704C485.703 111.704 486 112.062 486 112.778C486 113.494 485.703 113.852 485.108 113.852C482.728 113.852 479.04 113.733 474.044 113.494C468.809 113.255 465.061 113.136 462.801 113.136C459.827 113.136 456.198 113.255 451.915 113.494C447.87 113.733 444.658 113.852 442.279 113.852C441.803 113.852 441.565 113.494 441.565 112.778C441.565 112.062 441.803 111.704 442.279 111.704C445.372 111.704 447.573 111.405 448.882 110.809C450.309 110.093 451.023 108.899 451.023 107.228C451.023 105.2 449.833 101.798 447.454 97.0247L411.228 25.2407L419.972 9.84568L384.46 88.4321C382.913 91.893 382.14 95.1152 382.14 98.0988C382.14 102.395 383.627 105.737 386.601 108.123C389.694 110.51 393.799 111.704 398.914 111.704C399.509 111.704 399.807 112.062 399.807 112.778C399.807 113.494 399.509 113.852 398.914 113.852C396.773 113.852 393.68 113.733 389.635 113.494C385.114 113.255 381.188 113.136 377.857 113.136C374.645 113.136 370.778 113.255 366.257 113.494C362.212 113.733 358.941 113.852 356.442 113.852C355.966 113.852 355.729 113.494 355.729 112.778C355.729 112.062 355.966 111.704 356.442 111.704C359.773 111.704 362.569 111.047 364.83 109.735C367.09 108.302 369.351 105.856 371.611 102.395C373.871 98.8148 376.548 93.5638 379.641 86.642L418.366 1.25309C418.604 0.895064 419.139 0.716051 419.972 0.716051C420.924 0.716051 421.459 0.895064 421.578 1.25309L466.192 89.3272C470.356 97.8004 473.806 103.648 476.542 106.87C479.278 110.093 482.134 111.704 485.108 111.704Z" fill="#E6E8EA"/>
</svg>
